<svg version="1.1" id="Layer_1" xmlns="http://www.w3.org/2000/svg" xmlns:xlink="http://www.w3.org/1999/xlink" x="0px" y="0px" width="100%" viewBox="0 0 512 512" enable-background="new 0 0 512 512" xml:space="preserve">

<path fill="#000000" opacity="1.000000" stroke="none" d="
M119.000000,513.000000 
	C79.686409,513.000000 40.372814,513.000000 1.029610,513.000000 
	C1.029610,342.438721 1.029610,171.877457 1.029610,1.000000 
	C81.353951,1.000000 161.708313,1.000000 242.845383,1.254692 
	C243.415970,1.999743 243.203857,2.490103 242.614807,3.030805 
	C230.010193,8.026543 217.758331,12.913116 205.559998,17.929932 
	C182.204102,27.535538 159.005997,37.540730 135.491684,46.739147 
	C121.893967,52.058350 117.926498,67.718689 125.280457,78.475677 
	C131.803772,88.017647 138.398468,97.510834 144.983780,107.492188 
	C145.079407,116.629150 145.152908,125.299477 145.181427,134.186401 
	C145.136459,134.403000 145.167709,134.844315 145.111389,135.320068 
	C145.018219,141.153717 144.981369,146.511627 144.627716,152.013000 
	C133.088013,159.476837 125.944359,172.747437 130.079208,188.590927 
	C133.143082,200.330765 143.221786,212.268845 162.686035,213.297241 
	C164.950272,224.665131 168.574066,235.548767 174.837921,245.492889 
	C185.709488,262.751862 199.666412,276.398438 218.935516,284.534851 
	C219.035599,291.658264 219.093170,298.320526 219.081970,305.343994 
	C218.988098,306.438538 218.962997,307.171906 218.566040,307.952087 
	C206.459625,314.055511 194.725098,320.112152 182.527985,326.092651 
	C172.018387,326.354218 161.768372,325.545166 151.968552,327.279694 
	C134.171173,330.429749 118.877617,346.969604 119.575089,367.112244 
	C119.126785,369.153809 119.008400,370.977386 119.008003,372.800964 
	C118.997833,419.533966 118.999992,466.266998 119.000000,513.000000 
z" data-index="1" style="opacity: 1; visibility: hidden; fill: rgb(121, 40, 202);"></path>
<path fill="#DEECF1" opacity="1.000000" stroke="none" d="
M119.959999,366.894257 
	C118.877617,346.969604 134.171173,330.429749 151.968552,327.279694 
	C161.768372,325.545166 172.018387,326.354218 182.540131,326.458496 
	C183.230484,327.695465 183.309250,328.561981 183.682037,329.274750 
	C190.920944,343.114227 198.167847,356.949615 205.470200,370.755707 
	C209.895920,379.123169 214.461136,387.416901 218.882462,395.786652 
	C221.898071,401.495239 223.069641,401.816345 228.287674,398.294800 
	C229.314087,397.602112 230.688660,397.425354 232.076050,397.336243 
	C236.187515,409.089722 240.125610,420.517609 243.935654,432.260742 
	C222.285706,458.054779 200.755280,483.526428 179.269821,509.035980 
	C178.304794,510.181763 177.747299,511.670837 177.000000,513.000000 
	C158.312439,513.000000 139.624878,513.000000 120.468658,512.531372 
	C119.986664,463.673218 119.973335,415.283722 119.959999,366.894257 
z" data-index="2" style="opacity: 1;"></path>
<path fill="#DEECF1" opacity="1.000000" stroke="none" d="
M350.000000,513.000000 
	C327.645782,513.000000 305.291534,513.000000 282.649994,512.583862 
	C280.376343,499.227173 278.449890,486.277008 276.385010,473.348938 
	C274.689301,462.732635 272.829132,452.142609 271.140625,441.240417 
	C284.601990,425.063110 297.920471,409.148926 311.340515,393.320862 
	C323.147278,379.395599 335.067688,365.566681 347.070740,352.065735 
	C348.139862,357.460632 349.868561,362.481781 349.889404,367.510010 
	C350.090424,416.005981 350.004150,464.503174 350.000000,513.000000 
z" data-index="3" style="opacity: 1;"></path>
<path fill="#A8D3D8" opacity="1.000000" stroke="none" d="
M350.468658,513.000000 
	C350.004150,464.503174 350.090424,416.005981 349.889404,367.510010 
	C349.868561,362.481781 348.139862,357.460632 347.171051,351.756653 
	C352.178284,345.094238 357.268005,339.152222 362.221893,333.099091 
	C363.427429,331.626038 364.186340,329.787476 365.150604,328.116943 
	C381.842194,331.922699 395.113373,350.254150 394.016174,366.948303 
	C394.018036,416.244598 394.009033,464.622314 394.000000,513.000000 
	C379.645782,513.000000 365.291534,513.000000 350.468658,513.000000 
z" data-index="4"></path>
<path fill="#454545" opacity="1.000000" stroke="none" d="
M364.707336,328.028625 
	C364.186340,329.787476 363.427429,331.626038 362.221893,333.099091 
	C357.268005,339.152222 352.178284,345.094238 347.038208,351.386169 
	C335.067688,365.566681 323.147278,379.395599 311.340515,393.320862 
	C297.920471,409.148926 284.601990,425.063110 270.849548,441.461060 
	C258.933502,455.659546 247.407333,469.336884 235.583160,483.150208 
	C230.481552,488.952209 225.611603,494.563690 220.896576,500.302490 
	C217.491089,504.447357 214.291458,508.761414 211.000000,513.000000 
	C199.979111,513.000000 188.958206,513.000000 177.468658,513.000000 
	C177.747299,511.670837 178.304794,510.181763 179.269821,509.035980 
	C200.755280,483.526428 222.285706,458.054779 244.222443,432.104126 
	C246.258728,429.737061 247.903244,427.860992 249.497864,425.943420 
	C259.171753,414.310730 268.834229,402.668549 278.799072,390.929138 
	C297.108246,369.531433 315.118896,348.234100 333.129517,326.936768 
	C343.507690,327.271271 353.885864,327.605774 364.707336,328.028625 
z" data-index="5" style="opacity: 1;"></path>
<path fill="#0290CF" opacity="1.000000" stroke="none" d="
M242.991745,2.980462 
	C243.203857,2.490103 243.415970,1.999743 243.314041,1.254692 
	C252.020889,1.000000 261.041779,1.000000 270.531342,1.000002 
	C271.920441,1.973471 272.658569,3.392586 273.788208,3.854682 
	C296.980988,13.342081 320.211151,22.738363 343.450012,32.112728 
	C355.057556,36.795109 366.783081,41.195648 378.300140,46.088779 
	C392.059082,51.934380 396.221832,66.247520 388.816681,78.287720 
	C382.843323,88.000031 376.110535,97.245262 369.230225,106.584427 
	C362.174957,101.663391 355.604126,96.855637 349.320038,91.871742 
	C352.430145,87.600418 355.029785,83.327377 358.118317,79.443016 
	C367.827576,67.231918 361.701508,52.098297 348.691986,46.828197 
	C323.611603,36.668247 298.597412,26.344028 273.589203,16.007055 
	C263.345428,11.772860 253.188293,7.328962 242.991745,2.980462 
z" data-index="6"></path>
<path fill="#027CAE" opacity="1.000000" stroke="none" d="
M235.881165,483.014221 
	C247.407333,469.336884 258.933502,455.659546 270.750793,441.761597 
	C272.829132,452.142609 274.689301,462.732635 276.385010,473.348938 
	C278.449890,486.277008 280.376343,499.227173 282.181335,512.583862 
	C265.645782,513.000000 249.291550,513.000000 232.295197,512.586792 
	C233.062424,502.453735 234.471786,492.733978 235.881165,483.014221 
z" data-index="7"></path>
<path fill="#D9E8EE" opacity="1.000000" stroke="none" d="
M235.583160,483.150208 
	C234.471786,492.733978 233.062424,502.453735 231.826538,512.586792 
	C225.312363,513.000000 218.624710,513.000000 211.468536,513.000000 
	C214.291458,508.761414 217.491089,504.447357 220.896576,500.302490 
	C225.611603,494.563690 230.481552,488.952209 235.583160,483.150208 
z" data-index="8"></path>
<path fill="#D5FFFF" opacity="1.000000" stroke="none" d="
M119.575089,367.112244 
	C119.973335,415.283722 119.986664,463.673218 120.000000,512.531372 
	C120.000000,513.000000 119.500000,513.000000 119.250000,513.000000 
	C118.999992,466.266998 118.997833,419.533966 119.008003,372.800964 
	C119.008400,370.977386 119.126785,369.153809 119.575089,367.112244 
z" data-index="9"></path>
<path fill="#CBE5E8" opacity="1.000000" stroke="none" d="
M394.250000,513.000000 
	C394.009033,464.622314 394.018036,416.244598 394.034363,367.393921 
	C394.360291,368.596832 394.955475,370.272491 394.957275,371.948761 
	C395.007538,418.653381 394.997650,465.358032 394.998871,512.531372 
	C395.000000,513.000000 394.500000,513.000000 394.250000,513.000000 
z" data-index="10"></path>
<path fill="#FECEBF" opacity="1.000000" stroke="none" d="
M218.892975,284.073730 
	C199.666412,276.398438 185.709488,262.751862 174.837921,245.492889 
	C168.574066,235.548767 164.950272,224.665131 162.686035,213.297241 
	C143.221786,212.268845 133.143082,200.330765 130.079208,188.590927 
	C125.944359,172.747437 133.088013,159.476837 144.999969,152.050415 
	C150.198563,150.559052 154.708130,149.173752 159.540085,147.908356 
	C170.949249,155.401657 182.871384,161.504089 196.244553,161.888000 
	C226.168900,162.747070 256.123566,162.550095 286.524902,162.858185 
	C296.789429,162.798828 306.634735,163.173386 316.390869,162.409348 
	C330.580719,161.298126 343.238068,155.513977 355.443848,147.876617 
	C360.241394,149.259979 364.648438,150.565155 369.055481,151.870346 
	C382.827881,160.335602 386.987427,173.950912 384.630432,185.618408 
	C381.091644,203.135818 368.054718,212.542053 351.512238,213.148895 
	C344.594421,245.850647 326.281097,269.701599 295.100189,284.061340 
	C293.583130,284.411926 292.802185,284.686615 292.032104,284.988983 
	C279.530548,289.897400 266.424133,292.878967 253.171783,291.520172 
	C241.612534,290.334930 230.309311,286.652679 218.892975,284.073730 
M283.610687,236.888382 
	C284.038391,233.775879 284.967651,230.630585 284.766937,227.559143 
	C284.515656,223.713409 282.055237,221.155533 277.979370,220.834900 
	C273.776001,220.504242 270.938324,222.397110 269.814758,226.538834 
	C269.468262,227.816193 269.353638,229.157166 269.144287,230.470840 
	C268.426117,234.976959 265.789062,238.052902 261.724060,239.795288 
	C254.100769,243.062851 246.104599,238.313904 244.802780,229.726334 
	C244.166595,225.529602 243.138733,221.788864 238.258286,220.901215 
	C232.018265,219.766281 228.077347,224.796829 229.276321,232.270523 
	C231.260803,244.640625 241.205185,254.592072 252.980957,255.991989 
	C266.729279,257.626434 278.025513,250.775116 283.610687,236.888382 
M310.264160,206.254120 
	C310.543213,200.336761 311.025757,194.419815 311.038147,188.501892 
	C311.048431,183.597153 307.813934,180.564682 303.335846,180.624939 
	C298.875977,180.684952 295.979675,183.709381 295.832672,188.728348 
	C295.706512,193.035080 295.859802,197.349350 295.780823,201.658310 
	C295.710388,205.500031 296.940826,208.587250 300.740295,209.954147 
	C304.445679,211.287201 307.567230,210.187485 310.264160,206.254120 
M215.817795,182.630203 
	C209.610062,178.932816 203.562134,180.998199 203.053787,187.308701 
	C202.616196,192.740952 202.758957,198.246414 203.031204,203.700226 
	C203.217850,207.438980 205.644775,209.727234 209.334320,210.325012 
	C213.028091,210.923447 216.690186,209.525604 217.297638,206.021240 
	C218.606491,198.470459 219.735168,190.694534 215.817795,182.630203 
z" data-index="11" style="opacity: 1;"></path>
<path fill="#FFCEBF" opacity="1.000000" stroke="none" d="
M218.937897,307.905304 
	C218.962997,307.171906 218.988098,306.438538 219.463165,305.356934 
	C221.974960,305.638641 224.050919,306.226074 226.096375,306.905304 
	C240.500916,311.688538 255.217239,313.745148 270.244293,310.953064 
	C278.529694,309.413574 286.652924,307.001373 294.849274,304.982574 
	C294.900818,305.710327 294.952393,306.438110 294.730560,307.701294 
	C292.928864,310.806244 291.400543,313.375763 289.593811,316.129456 
	C278.701935,332.952698 268.088531,349.591797 256.933685,367.079712 
	C249.236847,354.843781 242.347214,343.736511 235.296371,332.732483 
	C229.949982,324.388550 224.398239,316.176208 218.937897,307.905304 
z" data-index="12" style="opacity: 1;"></path>
<path fill="#FFB19F" opacity="1.000000" stroke="none" d="
M294.924805,304.521912 
	C286.652924,307.001373 278.529694,309.413574 270.244293,310.953064 
	C255.217239,313.745148 240.500916,311.688538 226.096375,306.905304 
	C224.050919,306.226074 221.974960,305.638641 219.531937,304.995758 
	C219.093170,298.320526 219.035599,291.658264 218.935516,284.534851 
	C230.309311,286.652679 241.612534,290.334930 253.171783,291.520172 
	C266.424133,292.878967 279.530548,289.897400 292.032104,284.988983 
	C292.802185,284.686615 293.583130,284.411926 294.733032,284.099121 
	C295.071472,290.736359 295.035889,297.398804 294.924805,304.521912 
z" data-index="13" style="opacity: 1;"></path>
<path fill="#A8D2D7" opacity="1.000000" stroke="none" d="
M289.872223,315.945282 
	C291.400543,313.375763 292.928864,310.806244 294.755249,308.065918 
	C305.987061,313.387665 316.911438,318.899139 327.865143,324.351654 
	C329.436951,325.134094 331.150513,325.631744 332.963989,326.598969 
	C315.118896,348.234100 297.108246,369.531433 278.608154,390.617920 
	C274.722382,386.616516 271.326111,382.826019 268.236084,378.885468 
	C283.108521,362.087250 297.697998,345.457947 311.727051,327.087891 
	C303.731567,323.011414 296.801910,319.478333 289.872223,315.945282 
z" data-index="14"></path>
<path fill="#FBB443" opacity="1.000000" stroke="none" d="
M349.033295,92.047882 
	C355.604126,96.855637 362.174957,101.663391 368.933960,106.755890 
	C369.072937,115.707909 369.023804,124.375191 368.599884,133.401215 
	C358.844849,127.759445 349.464569,121.758926 339.996338,115.548401 
	C339.560028,115.054077 339.211700,114.769760 338.902191,114.016281 
	C338.908295,110.133545 340.093658,106.234909 336.368011,103.995087 
	C325.144073,97.247391 314.052734,90.217804 302.442535,84.199440 
	C296.506927,81.122597 289.573212,79.971275 282.931824,77.626541 
	C282.176117,75.235909 281.579224,73.168419 281.408997,71.065567 
	C285.438049,71.541161 289.052155,71.981117 292.640839,72.574860 
	C312.539856,75.867134 331.295319,82.488564 349.033295,92.047882 
z" data-index="15"></path>
<path fill="#037CAE" opacity="1.000000" stroke="none" d="
M340.084290,115.758408 
	C349.464569,121.758926 358.844849,127.759445 368.536377,133.864044 
	C368.877472,134.134399 368.907318,134.300690 368.635040,134.895386 
	C363.906403,139.482025 359.479889,143.640244 355.053375,147.798462 
	C343.238068,155.513977 330.580719,161.298126 316.390869,162.409348 
	C306.634735,163.173386 296.789429,162.798828 286.836914,162.635834 
	C300.644012,160.814636 313.335938,155.931580 324.914154,148.040466 
	C334.897858,141.236099 343.084473,133.521759 340.021301,119.733910 
	C339.741730,118.475517 340.049347,117.086678 340.084290,115.758408 
z" data-index="16"></path>
<path fill="#3B4B4B" opacity="1.000000" stroke="none" d="
M355.443848,147.876633 
	C359.479889,143.640244 363.906403,139.482025 368.605713,135.147095 
	C368.922607,140.297836 368.966705,145.625290 369.033142,151.411545 
	C364.648438,150.565155 360.241394,149.259979 355.443848,147.876633 
z" data-index="17"></path>
<path fill="#08A9F0" opacity="1.000000" stroke="none" d="
M349.320038,91.871735 
	C331.295319,82.488564 312.539856,75.867134 292.640839,72.574860 
	C289.052155,71.981117 285.438049,71.541161 281.145203,70.851082 
	C273.266937,58.719864 261.960846,53.735901 249.779160,57.183109 
	C242.125107,59.349083 237.052795,64.638710 232.601837,71.143524 
	C230.207809,71.409050 228.228271,71.671104 226.255554,71.977234 
	C196.136536,76.651222 168.275421,86.565582 144.961655,107.025558 
	C138.398468,97.510834 131.803772,88.017647 125.280457,78.475677 
	C117.926498,67.718689 121.893967,52.058350 135.491684,46.739147 
	C159.005997,37.540730 182.204102,27.535538 205.559998,17.929932 
	C217.758331,12.913116 230.010193,8.026543 242.614807,3.030805 
	C253.188293,7.328962 263.345428,11.772860 273.589203,16.007055 
	C298.597412,26.344028 323.611603,36.668247 348.691986,46.828197 
	C361.701508,52.098297 367.827576,67.231918 358.118317,79.443016 
	C355.029785,83.327377 352.430145,87.600418 349.320038,91.871735 
z" data-index="18"></path>
<path fill="#0390CF" opacity="1.000000" stroke="none" d="
M339.996338,115.548401 
	C340.049347,117.086678 339.741730,118.475517 340.021301,119.733910 
	C343.084473,133.521759 334.897858,141.236099 324.914154,148.040466 
	C313.335938,155.931580 300.644012,160.814636 286.377838,162.560867 
	C256.123566,162.550095 226.168900,162.747070 196.244553,161.888000 
	C182.871384,161.504089 170.949249,155.401657 159.334045,147.639557 
	C154.259644,143.115372 149.713669,138.979843 145.167709,134.844315 
	C145.167709,134.844315 145.136459,134.403000 145.463745,134.031006 
	C155.661926,127.318115 165.148697,120.249146 175.487320,114.794899 
	C194.334702,104.851776 215.002441,100.657845 236.256897,98.209282 
	C249.527451,111.885933 264.490784,111.746155 278.416138,98.107498 
	C299.679382,100.490273 319.745880,105.739243 338.863342,114.485435 
	C339.211700,114.769760 339.560028,115.054077 339.996338,115.548401 
z" data-index="19"></path>
<path fill="#CBE5E8" opacity="1.000000" stroke="none" d="
M289.593811,316.129456 
	C296.801910,319.478333 303.731567,323.011414 311.727051,327.087891 
	C297.697998,345.457947 283.108521,362.087250 267.948090,378.721313 
	C263.947296,375.124542 260.540771,371.541870 256.892303,367.704742 
	C248.698608,376.317505 240.764450,384.565063 232.991165,392.961548 
	C232.150894,393.869263 232.243042,395.640167 231.902679,397.010681 
	C230.688660,397.425354 229.314087,397.602112 228.287674,398.294800 
	C223.069641,401.816345 221.898071,401.495239 218.882462,395.786652 
	C214.461136,387.416901 209.895920,379.123169 205.470200,370.755707 
	C198.167847,356.949615 190.920944,343.114227 183.682037,329.274750 
	C183.309250,328.561981 183.230484,327.695465 183.002686,326.534668 
	C194.725098,320.112152 206.459625,314.055511 218.566040,307.952087 
	C224.398239,316.176208 229.949982,324.388550 235.296371,332.732483 
	C242.347214,343.736511 249.236847,354.843781 256.933685,367.079712 
	C268.088531,349.591797 278.701935,332.952698 289.593811,316.129456 
z" data-index="20" style="opacity: 1;"></path>
<path fill="#FBC166" opacity="1.000000" stroke="none" d="
M235.992264,98.005516 
	C215.002441,100.657845 194.334702,104.851776 175.487320,114.794899 
	C165.148697,120.249146 155.661926,127.318115 145.508728,133.814392 
	C145.152908,125.299477 145.079407,116.629150 144.983780,107.492188 
	C168.275421,86.565582 196.136536,76.651222 226.255554,71.977234 
	C228.228271,71.671104 230.207809,71.409050 232.579498,71.532013 
	C229.302444,81.168373 230.974350,89.780594 235.992264,98.005516 
z" data-index="21"></path>
<path fill="#3B4B4B" opacity="1.000000" stroke="none" d="
M145.111389,135.320068 
	C149.713669,138.979843 154.259644,143.115372 159.011658,147.519684 
	C154.708130,149.173752 150.198563,150.559052 145.316757,151.906921 
	C144.981369,146.511627 145.018219,141.153717 145.111389,135.320068 
z" data-index="22"></path>
<path fill="#037CAE" opacity="1.000000" stroke="none" d="
M232.076050,397.336243 
	C232.243042,395.640167 232.150894,393.869263 232.991165,392.961548 
	C240.764450,384.565063 248.698608,376.317505 256.892303,367.704742 
	C260.540771,371.541870 263.947296,375.124542 267.641846,378.871338 
	C271.326111,382.826019 274.722382,386.616516 278.309601,390.718262 
	C268.834229,402.668549 259.171753,414.310730 249.497864,425.943420 
	C247.903244,427.860992 246.258728,429.737061 244.350494,431.788940 
	C240.125610,420.517609 236.187515,409.089722 232.076050,397.336243 
z" data-index="23" style="opacity: 1;"></path>
<path fill="#3B4B4B" opacity="1.000000" stroke="none" d="
M283.447601,237.250397 
	C278.025513,250.775116 266.729279,257.626434 252.980957,255.991989 
	C241.205185,254.592072 231.260803,244.640625 229.276321,232.270523 
	C228.077347,224.796829 232.018265,219.766281 238.258286,220.901215 
	C243.138733,221.788864 244.166595,225.529602 244.802780,229.726334 
	C246.104599,238.313904 254.100769,243.062851 261.724060,239.795288 
	C265.789062,238.052902 268.426117,234.976959 269.144287,230.470840 
	C269.353638,229.157166 269.468262,227.816193 269.814758,226.538834 
	C270.938324,222.397110 273.776001,220.504242 277.979370,220.834900 
	C282.055237,221.155533 284.515656,223.713409 284.766937,227.559143 
	C284.967651,230.630585 284.038391,233.775879 283.447601,237.250397 
z" data-index="24" style="opacity: 1;"></path>
<path fill="#3B4B4B" opacity="1.000000" stroke="none" d="
M310.082642,206.616119 
	C307.567230,210.187485 304.445679,211.287201 300.740295,209.954147 
	C296.940826,208.587250 295.710388,205.500031 295.780823,201.658310 
	C295.859802,197.349350 295.706512,193.035080 295.832672,188.728348 
	C295.979675,183.709381 298.875977,180.684952 303.335846,180.624939 
	C307.813934,180.564682 311.048431,183.597153 311.038147,188.501892 
	C311.025757,194.419815 310.543213,200.336761 310.082642,206.616119 
z" data-index="25"></path>
<path fill="#3B4B4B" opacity="1.000000" stroke="none" d="
M216.107910,182.929016 
	C219.735168,190.694534 218.606491,198.470459 217.297638,206.021240 
	C216.690186,209.525604 213.028091,210.923447 209.334320,210.325012 
	C205.644775,209.727234 203.217850,207.438980 203.031204,203.700226 
	C202.758957,198.246414 202.616196,192.740952 203.053787,187.308701 
	C203.562134,180.998199 209.610062,178.932816 216.107910,182.929016 
z" data-index="26"></path>
<path fill="#FDDBA6" opacity="1.000000" stroke="none" d="
M236.256897,98.209282 
	C230.974350,89.780594 229.302444,81.168373 232.997162,71.549042 
	C237.052795,64.638710 242.125107,59.349083 249.779160,57.183109 
	C261.960846,53.735901 273.266937,58.719864 280.718506,70.886444 
	C281.579224,73.168419 282.176117,75.235909 282.895874,78.084061 
	C283.855774,85.904800 281.470001,92.104012 278.019470,98.025406 
	C264.490784,111.746155 249.527451,111.885933 236.256897,98.209282 
z" data-index="27"></path>
<path fill="#FBC166" opacity="1.000000" stroke="none" d="
M278.416138,98.107498 
	C281.470001,92.104012 283.855774,85.904800 283.054688,78.407196 
	C289.573212,79.971275 296.506927,81.122597 302.442535,84.199440 
	C314.052734,90.217804 325.144073,97.247391 336.368011,103.995087 
	C340.093658,106.234909 338.908295,110.133545 338.902191,114.016281 
	C319.745880,105.739243 299.679382,100.490273 278.416138,98.107498 
z" data-index="28"></path>
</svg>