<svg version="1.1" id="Layer_1" xmlns="http://www.w3.org/2000/svg" xmlns:xlink="http://www.w3.org/1999/xlink" x="0px" y="0px"
	 width="100%" viewBox="0 0 1312 264" enable-background="new 0 0 1312 264" xml:space="preserve">
<path fill="#FEFEFE" opacity="1.000000" stroke="none" 
	d="
M990.000000,265.000000 
	C660.000000,265.000000 330.500000,265.000000 1.000000,265.000000 
	C1.000000,177.000000 1.000000,89.000000 1.000000,1.000000 
	C438.333344,1.000000 875.666687,1.000000 1313.000000,1.000000 
	C1313.000000,89.000000 1313.000000,177.000000 1313.000000,265.000000 
	C1205.500000,265.000000 1098.000000,265.000000 990.000000,265.000000 
M229.418091,139.398788 
	C229.418091,139.398788 228.959305,139.596497 228.064377,139.307343 
	C212.017120,139.307343 195.969849,139.307343 179.412247,139.307343 
	C179.986221,136.002670 180.586395,133.590347 180.790710,131.144943 
	C181.169647,126.609512 183.344910,125.133606 187.946838,125.271027 
	C199.252533,125.608643 210.575974,125.450439 221.889816,125.303497 
	C223.432404,125.283455 226.088196,124.467957 226.318100,123.544907 
	C228.190186,116.028610 229.607468,108.399033 231.335266,99.963715 
	C216.240906,99.963715 201.919434,99.963715 187.030304,99.963715 
	C188.199234,95.315712 189.162704,91.484627 190.670090,87.706894 
	C190.833847,87.627129 190.997620,87.547356 192.042877,87.745659 
	C207.322342,87.649010 222.601791,87.552361 238.528534,87.610214 
	C238.708389,87.480392 238.888260,87.350571 239.788361,86.937798 
	C241.564270,78.697777 243.340164,70.457764 245.176971,61.935215 
	C243.978745,61.744858 243.200500,61.513767 242.422043,61.513115 
	C216.267380,61.491165 190.112564,61.529602 163.958237,61.432144 
	C161.154556,61.421700 160.387268,62.507366 159.873367,65.084839 
	C153.627686,96.409241 147.237534,127.704811 140.915924,159.014130 
	C140.506256,161.043121 140.350449,163.123337 140.008453,165.691071 
	C168.289551,165.691071 195.913971,165.724457 223.537292,165.566498 
	C224.619553,165.560303 226.386414,163.883240 226.652679,162.715317 
	C228.128174,156.243378 229.237411,149.687927 230.654922,142.901001 
	C230.712997,142.685364 230.678253,142.486069 230.913651,141.873474 
	C230.568176,141.114212 230.222687,140.354950 229.418091,139.398788 
M437.940338,158.193893 
	C439.102386,157.189468 440.264435,156.185043 441.916565,155.029816 
	C442.347076,154.515793 442.777588,154.001770 443.820251,153.219421 
	C444.610046,152.173813 445.399811,151.128204 446.743744,149.782104 
	C447.566467,148.356506 448.389221,146.930923 449.769684,145.111389 
	C450.172241,144.071381 450.574799,143.031372 451.384277,141.595154 
	C451.471710,141.046921 451.559174,140.498688 452.061981,139.447906 
	C452.157440,138.610138 452.252899,137.772354 452.695099,136.354980 
	C452.711487,135.909744 452.727844,135.464493 453.054016,134.274734 
	C452.563416,129.442963 452.072784,124.611198 451.574921,119.296463 
	C451.574921,119.296463 451.227783,118.960609 451.176514,118.255943 
	C449.779694,116.515938 448.382904,114.775932 446.665283,112.444633 
	C440.470306,109.369347 434.457306,105.820190 428.029358,103.351456 
	C421.543121,100.860359 414.574036,99.650513 407.977020,97.407249 
	C406.298187,96.836388 404.032227,94.353951 404.172882,92.966400 
	C404.360107,91.118904 406.309570,88.864380 408.101166,87.913124 
	C410.349579,86.719299 413.184265,86.346230 415.801605,86.179893 
	C426.990204,85.468895 437.647858,87.454216 447.827637,93.538422 
	C450.397034,88.048409 452.844208,82.819572 455.837372,77.171341 
	C456.267853,76.122597 456.698364,75.073853 457.338104,73.898903 
	C457.338104,73.898903 457.363312,73.655853 457.843506,73.255943 
	C458.118225,72.489868 458.392975,71.723793 459.113342,70.385750 
	C461.186188,65.703522 456.351349,67.035446 454.687286,65.416382 
	C454.687286,65.416382 454.532898,65.367218 454.015991,64.987610 
	C453.405334,64.817017 452.794678,64.646423 451.849548,64.092880 
	C451.202332,63.984627 450.555145,63.876369 449.356567,63.321960 
	C448.892944,63.258190 448.429321,63.194424 447.543732,62.761604 
	C447.014801,62.617504 446.485870,62.473408 445.350769,61.966331 
	C444.200287,61.767292 443.049805,61.568249 441.535492,60.989880 
	C440.684174,60.973179 439.832825,60.956478 438.386658,60.669193 
	C437.955658,60.670341 437.524658,60.671490 436.571533,60.301292 
	C434.705841,60.172813 432.840149,60.044334 430.369110,59.679493 
	C429.939789,59.692684 429.510437,59.705875 428.340698,59.345238 
	C419.594757,60.009884 410.848816,60.674530 401.391632,61.323986 
	C400.279419,61.702389 399.167175,62.080788 397.411835,62.536350 
	C395.874847,63.178017 394.337830,63.819683 392.176117,64.519905 
	C391.623413,64.807869 391.070740,65.095825 390.252167,65.423531 
	C390.252167,65.423531 390.060211,65.611717 389.342896,65.792236 
	C373.560364,74.493225 366.137970,88.634689 369.460663,104.038521 
	C371.784851,114.813217 379.902679,119.879730 389.398499,123.078506 
	C397.420898,125.780930 405.717834,127.668480 413.739899,130.371750 
	C415.578430,130.991287 418.172760,133.704498 417.952026,135.049210 
	C417.645813,136.914917 415.238495,139.402008 413.322479,139.840912 
	C409.015106,140.827667 404.281036,141.658066 400.034729,140.866760 
	C389.698425,138.940567 379.540985,136.054749 368.361511,133.323303 
	C365.666779,138.688675 362.329102,145.334091 358.494873,152.209717 
	C358.088104,153.178986 357.681335,154.148254 356.835083,155.871933 
	C358.666107,157.355179 360.497162,158.838409 362.773804,160.908569 
	C365.175629,161.653702 367.577423,162.398849 370.339966,163.513275 
	C370.511749,163.523102 370.683563,163.532944 371.417603,163.919479 
	C374.958679,164.625702 378.499786,165.331940 382.806244,166.360672 
	C383.898651,166.478378 384.991058,166.596069 386.785492,167.109512 
	C396.415314,166.843948 406.045135,166.578384 416.268097,166.449615 
	C416.848450,166.289490 417.428772,166.129364 418.536896,166.156799 
	C420.010498,165.726822 421.484070,165.296829 423.548706,164.941666 
	C424.054138,164.679153 424.559570,164.416641 425.638641,164.181610 
	C426.137787,163.927063 426.636902,163.672501 427.895203,163.269638 
	C428.578125,162.918243 429.261047,162.566864 430.587708,162.304520 
	C432.826782,160.973145 435.065857,159.641754 436.981812,158.078674 
	C436.981812,158.078674 437.291687,158.328735 437.940338,158.193893 
M686.377380,168.757645 
	C678.091797,163.383957 669.806274,158.010284 660.870544,152.214920 
	C658.784424,158.598267 657.181274,164.489838 654.924011,170.119064 
	C652.877380,175.222687 653.262085,178.583160 658.855469,181.031952 
	C663.065674,182.875183 666.732422,185.929733 670.737366,188.281219 
	C673.757812,190.054672 676.930542,191.568741 680.784668,193.269608 
	C685.978760,190.661377 691.194885,188.096130 696.362915,185.437286 
	C715.555603,175.563004 734.732483,165.657913 754.615784,155.733200 
	C756.446533,153.791946 759.274414,152.147415 759.954041,149.863586 
	C766.816467,126.803795 773.349182,103.645515 779.868591,80.485107 
	C780.174988,79.396851 779.484985,78.028130 779.249451,76.834076 
	C779.249451,76.834076 779.247803,76.791931 779.040527,76.167107 
	C777.019714,74.857353 774.998901,73.547607 772.785339,71.869331 
	C772.785339,71.869331 772.370667,71.837891 772.097900,71.209785 
	C769.054626,69.252281 766.011292,67.294777 762.723999,64.934494 
	C762.723999,64.934494 762.255615,64.885292 762.039917,64.252144 
	C760.016052,62.943256 757.992188,61.634365 755.748230,59.925182 
	C755.748230,59.925182 755.294983,59.868195 755.037476,59.250034 
	C753.014465,57.942028 750.991516,56.634018 748.739319,54.930325 
	C748.739319,54.930325 748.285767,54.871983 748.079407,54.306992 
	C747.375854,53.993843 746.672363,53.680691 745.726135,52.963806 
	C745.726135,52.963806 745.262329,52.881058 745.024231,52.254776 
	C743.346985,51.179260 741.669800,50.103741 739.741211,48.542328 
	C739.257507,48.318321 738.773865,48.094315 738.044983,47.235779 
	C734.355408,44.871353 730.665771,42.506924 726.261230,39.823029 
	C725.325134,40.131859 724.343262,40.344242 723.459595,40.763588 
	C699.923462,51.932999 676.486206,63.317364 652.807800,74.175888 
	C646.819458,76.921997 644.308044,81.000473 643.383545,87.620995 
	C643.333191,88.103500 643.282837,88.585999 642.750244,89.592201 
	C641.066467,95.412430 639.382629,101.232658 637.257751,107.627090 
	C637.229980,108.102142 637.202209,108.577194 636.696106,109.579994 
	C635.395569,114.071579 634.095032,118.563156 632.331177,123.624191 
	C632.295288,124.104691 632.259338,124.585197 631.733826,125.583038 
	C630.059265,131.406464 628.384644,137.229874 626.261292,143.672363 
	C625.913269,145.136200 625.565247,146.600052 624.768188,148.609863 
	C623.773926,152.091431 622.779663,155.573013 621.343201,159.635544 
	C621.307983,160.113983 621.272766,160.592438 620.743225,161.526123 
	C620.427368,163.035904 620.111572,164.545700 619.310364,166.606888 
	C619.248962,167.084351 619.187561,167.561798 618.662659,168.563950 
	C616.044495,177.394028 613.426331,186.224106 610.361023,195.630951 
	C610.307678,196.107452 610.254333,196.583954 609.666138,197.537216 
	C607.715637,204.376343 605.765076,211.215454 603.335815,218.613785 
	C603.286072,219.094376 603.236328,219.574951 602.710999,220.585403 
	C601.029785,226.407516 599.348572,232.229630 597.223755,238.621552 
	C597.194214,239.095016 597.164673,239.568497 596.682495,240.523041 
	C596.732971,242.907761 592.471130,245.507507 597.236755,248.075912 
	C597.236755,248.075912 597.686462,248.140747 597.916199,248.781723 
	C602.517151,252.242874 607.118103,255.704010 612.501282,259.753571 
	C613.215332,256.896393 613.709106,254.920624 614.677002,252.382339 
	C614.716492,251.901535 614.755981,251.420731 615.265320,250.410080 
	C616.259521,246.921631 617.253723,243.433167 618.680115,239.362183 
	C618.715637,238.887024 618.751221,238.411850 619.314941,237.453430 
	C621.298767,230.617172 623.282532,223.780914 625.711243,216.370941 
	C625.742981,215.894913 625.774719,215.418884 626.291443,214.420670 
	C627.593994,209.928558 628.896545,205.436447 630.663879,200.373810 
	C630.693787,199.891907 630.723755,199.409988 631.239319,198.406082 
	C632.927917,192.586197 634.616577,186.766312 636.741882,180.373978 
	C636.782349,179.902130 636.822754,179.430267 637.378906,178.462387 
	C638.661987,173.956268 639.945068,169.450150 641.677551,164.370789 
	C641.715393,163.893265 641.753296,163.415741 642.308289,162.443680 
	C649.017578,140.654266 655.789246,118.883659 662.373047,97.056381 
	C663.432983,93.542152 665.341675,91.495293 668.639709,89.951149 
	C682.808044,83.317558 696.965881,76.642113 710.890320,69.518257 
	C715.278931,67.273033 718.949463,66.213219 723.248474,70.036926 
	C723.434509,70.048553 723.620544,70.060181 723.977844,70.615334 
	C724.642517,70.903107 725.307190,71.190872 726.262268,71.987740 
	C726.456238,72.011322 726.650208,72.034912 727.085999,72.667908 
	C728.737488,73.717102 730.389038,74.766296 732.243408,76.355637 
	C732.746826,76.607613 733.250244,76.859589 734.005493,77.724472 
	C735.674255,78.772018 737.343018,79.819572 739.119995,81.191895 
	C739.119995,81.191895 739.460449,81.227776 739.739441,81.817703 
	C740.496887,82.161980 741.254333,82.506248 742.196106,83.190315 
	C742.196106,83.190315 742.582520,83.178711 742.862183,83.798195 
	C744.918945,85.096077 746.975769,86.393959 749.247864,88.090446 
	C749.247864,88.090446 749.697693,88.144737 750.041870,88.854286 
	C750.764648,90.785126 752.513367,93.013985 752.052368,94.600967 
	C747.187805,111.347931 741.970825,127.992523 736.124939,144.807663 
	C719.756897,152.941223 703.388916,161.074768 686.377380,168.757645 
M857.211670,147.834625 
	C857.685913,149.937241 858.274109,152.021545 858.615417,154.145538 
	C860.468628,165.678040 860.447632,165.681412 872.245911,165.681427 
	C879.819702,165.681427 887.393494,165.681427 895.314270,165.681427 
	C895.109802,163.906540 895.095703,162.921082 894.873962,161.984787 
	C887.171997,129.460236 879.487427,96.931366 871.591125,64.453972 
	C871.288635,63.209641 868.942505,61.665707 867.508240,61.623196 
	C858.688171,61.361759 849.852905,61.638096 841.030701,61.415642 
	C837.828369,61.334896 836.005066,62.299843 834.248108,65.069374 
	C814.283752,96.539581 794.155151,127.905510 774.095398,159.315292 
	C772.918945,161.157394 771.956726,163.136246 770.545471,165.681335 
	C782.602112,165.681335 793.736267,165.788956 804.862549,165.542542 
	C806.223755,165.512390 807.942932,163.840881 808.810120,162.489655 
	C812.038269,157.459549 814.980103,152.245697 818.961243,147.163696 
	C831.633606,147.134262 844.305969,147.104828 857.211670,147.834625 
M315.320526,147.687302 
	C315.848145,149.427582 316.560303,151.135330 316.873749,152.913361 
	C319.123596,165.676788 319.097870,165.681320 331.802490,165.681305 
	C339.044647,165.681305 346.286835,165.681305 353.952423,165.681305 
	C353.621948,163.735123 353.494934,162.605499 353.234253,161.507584 
	C345.590271,129.312958 337.894775,97.130440 330.347565,64.913193 
	C329.717926,62.225395 328.584045,61.411419 325.976624,61.446430 
	C317.317535,61.562691 308.645508,61.741161 299.999908,61.381111 
	C296.069397,61.217430 294.042969,62.746002 292.070374,65.856422 
	C273.714325,94.801064 255.215744,123.655304 236.783844,152.551941 
	C234.176926,156.638947 231.706009,160.812714 228.721161,165.682022 
	C239.951752,165.682022 250.089432,165.421692 260.202576,165.806152 
	C264.433197,165.966965 266.499725,164.260162 268.365479,160.883438 
	C271.004730,156.106857 274.086121,151.574570 277.902069,147.128754 
	C290.268066,147.085770 302.634033,147.042770 315.320526,147.687302 
M937.321960,159.908920 
	C938.328491,154.854843 939.155701,149.754868 940.431946,144.769806 
	C940.925354,142.842468 942.152283,139.959000 943.541199,139.634476 
	C946.791504,138.875061 950.218384,138.791397 952.289551,143.064896 
	C955.475159,149.637985 959.566956,155.766083 962.942566,162.255554 
	C964.409119,165.074814 966.241516,165.809235 969.240845,165.748199 
	C978.395691,165.561966 987.556946,165.695847 996.715515,165.664078 
	C997.927429,165.659882 999.138550,165.417389 1000.942810,165.220581 
	C995.107788,154.970886 989.613770,145.320251 984.051086,135.549042 
	C985.354919,134.819275 986.332825,134.191513 987.375244,133.700806 
	C1000.265381,127.632683 1008.311218,117.846535 1011.356628,103.750175 
	C1014.275269,90.240120 1009.261963,76.112732 997.965881,68.690071 
	C990.687439,63.907383 982.362793,61.947720 973.795288,61.736328 
	C959.981873,61.395504 946.156128,61.548561 932.335632,61.498959 
	C928.899170,61.486622 925.462646,61.497116 921.976685,61.497116 
	C914.994629,96.389511 908.130249,130.694031 901.191406,165.370514 
	C913.311401,165.370514 924.680176,165.370514 936.133423,165.370514 
	C936.527405,163.647064 936.858704,162.197525 937.321960,159.908920 
M1019.276428,128.730362 
	C1016.884033,140.863510 1014.491638,152.996658 1011.989075,165.688400 
	C1023.190918,165.688400 1033.498169,165.778732 1043.798462,165.552444 
	C1044.859985,165.529129 1046.507690,163.773163 1046.811279,162.554108 
	C1048.177612,157.068665 1049.440308,151.525497 1050.204590,145.929962 
	C1051.159546,138.938339 1056.650513,136.127686 1061.349609,131.761200 
	C1067.619751,141.901474 1073.527588,151.344238 1079.306763,160.865128 
	C1081.223877,164.023300 1083.175415,166.027100 1087.498291,165.820999 
	C1096.975830,165.369125 1106.489868,165.691940 1115.989014,165.669769 
	C1117.535400,165.666153 1119.081665,165.515778 1121.259277,165.399536 
	C1110.462769,147.348679 1100.208862,130.038162 1089.739136,112.859245 
	C1087.912598,109.862206 1088.000610,108.172203 1090.734009,105.774002 
	C1101.497070,96.330513 1112.026489,86.620560 1122.625977,76.991074 
	C1127.955078,72.149567 1133.248291,67.268517 1139.550293,61.496170 
	C1129.022583,61.496170 1119.862793,62.082962 1110.815796,61.324867 
	C1102.407349,60.620281 1096.521973,63.515072 1090.756104,69.444176 
	C1081.298828,79.169151 1070.980347,88.056656 1059.923218,98.320000 
	C1062.473267,85.216331 1064.734741,73.594612 1067.041870,61.739170 
	C1055.329346,61.739170 1044.226929,61.739170 1032.783813,61.739170 
	C1028.312378,83.903488 1023.875366,105.897263 1019.276428,128.730362 
M508.565094,88.837303 
	C505.819214,81.695908 502.870209,74.623817 500.401031,67.387993 
	C498.834167,62.796352 496.430878,60.847027 491.345306,61.370262 
	C485.906464,61.929844 480.365509,61.496502 474.869110,61.496536 
	C470.977020,61.496563 467.084900,61.496544 462.796356,61.496544 
	C470.783966,81.846436 478.268250,101.401329 486.203094,120.771660 
	C488.083069,125.361061 488.568756,129.548553 487.530487,134.291626 
	C485.301453,144.474350 483.367920,154.721802 481.168427,165.664001 
	C492.627899,165.664001 503.405792,165.768906 514.173889,165.492722 
	C515.188599,165.466690 516.707947,163.167358 517.027344,161.711578 
	C518.558960,154.731308 519.469666,147.607529 521.166504,140.673126 
	C522.527222,135.112427 523.492310,128.863632 526.728699,124.460602 
	C537.859192,109.317795 549.920166,94.859505 561.604980,80.123230 
	C566.289978,74.214684 570.918762,68.261627 576.226135,61.496544 
	C566.806458,61.496544 558.472656,62.079727 550.263123,61.319801 
	C543.155945,60.661919 539.037842,63.542198 535.051514,68.931145 
	C527.956116,78.523254 520.169922,87.604439 512.263855,97.406174 
	C510.926147,94.358040 509.876740,91.966759 508.565094,88.837303 
M716.048523,127.474068 
	C717.834717,121.176895 719.620972,114.879715 721.629272,107.799416 
	C716.690552,110.098572 712.453979,111.657143 708.661804,113.950478 
	C704.724976,116.331314 701.756104,115.905495 698.529419,112.795654 
	C696.563843,110.901207 694.010376,109.616623 691.479065,107.893417 
	C688.558228,115.197205 685.796631,122.102760 682.947632,129.226746 
	C686.212280,131.055649 689.213135,132.802414 692.278137,134.428314 
	C694.008179,135.346054 696.287842,137.186279 697.556580,136.683731 
	C703.794312,134.213058 709.776306,131.096481 716.048523,127.474068 
z"/>
<path fill="#192D5F" opacity="1.000000" stroke="none" 
	d="
M937.255981,160.328461 
	C936.858704,162.197525 936.527405,163.647064 936.133423,165.370514 
	C924.680176,165.370514 913.311401,165.370514 901.191406,165.370514 
	C908.130249,130.694031 914.994629,96.389511 921.976685,61.497116 
	C925.462646,61.497116 928.899170,61.486622 932.335632,61.498959 
	C946.156128,61.548561 959.981873,61.395504 973.795288,61.736328 
	C982.362793,61.947720 990.687439,63.907383 997.965881,68.690071 
	C1009.261963,76.112732 1014.275269,90.240120 1011.356628,103.750175 
	C1008.311218,117.846535 1000.265381,127.632683 987.375244,133.700806 
	C986.332825,134.191513 985.354919,134.819275 984.051086,135.549042 
	C989.613770,145.320251 995.107788,154.970886 1000.942810,165.220581 
	C999.138550,165.417389 997.927429,165.659882 996.715515,165.664078 
	C987.556946,165.695847 978.395691,165.561966 969.240845,165.748199 
	C966.241516,165.809235 964.409119,165.074814 962.942566,162.255554 
	C959.566956,155.766083 955.475159,149.637985 952.289551,143.064896 
	C950.218384,138.791397 946.791504,138.875061 943.541199,139.634476 
	C942.152283,139.959000 940.925354,142.842468 940.431946,144.769806 
	C939.155701,149.754868 938.328491,154.854843 937.255981,160.328461 
M976.490234,97.936577 
	C976.151001,92.563599 972.799561,89.572601 967.950256,89.034615 
	C962.560120,88.436615 957.052429,88.897690 951.327026,88.897690 
	C949.818054,96.788406 948.316162,104.641945 946.715515,113.011810 
	C952.508057,113.011810 957.312012,113.113380 962.110168,112.990051 
	C971.274109,112.754517 976.001465,108.019112 976.490234,97.936577 
z"/>
<path fill="#192D5F" opacity="1.000000" stroke="none" 
	d="
M1019.357361,128.310699 
	C1023.875366,105.897263 1028.312378,83.903488 1032.783813,61.739170 
	C1044.226929,61.739170 1055.329346,61.739170 1067.041870,61.739170 
	C1064.734741,73.594612 1062.473267,85.216331 1059.923218,98.320000 
	C1070.980347,88.056656 1081.298828,79.169151 1090.756104,69.444176 
	C1096.521973,63.515072 1102.407349,60.620281 1110.815796,61.324867 
	C1119.862793,62.082962 1129.022583,61.496170 1139.550293,61.496170 
	C1133.248291,67.268517 1127.955078,72.149567 1122.625977,76.991074 
	C1112.026489,86.620560 1101.497070,96.330513 1090.734009,105.774002 
	C1088.000610,108.172203 1087.912598,109.862206 1089.739136,112.859245 
	C1100.208862,130.038162 1110.462769,147.348679 1121.259277,165.399536 
	C1119.081665,165.515778 1117.535400,165.666153 1115.989014,165.669769 
	C1106.489868,165.691940 1096.975830,165.369125 1087.498291,165.820999 
	C1083.175415,166.027100 1081.223877,164.023300 1079.306763,160.865128 
	C1073.527588,151.344238 1067.619751,141.901474 1061.349609,131.761200 
	C1056.650513,136.127686 1051.159546,138.938339 1050.204590,145.929962 
	C1049.440308,151.525497 1048.177612,157.068665 1046.811279,162.554108 
	C1046.507690,163.773163 1044.859985,165.529129 1043.798462,165.552444 
	C1033.498169,165.778732 1023.190918,165.688400 1011.989075,165.688400 
	C1014.491638,152.996658 1016.884033,140.863510 1019.357361,128.310699 
z"/>
<path fill="#1A2E60" opacity="1.000000" stroke="none" 
	d="
M230.472076,143.161087 
	C229.237411,149.687927 228.128174,156.243378 226.652679,162.715317 
	C226.386414,163.883240 224.619553,165.560303 223.537292,165.566498 
	C195.913971,165.724457 168.289551,165.691071 140.008453,165.691071 
	C140.350449,163.123337 140.506256,161.043121 140.915924,159.014130 
	C147.237534,127.704811 153.627686,96.409241 159.873367,65.084839 
	C160.387268,62.507366 161.154556,61.421700 163.958237,61.432144 
	C190.112564,61.529602 216.267380,61.491165 242.422043,61.513115 
	C243.200500,61.513767 243.978745,61.744858 245.176971,61.935215 
	C243.340164,70.457764 241.564270,78.697777 239.296265,86.880501 
	C238.496536,87.034035 238.188889,87.244865 237.881256,87.455704 
	C222.601791,87.552361 207.322342,87.649010 191.481064,87.381027 
	C190.654892,87.228783 190.390533,87.441170 190.126175,87.653549 
	C189.162704,91.484627 188.199234,95.315712 187.030304,99.963715 
	C201.919434,99.963715 216.240906,99.963715 231.335266,99.963715 
	C229.607468,108.399033 228.190186,116.028610 226.318100,123.544907 
	C226.088196,124.467957 223.432404,125.283455 221.889816,125.303497 
	C210.575974,125.450439 199.252533,125.608643 187.946838,125.271027 
	C183.344910,125.133606 181.169647,126.609512 180.790710,131.144943 
	C180.586395,133.590347 179.986221,136.002670 179.412247,139.307343 
	C195.969849,139.307343 212.017120,139.307343 228.521149,139.873413 
	C229.475983,141.346695 229.974030,142.253891 230.472076,143.161087 
z"/>
<path fill="#192D5F" opacity="1.000000" stroke="none" 
	d="
M276.978516,146.937866 
	C274.086121,151.574570 271.004730,156.106857 268.365479,160.883438 
	C266.499725,164.260162 264.433197,165.966965 260.202576,165.806152 
	C250.089432,165.421692 239.951752,165.682022 228.721161,165.682022 
	C231.706009,160.812714 234.176926,156.638947 236.783844,152.551941 
	C255.215744,123.655304 273.714325,94.801064 292.070374,65.856422 
	C294.042969,62.746002 296.069397,61.217430 299.999908,61.381111 
	C308.645508,61.741161 317.317535,61.562691 325.976624,61.446430 
	C328.584045,61.411419 329.717926,62.225395 330.347565,64.913193 
	C337.894775,97.130440 345.590271,129.312958 353.234253,161.507584 
	C353.494934,162.605499 353.621948,163.735123 353.952423,165.681305 
	C346.286835,165.681305 339.044647,165.681305 331.802490,165.681305 
	C319.097870,165.681320 319.123596,165.676788 316.873749,152.913361 
	C316.560303,151.135330 315.848145,149.427582 315.060669,146.949020 
	C314.466797,145.870300 314.135437,145.235001 313.798492,145.232056 
	C301.723145,145.126251 289.647308,145.070343 277.571747,145.104294 
	C277.372314,145.104874 277.176178,146.300125 276.978516,146.937866 
M306.008942,97.329720 
	C305.919403,97.190170 305.854828,97.019501 305.732239,96.921181 
	C305.638428,96.845947 305.375275,96.804497 305.350433,96.845909 
	C302.557037,101.495972 299.761566,106.144974 297.005737,110.817345 
	C294.903259,114.382011 292.852051,117.976929 290.600159,121.865540 
	C298.022675,121.865540 304.348236,121.865540 310.953766,121.865540 
	C309.318817,113.559853 307.785431,105.770195 306.008942,97.329720 
z"/>
<path fill="#192D5F" opacity="1.000000" stroke="none" 
	d="
M818.029419,147.100800 
	C814.980103,152.245697 812.038269,157.459549 808.810120,162.489655 
	C807.942932,163.840881 806.223755,165.512390 804.862549,165.542542 
	C793.736267,165.788956 782.602112,165.681335 770.545471,165.681335 
	C771.956726,163.136246 772.918945,161.157394 774.095398,159.315292 
	C794.155151,127.905510 814.283752,96.539581 834.248108,65.069374 
	C836.005066,62.299843 837.828369,61.334896 841.030701,61.415642 
	C849.852905,61.638096 858.688171,61.361759 867.508240,61.623196 
	C868.942505,61.665707 871.288635,63.209641 871.591125,64.453972 
	C879.487427,96.931366 887.171997,129.460236 894.873962,161.984787 
	C895.095703,162.921082 895.109802,163.906540 895.314270,165.681427 
	C887.393494,165.681427 879.819702,165.681427 872.245911,165.681427 
	C860.447632,165.681412 860.468628,165.678040 858.615417,154.145538 
	C858.274109,152.021545 857.685913,149.937241 857.007568,147.054016 
	C856.164368,145.857529 855.527771,145.083511 854.885803,145.079010 
	C843.509705,144.999115 832.132446,144.964767 820.757446,145.097107 
	C819.840454,145.107773 818.938416,146.402679 818.029419,147.100800 
M840.559814,122.340805 
	C844.338074,122.340805 848.116333,122.340805 852.571777,122.340805 
	C850.834167,113.250420 849.224548,104.829590 847.394470,95.255531 
	C841.972229,104.806465 837.212585,113.190369 832.017639,122.340889 
	C835.306091,122.340889 837.447266,122.340889 840.559814,122.340805 
z"/>
<path fill="#192D5F" opacity="1.000000" stroke="none" 
	d="
M452.744202,135.019257 
	C452.727844,135.464493 452.711487,135.909744 452.218872,136.670074 
	C449.469513,137.901031 449.413269,138.888672 451.646606,139.950455 
	C451.559174,140.498688 451.471710,141.046921 450.810608,141.873001 
	C449.895264,143.269012 449.553589,144.387161 449.211945,145.505325 
	C448.389221,146.930923 447.566467,148.356506 446.087524,149.947266 
	C444.690277,151.237534 443.949219,152.362640 443.208130,153.487747 
	C442.777588,154.001770 442.347076,154.515793 441.268250,155.059341 
	C439.510529,156.168823 438.401123,157.248779 437.291687,158.328735 
	C437.291687,158.328735 436.981812,158.078674 436.782043,158.116959 
	C434.369537,159.508667 432.156738,160.862076 429.943970,162.215485 
	C429.261047,162.566864 428.578125,162.918243 427.371368,163.064362 
	C426.253357,163.290756 425.659180,163.722443 425.065002,164.154114 
	C424.559570,164.416641 424.054138,164.679153 423.046143,164.677521 
	C421.032104,164.932007 419.520630,165.450623 418.009125,165.969238 
	C417.428772,166.129364 416.848450,166.289490 415.559998,166.289108 
	C413.398682,166.124115 411.944672,166.086929 410.492310,166.120529 
	C402.355835,166.308823 394.219696,166.514221 386.083466,166.713760 
	C384.991058,166.596069 383.898651,166.478378 382.230499,165.940033 
	C379.349457,164.930511 377.060883,164.259338 374.732147,163.785828 
	C373.475372,163.530289 372.149872,163.612808 370.855377,163.542816 
	C370.683563,163.532944 370.511749,163.523102 370.130859,163.007202 
	C367.390594,161.774628 364.859375,161.048126 362.328186,160.321640 
	C360.497162,158.838409 358.666107,157.355179 357.431519,155.367294 
	C358.349121,153.901611 358.670288,152.940552 358.991425,151.979507 
	C362.329102,145.334091 365.666779,138.688675 368.361511,133.323303 
	C379.540985,136.054749 389.698425,138.940567 400.034729,140.866760 
	C404.281036,141.658066 409.015106,140.827667 413.322479,139.840912 
	C415.238495,139.402008 417.645813,136.914917 417.952026,135.049210 
	C418.172760,133.704498 415.578430,130.991287 413.739899,130.371750 
	C405.717834,127.668480 397.420898,125.780930 389.398499,123.078506 
	C379.902679,119.879730 371.784851,114.813217 369.460663,104.038521 
	C366.137970,88.634689 373.560364,74.493225 389.758423,65.911789 
	C390.288635,65.815491 390.403351,65.599640 390.518036,65.383789 
	C391.070740,65.095825 391.623413,64.807869 392.628784,64.781029 
	C394.739319,64.181160 396.397125,63.320175 398.054962,62.459190 
	C399.167175,62.080788 400.279419,61.702389 401.982880,61.546577 
	C410.052979,61.482613 417.534485,61.247437 425.008301,60.862949 
	C426.381866,60.792286 427.724304,60.115879 429.081116,59.719067 
	C429.510437,59.705875 429.939789,59.692684 430.879333,60.089668 
	C433.290894,60.557438 435.192291,60.615040 437.093658,60.672638 
	C437.524658,60.671490 437.955658,60.670341 438.836151,61.056751 
	C440.156860,61.419277 441.028107,61.394245 441.899323,61.369209 
	C443.049805,61.568249 444.200287,61.767292 445.688049,62.411617 
	C446.672089,62.948151 447.318909,63.039402 447.965698,63.130653 
	C448.429321,63.194424 448.892944,63.258190 449.668396,63.837788 
	C450.714844,64.394356 451.449432,64.435089 452.184021,64.475830 
	C452.794678,64.646423 453.405334,64.817017 454.167725,65.378502 
	C454.485077,65.817627 454.650696,65.865860 454.816284,65.914093 
	C454.823547,65.767868 454.830841,65.621628 454.838135,65.475395 
	C456.351349,67.035446 461.186188,65.703522 458.553162,70.770004 
	C457.783112,71.988121 457.573212,72.821991 457.363342,73.655853 
	C457.363312,73.655853 457.338104,73.898903 456.846497,74.028900 
	C456.000366,75.302841 455.645874,76.446793 455.291382,77.590744 
	C452.844208,82.819572 450.397034,88.048409 447.827637,93.538422 
	C437.647858,87.454216 426.990204,85.468895 415.801605,86.179893 
	C413.184265,86.346230 410.349579,86.719299 408.101166,87.913124 
	C406.309570,88.864380 404.360107,91.118904 404.172882,92.966400 
	C404.032227,94.353951 406.298187,96.836388 407.977020,97.407249 
	C414.574036,99.650513 421.543121,100.860359 428.029358,103.351456 
	C434.457306,105.820190 440.470306,109.369347 446.856232,113.097244 
	C448.440735,115.486778 449.834259,117.223694 451.227783,118.960602 
	C451.227783,118.960609 451.574921,119.296463 451.264282,119.684326 
	C450.983521,124.024559 450.897736,127.983459 451.119965,131.924973 
	C451.179688,132.983566 452.177185,133.989273 452.744202,135.019257 
z"/>
<path fill="#192D5F" opacity="1.000000" stroke="none" 
	d="
M508.696228,89.206390 
	C509.876740,91.966759 510.926147,94.358040 512.263855,97.406174 
	C520.169922,87.604439 527.956116,78.523254 535.051514,68.931145 
	C539.037842,63.542198 543.155945,60.661919 550.263123,61.319801 
	C558.472656,62.079727 566.806458,61.496544 576.226135,61.496544 
	C570.918762,68.261627 566.289978,74.214684 561.604980,80.123230 
	C549.920166,94.859505 537.859192,109.317795 526.728699,124.460602 
	C523.492310,128.863632 522.527222,135.112427 521.166504,140.673126 
	C519.469666,147.607529 518.558960,154.731308 517.027344,161.711578 
	C516.707947,163.167358 515.188599,165.466690 514.173889,165.492722 
	C503.405792,165.768906 492.627899,165.664001 481.168427,165.664001 
	C483.367920,154.721802 485.301453,144.474350 487.530487,134.291626 
	C488.568756,129.548553 488.083069,125.361061 486.203094,120.771660 
	C478.268250,101.401329 470.783966,81.846436 462.796356,61.496544 
	C467.084900,61.496544 470.977020,61.496563 474.869110,61.496536 
	C480.365509,61.496502 485.906464,61.929844 491.345306,61.370262 
	C496.430878,60.847027 498.834167,62.796352 500.401031,67.387993 
	C502.870209,74.623817 505.819214,81.695908 508.696228,89.206390 
z"/>
<path fill="#0B0E39" opacity="1.000000" stroke="none" 
	d="
M614.795410,250.939911 
	C614.755981,251.420731 614.716492,251.901535 614.151123,252.801178 
	C612.450378,256.042358 610.994019,256.833038 608.174622,254.729156 
	C604.876404,252.267960 601.199219,250.314484 597.686462,248.140747 
	C597.686462,248.140747 597.236755,248.075912 597.146729,247.489044 
	C597.082886,244.615433 597.109070,242.328690 597.135193,240.041962 
	C597.164673,239.568497 597.194214,239.095016 597.752686,238.208618 
	C599.916565,231.882294 601.551575,225.968918 603.186584,220.055542 
	C603.236328,219.574951 603.286072,219.094376 603.864563,218.191101 
	C606.329224,210.865753 608.265137,203.963104 610.201050,197.060455 
	C610.254333,196.583954 610.307678,196.107452 610.873657,195.203186 
	C613.692932,187.703232 616.056946,180.648849 618.265564,173.546204 
	C618.811340,171.791061 618.852783,169.879105 619.126099,168.039246 
	C619.187561,167.561798 619.248962,167.084351 619.820679,166.213043 
	C620.633118,164.236420 620.935364,162.653656 621.237549,161.070877 
	C621.272766,160.592438 621.307983,160.113983 621.854004,159.209625 
	C623.315613,155.210419 624.266418,151.637146 625.217224,148.063889 
	C625.565247,146.600052 625.913269,145.136200 626.787842,143.229111 
	C628.950745,136.879135 630.587036,130.972412 632.223389,125.065704 
	C632.259338,124.585197 632.295288,124.104691 632.855347,123.200478 
	C634.644531,118.201927 635.909485,113.627083 637.174500,109.052246 
	C637.202209,108.577194 637.229980,108.102142 637.781738,107.208725 
	C639.947998,100.883072 641.590271,94.975792 643.232483,89.068512 
	C643.282837,88.585999 643.333191,88.103500 643.902954,87.192818 
	C645.349915,84.548508 646.277405,82.332375 647.397400,79.656265 
	C650.742065,81.880943 653.451294,84.096512 656.505310,85.621582 
	C661.650208,88.190735 663.341248,90.953064 661.171265,97.169441 
	C655.067810,114.653999 649.880066,132.461594 644.504028,150.194168 
	C643.248413,154.335678 642.677246,158.684677 641.791199,162.938217 
	C641.753296,163.415741 641.715393,163.893265 641.158447,164.789337 
	C639.380676,169.791382 638.121948,174.374893 636.863159,178.958405 
	C636.822754,179.430267 636.782349,179.902130 636.222412,180.784317 
	C634.053162,187.105789 632.403442,193.016937 630.753662,198.928085 
	C630.723755,199.409988 630.693787,199.891907 630.141724,200.793335 
	C628.348572,205.789520 627.077576,210.366196 625.806519,214.942871 
	C625.774719,215.418884 625.742981,215.894913 625.191467,216.788849 
	C622.710022,224.116730 620.748413,231.026718 618.786743,237.936707 
	C618.751221,238.411850 618.715637,238.887024 618.168701,239.779541 
	C616.703369,243.777908 615.749390,247.358917 614.795410,250.939911 
z"/>
<path fill="#1B244F" opacity="1.000000" stroke="none" 
	d="
M642.049744,162.690948 
	C642.677246,158.684677 643.248413,154.335678 644.504028,150.194168 
	C649.880066,132.461594 655.067810,114.653999 661.171265,97.169441 
	C663.341248,90.953064 661.650208,88.190735 656.505310,85.621582 
	C653.451294,84.096512 650.742065,81.880943 647.397400,79.656265 
	C646.277405,82.332375 645.349915,84.548508 644.140625,86.909592 
	C644.308044,81.000473 646.819458,76.921997 652.807800,74.175888 
	C676.486206,63.317364 699.923462,51.932999 723.459595,40.763588 
	C724.343262,40.344242 725.325134,40.131859 726.597656,40.291298 
	C726.964844,41.170719 726.995667,41.581871 726.704285,42.162441 
	C724.728760,46.618549 723.222412,50.969410 721.384827,55.175571 
	C719.124939,60.348179 716.588562,65.400078 722.989380,69.541145 
	C718.949463,66.213219 715.278931,67.273033 710.890320,69.518257 
	C696.965881,76.642113 682.808044,83.317558 668.639709,89.951149 
	C665.341675,91.495293 663.432983,93.542152 662.373047,97.056381 
	C655.789246,118.883659 649.017578,140.654266 642.049744,162.690948 
z"/>
<path fill="#25436F" opacity="1.000000" stroke="none" 
	d="
M779.259033,76.790024 
	C779.484985,78.028130 780.174988,79.396851 779.868591,80.485107 
	C773.349182,103.645515 766.816467,126.803795 759.954041,149.863586 
	C759.274414,152.147415 756.446533,153.791946 754.051025,155.510315 
	C750.886353,153.638077 748.282349,151.995071 745.687500,150.337708 
	C742.737732,148.453629 739.796204,146.556717 736.851074,144.665375 
	C741.970825,127.992523 747.187805,111.347931 752.052368,94.600967 
	C752.513367,93.013985 750.764648,90.785126 750.254761,88.464325 
	C755.454529,91.811172 760.140137,91.058380 764.670715,87.187378 
	C765.282837,86.664368 766.209167,86.522697 766.867432,86.037918 
	C771.017212,82.981453 775.132385,79.877968 779.259033,76.790024 
z"/>
<path fill="#192D5F" opacity="1.000000" stroke="none" 
	d="
M779.254272,76.812042 
	C775.132385,79.877968 771.017212,82.981453 766.867432,86.037918 
	C766.209167,86.522697 765.282837,86.664368 764.670715,87.187378 
	C760.140137,91.058380 755.454529,91.811172 750.082642,88.109558 
	C749.697693,88.144737 749.247864,88.090446 749.100159,87.557144 
	C746.829163,85.742134 744.705811,84.460426 742.582520,83.178719 
	C742.582520,83.178711 742.196106,83.190315 742.039551,82.669662 
	C741.075439,81.841934 740.267944,81.534851 739.460449,81.227768 
	C739.460449,81.227776 739.119995,81.191895 739.037109,80.681534 
	C737.220703,79.151291 735.487183,78.131416 733.753662,77.111557 
	C733.250244,76.859589 732.746826,76.607613 732.054932,75.765480 
	C730.192322,74.136383 728.518188,73.097443 726.844116,72.058502 
	C726.650208,72.034912 726.456238,72.011322 726.024597,71.460739 
	C725.126831,70.646431 724.466675,70.359123 723.806580,70.071808 
	C723.620544,70.060181 723.434509,70.048553 723.118896,69.789032 
	C716.588562,65.400078 719.124939,60.348179 721.384827,55.175571 
	C723.222412,50.969410 724.728760,46.618549 727.051025,42.203632 
	C731.243469,44.007042 734.766785,45.938679 738.290161,47.870316 
	C738.773865,48.094315 739.257507,48.318321 739.906555,49.129929 
	C741.802063,50.772038 743.532166,51.826550 745.262329,52.881058 
	C745.262329,52.881058 745.726135,52.963806 745.917175,53.477280 
	C746.834045,54.284496 747.559937,54.578243 748.285767,54.871986 
	C748.285767,54.871983 748.739319,54.930325 748.898193,55.459625 
	C751.136353,57.282013 753.215637,58.575104 755.294983,59.868195 
	C755.294983,59.868195 755.748230,59.925182 755.900024,60.456745 
	C758.119690,62.287300 760.187683,63.586288 762.255615,64.885284 
	C762.255615,64.885292 762.723999,64.934494 762.888489,65.462494 
	C766.158875,67.939636 769.264771,69.888763 772.370667,71.837891 
	C772.370667,71.837891 772.785339,71.869331 772.917480,72.388870 
	C775.115662,74.202911 777.181702,75.497429 779.247803,76.791939 
	C779.247803,76.791931 779.249451,76.834076 779.254272,76.812042 
z"/>
<path fill="#25467A" opacity="1.000000" stroke="none" 
	d="
M736.488037,144.736511 
	C739.796204,146.556717 742.737732,148.453629 745.687500,150.337708 
	C748.282349,151.995071 750.886353,153.638077 753.700806,155.525909 
	C734.732483,165.657913 715.555603,175.563004 696.362915,185.437286 
	C691.194885,188.096130 685.978760,190.661377 680.410645,192.819427 
	C682.364746,184.648941 684.692810,176.928635 687.020874,169.208313 
	C703.388916,161.074768 719.756897,152.941223 736.488037,144.736511 
z"/>
<path fill="#2E5691" opacity="1.000000" stroke="none" 
	d="
M686.699097,168.982971 
	C684.692810,176.928635 682.364746,184.648941 680.036133,192.783768 
	C676.930542,191.568741 673.757812,190.054672 670.737366,188.281219 
	C666.732422,185.929733 663.065674,182.875183 658.855469,181.031952 
	C653.262085,178.583160 652.877380,175.222687 654.924011,170.119064 
	C657.181274,164.489838 658.784424,158.598267 660.870544,152.214920 
	C669.806274,158.010284 678.091797,163.383957 686.699097,168.982971 
z"/>
<path fill="#25436F" opacity="1.000000" stroke="none" 
	d="
M715.948547,127.841019 
	C709.776306,131.096481 703.794312,134.213058 697.556580,136.683731 
	C696.287842,137.186279 694.008179,135.346054 692.278137,134.428314 
	C689.213135,132.802414 686.212280,131.055649 682.947632,129.226746 
	C685.796631,122.102760 688.558228,115.197205 691.479065,107.893417 
	C694.010376,109.616623 696.563843,110.901207 698.529419,112.795654 
	C701.756104,115.905495 704.724976,116.331314 708.661804,113.950478 
	C712.453979,111.657143 716.690552,110.098572 721.629272,107.799416 
	C719.620972,114.879715 717.834717,121.176895 715.948547,127.841019 
z"/>
<path fill="#091E53" opacity="1.000000" stroke="none" 
	d="
M818.495361,147.132248 
	C818.938416,146.402679 819.840454,145.107773 820.757446,145.097107 
	C832.132446,144.964767 843.509705,144.999115 854.885803,145.079010 
	C855.527771,145.083511 856.164368,145.857529 856.890869,146.674408 
	C844.305969,147.104828 831.633606,147.134262 818.495361,147.132248 
z"/>
<path fill="#091E53" opacity="1.000000" stroke="none" 
	d="
M277.440308,147.033310 
	C277.176178,146.300125 277.372314,145.104874 277.571747,145.104294 
	C289.647308,145.070343 301.723145,145.126251 313.798492,145.232056 
	C314.135437,145.235001 314.466797,145.870300 314.900391,146.605255 
	C302.634033,147.042770 290.268066,147.085770 277.440308,147.033310 
z"/>
<path fill="#2C3D6C" opacity="1.000000" stroke="none" 
	d="
M386.434479,166.911636 
	C394.219696,166.514221 402.355835,166.308823 410.492310,166.120529 
	C411.944672,166.086929 413.398682,166.124115 415.263428,166.220718 
	C406.045135,166.578384 396.415314,166.843948 386.434479,166.911636 
z"/>
<path fill="#344370" opacity="1.000000" stroke="none" 
	d="
M428.710907,59.532150 
	C427.724304,60.115879 426.381866,60.792286 425.008301,60.862949 
	C417.534485,61.247437 410.052979,61.482613 402.338501,61.554169 
	C410.848816,60.674530 419.594757,60.009884 428.710907,59.532150 
z"/>
<path fill="#1B244F" opacity="1.000000" stroke="none" 
	d="
M618.894348,168.301605 
	C618.852783,169.879105 618.811340,171.791061 618.265564,173.546204 
	C616.056946,180.648849 613.692932,187.703232 611.097168,194.914795 
	C613.426331,186.224106 616.044495,177.394028 618.894348,168.301605 
z"/>
<path fill="#1B244F" opacity="1.000000" stroke="none" 
	d="
M597.801331,248.461243 
	C601.199219,250.314484 604.876404,252.267960 608.174622,254.729156 
	C610.994019,256.833038 612.450378,256.042358 613.914062,253.082428 
	C613.709106,254.920624 613.215332,256.896393 612.501282,259.753571 
	C607.118103,255.704010 602.517151,252.242874 597.801331,248.461243 
z"/>
<path fill="#2C3D6C" opacity="1.000000" stroke="none" 
	d="
M452.899109,134.646988 
	C452.177185,133.989273 451.179688,132.983566 451.119965,131.924973 
	C450.897736,127.983459 450.983521,124.024559 451.267914,119.925804 
	C452.072784,124.611198 452.563416,129.442963 452.899109,134.646988 
z"/>
<path fill="#1B244F" opacity="1.000000" stroke="none" 
	d="
M619.050903,237.695068 
	C620.748413,231.026718 622.710022,224.116730 624.968994,217.075714 
	C623.282532,223.780914 621.298767,230.617172 619.050903,237.695068 
z"/>
<path fill="#1B244F" opacity="1.000000" stroke="none" 
	d="
M609.933594,197.298828 
	C608.265137,203.963104 606.329224,210.865753 604.103943,217.911499 
	C605.765076,211.215454 607.715637,204.376343 609.933594,197.298828 
z"/>
<path fill="#1B244F" opacity="1.000000" stroke="none" 
	d="
M630.996460,198.667084 
	C632.403442,193.016937 634.053162,187.105789 636.004089,181.070541 
	C634.616577,186.766312 632.927917,192.586197 630.996460,198.667084 
z"/>
<path fill="#1B244F" opacity="1.000000" stroke="none" 
	d="
M642.991333,89.330353 
	C641.590271,94.975792 639.947998,100.883072 638.002319,106.921623 
	C639.382629,101.232658 641.066467,95.412430 642.991333,89.330353 
z"/>
<path fill="#1B244F" opacity="1.000000" stroke="none" 
	d="
M631.978638,125.324371 
	C630.587036,130.972412 628.950745,136.879135 627.012207,142.919586 
	C628.384644,137.229874 630.059265,131.406464 631.978638,125.324371 
z"/>
<path fill="#1B244F" opacity="1.000000" stroke="none" 
	d="
M602.948792,220.320465 
	C601.551575,225.968918 599.916565,231.882294 597.974487,237.923706 
	C599.348572,232.229630 601.029785,226.407516 602.948792,220.320465 
z"/>
<path fill="#1B244F" opacity="1.000000" stroke="none" 
	d="
M626.049011,214.681763 
	C627.077576,210.366196 628.348572,205.789520 629.909363,201.078613 
	C628.896545,205.436447 627.593994,209.928558 626.049011,214.681763 
z"/>
<path fill="#1B244F" opacity="1.000000" stroke="none" 
	d="
M637.121033,178.710388 
	C638.121948,174.374893 639.380676,169.791382 640.933777,165.075958 
	C639.945068,169.450150 638.661987,173.956268 637.121033,178.710388 
z"/>
<path fill="#25436F" opacity="1.000000" stroke="none" 
	d="
M738.167603,47.553047 
	C734.766785,45.938679 731.243469,44.007042 727.373291,42.034214 
	C726.995667,41.581871 726.964844,41.170719 726.955078,40.451031 
	C730.665771,42.506924 734.355408,44.871353 738.167603,47.553047 
z"/>
<path fill="#1B244F" opacity="1.000000" stroke="none" 
	d="
M636.935303,109.316116 
	C635.909485,113.627083 634.644531,118.201927 633.087036,122.915749 
	C634.095032,118.563156 635.395569,114.071579 636.935303,109.316116 
z"/>
<path fill="#2C3D6C" opacity="1.000000" stroke="none" 
	d="
M371.136475,163.731140 
	C372.149872,163.612808 373.475372,163.530289 374.732147,163.785828 
	C377.060883,164.259338 379.349457,164.930511 381.847809,165.778778 
	C378.499786,165.331940 374.958679,164.625702 371.136475,163.731140 
z"/>
<path fill="#25436F" opacity="1.000000" stroke="none" 
	d="
M772.234253,71.523842 
	C769.264771,69.888763 766.158875,67.939636 763.010498,65.663887 
	C766.011292,67.294777 769.054626,69.252281 772.234253,71.523842 
z"/>
<path fill="#1B244F" opacity="1.000000" stroke="none" 
	d="
M615.030396,250.674988 
	C615.749390,247.358917 616.703369,243.777908 617.952576,240.070801 
	C617.253723,243.433167 616.259521,246.921631 615.030396,250.674988 
z"/>
<path fill="#1B244F" opacity="1.000000" stroke="none" 
	d="
M624.992676,148.336884 
	C624.266418,151.637146 623.315613,155.210419 622.075073,158.919144 
	C622.779663,155.573013 623.773926,152.091431 624.992676,148.336884 
z"/>
<path fill="#1B244F" opacity="1.000000" stroke="none" 
	d="
M596.908875,240.282501 
	C597.109070,242.328690 597.082886,244.615433 597.047729,247.284576 
	C592.471130,245.507507 596.732971,242.907761 596.908875,240.282501 
z"/>
<path fill="#25436F" opacity="1.000000" stroke="none" 
	d="
M762.147766,64.568710 
	C760.187683,63.586288 758.119690,62.287300 756.010010,60.656891 
	C757.992188,61.634365 760.016052,62.943256 762.147766,64.568710 
z"/>
<path fill="#2C3D6C" opacity="1.000000" stroke="none" 
	d="
M430.265839,162.260010 
	C432.156738,160.862076 434.369537,159.508667 436.943604,158.232803 
	C435.065857,159.641754 432.826782,160.973145 430.265839,162.260010 
z"/>
<path fill="#25436F" opacity="1.000000" stroke="none" 
	d="
M779.144165,76.479523 
	C777.181702,75.497429 775.115662,74.202911 773.013794,72.573128 
	C774.998901,73.547607 777.019714,74.857353 779.144165,76.479523 
z"/>
<path fill="#25436F" opacity="1.000000" stroke="none" 
	d="
M742.722351,83.488464 
	C744.705811,84.460426 746.829163,85.742134 748.992493,87.357834 
	C746.975769,86.393959 744.918945,85.096077 742.722351,83.488464 
z"/>
<path fill="#2C3D6C" opacity="1.000000" stroke="none" 
	d="
M362.550995,160.615112 
	C364.859375,161.048126 367.390594,161.774628 369.950500,162.822556 
	C367.577423,162.398849 365.175629,161.653702 362.550995,160.615112 
z"/>
<path fill="#25436F" opacity="1.000000" stroke="none" 
	d="
M755.166260,59.559116 
	C753.215637,58.575104 751.136353,57.282013 749.012756,55.657467 
	C750.991516,56.634018 753.014465,57.942028 755.166260,59.559116 
z"/>
<path fill="#344370" opacity="1.000000" stroke="none" 
	d="
M436.832581,60.486965 
	C435.192291,60.615040 433.290894,60.557438 431.182007,60.207848 
	C432.840149,60.044334 434.705841,60.172813 436.832581,60.486965 
z"/>
<path fill="#2C3D6C" opacity="1.000000" stroke="none" 
	d="
M451.202148,118.608276 
	C449.834259,117.223694 448.440735,115.486778 447.016663,113.392899 
	C448.382904,114.775932 449.779694,116.515938 451.202148,118.608276 
z"/>
<path fill="#1B244F" opacity="1.000000" stroke="none" 
	d="
M726.965088,72.363205 
	C728.518188,73.097443 730.192322,74.136383 731.953491,75.495407 
	C730.389038,74.766296 728.737488,73.717102 726.965088,72.363205 
z"/>
<path fill="#25436F" opacity="1.000000" stroke="none" 
	d="
M733.879578,77.418007 
	C735.487183,78.131416 737.220703,79.151291 738.983032,80.519142 
	C737.343018,79.819572 735.674255,78.772018 733.879578,77.418007 
z"/>
<path fill="#25436F" opacity="1.000000" stroke="none" 
	d="
M745.143311,52.567917 
	C743.532166,51.826550 741.802063,50.772038 740.032227,49.372875 
	C741.669800,50.103741 743.346985,51.179260 745.143311,52.567917 
z"/>
<path fill="#344370" opacity="1.000000" stroke="none" 
	d="
M397.733398,62.497772 
	C396.397125,63.320175 394.739319,64.181160 392.941162,64.751755 
	C394.337830,63.819683 395.874847,63.178017 397.733398,62.497772 
z"/>
<path fill="#2C3D6C" opacity="1.000000" stroke="none" 
	d="
M437.616028,158.261322 
	C438.401123,157.248779 439.510529,156.168823 441.023224,155.134735 
	C440.264435,156.185043 439.102386,157.189468 437.616028,158.261322 
z"/>
<path fill="#2C3D6C" opacity="1.000000" stroke="none" 
	d="
M451.854309,139.699188 
	C449.413269,138.888672 449.469513,137.901031 452.045471,136.959869 
	C452.252899,137.772354 452.157440,138.610138 451.854309,139.699188 
z"/>
<path fill="#2C3D6C" opacity="1.000000" stroke="none" 
	d="
M418.273010,166.063019 
	C419.520630,165.450623 421.032104,164.932007 422.750641,164.640106 
	C421.484070,165.296829 420.010498,165.726822 418.273010,166.063019 
z"/>
<path fill="#1B244F" opacity="1.000000" stroke="none" 
	d="
M620.990356,161.298492 
	C620.935364,162.653656 620.633118,164.236420 620.063354,165.937347 
	C620.111572,164.545700 620.427368,163.035904 620.990356,161.298492 
z"/>
<path fill="#2C3D6C" opacity="1.000000" stroke="none" 
	d="
M443.514191,153.353577 
	C443.949219,152.362640 444.690277,151.237534 445.810455,150.097504 
	C445.399811,151.128204 444.610046,152.173813 443.514191,153.353577 
z"/>
<path fill="#344370" opacity="1.000000" stroke="none" 
	d="
M452.016785,64.284355 
	C451.449432,64.435089 450.714844,64.394356 449.944092,64.060867 
	C450.555145,63.876369 451.202332,63.984627 452.016785,64.284355 
z"/>
<path fill="#344370" opacity="1.000000" stroke="none" 
	d="
M455.564392,77.381042 
	C455.645874,76.446793 456.000366,75.302841 456.741882,74.091995 
	C456.698364,75.073853 456.267853,76.122597 455.564392,77.381042 
z"/>
<path fill="#2C3D6C" opacity="1.000000" stroke="none" 
	d="
M449.490814,145.308350 
	C449.553589,144.387161 449.895264,143.269012 450.607117,142.071106 
	C450.574799,143.031372 450.172241,144.071381 449.490814,145.308350 
z"/>
<path fill="#344370" opacity="1.000000" stroke="none" 
	d="
M441.717407,61.179543 
	C441.028107,61.394245 440.156860,61.419277 439.133575,61.192043 
	C439.832825,60.956478 440.684174,60.973179 441.717407,61.179543 
z"/>
<path fill="#2C3D6C" opacity="1.000000" stroke="none" 
	d="
M358.743164,152.094604 
	C358.670288,152.940552 358.349121,153.901611 357.651245,154.990082 
	C357.681335,154.148254 358.088104,153.178986 358.743164,152.094604 
z"/>
<path fill="#2C3D6C" opacity="1.000000" stroke="none" 
	d="
M425.351807,164.167862 
	C425.659180,163.722443 426.253357,163.290756 426.991760,163.138519 
	C426.636902,163.672501 426.137787,163.927063 425.351807,164.167862 
z"/>
<path fill="#25436F" opacity="1.000000" stroke="none" 
	d="
M748.182617,54.589493 
	C747.559937,54.578243 746.834045,54.284496 746.038513,53.679146 
	C746.672363,53.680691 747.375854,53.993843 748.182617,54.589493 
z"/>
<path fill="#1A2E60" opacity="1.000000" stroke="none" 
	d="
M229.877228,139.595688 
	C230.222687,140.354950 230.568176,141.114212 230.542496,141.414948 
	C230.073303,140.502853 229.975266,140.049271 229.877228,139.595688 
z"/>
<path fill="#25436F" opacity="1.000000" stroke="none" 
	d="
M739.599976,81.522736 
	C740.267944,81.534851 741.075439,81.841934 741.947388,82.499771 
	C741.254333,82.506248 740.496887,82.161980 739.599976,81.522736 
z"/>
<path fill="#1B244F" opacity="1.000000" stroke="none" 
	d="
M723.892212,70.343567 
	C724.466675,70.359123 725.126831,70.646431 725.879395,71.206192 
	C725.307190,71.190872 724.642517,70.903107 723.892212,70.343567 
z"/>
<path fill="#344370" opacity="1.000000" stroke="none" 
	d="
M457.603424,73.455902 
	C457.573212,72.821991 457.783112,71.988121 458.330383,71.055984 
	C458.392975,71.723793 458.118225,72.489868 457.603424,73.455902 
z"/>
<path fill="#344370" opacity="1.000000" stroke="none" 
	d="
M447.754700,62.946129 
	C447.318909,63.039402 446.672089,62.948151 445.991119,62.593109 
	C446.485870,62.473408 447.014801,62.617504 447.754700,62.946129 
z"/>
<path fill="#091E54" opacity="1.000000" stroke="none" 
	d="
M229.647659,139.497238 
	C229.975266,140.049271 230.073303,140.502853 230.361023,141.629761 
	C230.678253,142.486069 230.712997,142.685364 230.563507,143.031036 
	C229.974030,142.253891 229.475983,141.346695 228.968628,140.018005 
	C228.959305,139.596497 229.418091,139.398788 229.647659,139.497238 
z"/>
<path fill="#081D54" opacity="1.000000" stroke="none" 
	d="
M238.204895,87.532959 
	C238.188889,87.244865 238.496536,87.034035 238.936157,87.021980 
	C238.888260,87.350571 238.708389,87.480392 238.204895,87.532959 
z"/>
<path fill="#344370" opacity="1.000000" stroke="none" 
	d="
M390.385101,65.403656 
	C390.403351,65.599640 390.288635,65.815491 390.117065,65.821526 
	C390.060211,65.611717 390.252167,65.423531 390.385101,65.403656 
z"/>
<path fill="#081D54" opacity="1.000000" stroke="none" 
	d="
M190.398132,87.680222 
	C190.390533,87.441170 190.654892,87.228783 191.040329,87.241997 
	C190.997620,87.547356 190.833847,87.627129 190.398132,87.680222 
z"/>
<path fill="#344370" opacity="1.000000" stroke="none" 
	d="
M454.762695,65.445892 
	C454.830841,65.621628 454.823547,65.767868 454.816284,65.914093 
	C454.650696,65.865860 454.485077,65.817627 454.426208,65.568306 
	C454.532898,65.367218 454.687286,65.416382 454.762695,65.445892 
z"/>
<path fill="#F7F8F9" opacity="1.000000" stroke="none" 
	d="
M976.518921,98.326714 
	C976.001465,108.019112 971.274109,112.754517 962.110168,112.990051 
	C957.312012,113.113380 952.508057,113.011810 946.715515,113.011810 
	C948.316162,104.641945 949.818054,96.788406 951.327026,88.897690 
	C957.052429,88.897690 962.560120,88.436615 967.950256,89.034615 
	C972.799561,89.572601 976.151001,92.563599 976.518921,98.326714 
z"/>
<path fill="#F5F6F8" opacity="1.000000" stroke="none" 
	d="
M306.130493,97.655128 
	C307.785431,105.770195 309.318817,113.559853 310.953766,121.865540 
	C304.348236,121.865540 298.022675,121.865540 290.600159,121.865540 
	C292.852051,117.976929 294.903259,114.382011 297.005737,110.817345 
	C299.761566,106.144974 302.557037,101.495972 305.350433,96.845909 
	C305.375275,96.804497 305.638428,96.845947 305.732239,96.921181 
	C305.854828,97.019501 305.919403,97.190170 306.130493,97.655128 
z"/>
<path fill="#F4F5F7" opacity="1.000000" stroke="none" 
	d="
M840.074158,122.340851 
	C837.447266,122.340889 835.306091,122.340889 832.017639,122.340889 
	C837.212585,113.190369 841.972229,104.806465 847.394470,95.255531 
	C849.224548,104.829590 850.834167,113.250420 852.571777,122.340805 
	C848.116333,122.340805 844.338074,122.340805 840.074158,122.340851 
z"/>
</svg>