<svg width="412" height="203" viewBox="0 0 412 203" fill="none" xmlns="http://www.w3.org/2000/svg">
<path d="M-288.768 452.654C-217.611 417.046 -142.658 360.132 -155.8 240.187C-177.857 38.8715 18.0813 -66.6625 166.233 46.0105C278.737 131.572 363.527 54.3408 453.529 133.519C525.106 196.488 452.154 321.504 450.906 374.205C450.183 404.751 491.529 452.654 491.529 452.654H-288.768Z" fill="#89B8FF"/>
<path d="M-257.768 518.654C-186.611 483.046 -111.658 426.132 -124.8 306.187C-146.857 104.872 49.0813 -0.662474 197.233 112.011C309.737 197.572 394.527 120.341 484.529 199.519C556.106 262.488 483.154 387.504 481.906 440.205C481.183 470.751 522.529 518.654 522.529 518.654H-257.768Z" fill="#387BE1"/>
</svg>
