<svg version="1.1" id="Layer_1" xmlns="http://www.w3.org/2000/svg" xmlns:xlink="http://www.w3.org/1999/xlink" x="0px" y="0px"
	 width="100%" viewBox="0 0 724 724" enable-background="new 0 0 724 724" xml:space="preserve">
<path fill="#FFFFFF" opacity="1.000000" stroke="none" 
	d="
M725.000000,286.000000 
	C725.000000,432.666656 725.000000,578.833313 725.000000,725.000000 
	C483.666656,725.000000 242.333328,725.000000 1.000000,725.000000 
	C1.000000,483.666656 1.000000,242.333328 1.000000,1.000000 
	C242.333328,1.000000 483.666656,1.000000 725.000000,1.000000 
	C725.000000,95.833336 725.000000,190.666672 725.000000,286.000000 
M449.072174,575.082275 
	C458.993530,574.942871 458.993530,574.942871 460.539093,567.251282 
	C459.656647,566.910522 458.769104,566.567810 458.043091,565.477661 
	C459.415375,561.996460 460.787689,558.515198 463.075623,555.016113 
	C517.223267,555.011353 571.370850,554.990173 625.518433,555.041138 
	C628.880127,555.044312 631.945557,555.059631 633.498413,550.449890 
	C635.883362,549.859741 638.421570,549.610657 640.626343,548.619629 
	C649.632629,544.571472 652.777710,536.799866 652.944275,527.616638 
	C653.161194,515.657959 652.997375,503.692322 652.997375,491.778534 
	C655.643250,491.038086 657.807922,490.432312 659.972656,489.826508 
	C659.903748,489.614227 659.834839,489.401947 659.765930,489.189667 
	C657.670898,489.007874 655.575867,488.826111 652.997559,488.602386 
	C652.997559,486.451202 652.997498,484.651917 652.997498,482.852631 
	C652.997498,465.520782 653.023926,448.188904 652.983521,430.857147 
	C652.968994,424.634644 651.005066,419.306885 646.397522,414.769562 
	C640.531067,408.992554 633.423584,408.680176 625.057495,409.001373 
	C607.371643,408.999695 589.685852,408.998016 572.000000,408.059479 
	C571.999939,397.565521 572.179749,387.066681 571.896362,376.580383 
	C571.804810,373.193848 571.051636,369.585968 569.646057,366.516632 
	C564.256042,354.746338 554.294373,350.115021 541.898499,350.031036 
	C525.242126,349.918182 508.584351,349.969452 491.927643,350.051971 
	C490.159790,350.060730 488.395294,350.749664 486.233002,350.523193 
	C485.772461,348.378876 485.311890,346.234528 484.927246,343.394165 
	C485.211975,341.619934 485.496674,339.845703 486.063660,337.384796 
	C492.554108,322.432098 499.044525,307.479431 505.556274,292.477692 
	C507.919708,293.585327 510.429626,294.761627 513.184937,296.646240 
	C514.202515,296.377960 515.220032,296.109711 516.920715,296.010834 
	C522.204834,298.375153 527.379333,301.038055 532.800476,303.029419 
	C539.834290,305.613190 545.247437,302.963501 547.849731,295.950256 
	C549.168152,292.397339 549.995789,288.662323 551.976929,285.003418 
	C561.963684,285.002686 571.958923,284.758179 581.933411,285.108093 
	C586.646545,285.273438 588.131104,284.031616 588.111145,279.114319 
	C587.923889,233.009644 587.941589,186.903717 588.093018,140.798782 
	C588.107666,136.335297 587.082825,134.857544 582.348450,134.887970 
	C548.894226,135.102951 515.438049,135.008377 481.154816,135.029510 
	C480.444366,136.256012 479.124939,137.477722 479.115295,138.709747 
	C478.980072,155.921951 478.979675,173.135880 479.116333,190.348053 
	C479.126190,191.588745 480.453644,192.818970 480.910187,194.796066 
	C477.103882,195.827469 473.280975,196.802063 469.496979,197.909744 
	C466.857635,198.682358 463.785461,199.026657 461.762604,200.637344 
	C457.491791,204.037903 456.640900,209.151794 457.554138,214.266266 
	C458.667023,220.498856 457.090210,225.682190 451.991028,229.218018 
	C443.499512,235.106155 442.230865,242.862473 444.533630,252.399124 
	C438.284332,259.919067 432.035034,267.438995 425.137360,275.024872 
	C425.134705,276.045319 425.132080,277.065796 424.800476,278.669769 
	C419.483612,283.126465 414.213531,287.640656 408.832428,292.018341 
	C405.588654,294.657288 402.329071,294.372925 399.680206,291.126068 
	C392.775787,282.662933 387.021301,273.758209 387.942108,262.033203 
	C388.174652,259.071808 387.248138,256.019379 387.809845,253.004044 
	C400.305786,253.002609 412.804047,252.866760 425.296265,253.081161 
	C429.070740,253.145935 430.089874,251.949524 430.074829,248.247528 
	C429.944153,216.091858 429.945770,183.935226 430.073212,151.779526 
	C430.087738,148.114716 429.135681,146.866592 425.325287,146.916046 
	C409.999542,147.114975 394.669556,147.021744 379.341431,146.965683 
	C377.565918,146.959183 375.792084,146.511261 374.709290,145.949203 
	C375.452728,145.089844 376.707916,144.309021 376.853882,143.357956 
	C377.615051,138.398163 375.172180,134.707962 371.486084,131.785782 
	C367.639130,128.736115 363.225983,127.254280 358.531952,129.309433 
	C357.337128,129.832550 356.172668,132.381088 356.433441,133.718399 
	C356.690369,135.036255 358.614288,136.329193 360.092346,137.035416 
	C362.089539,137.989700 364.900665,137.787872 366.374542,139.150650 
	C368.191437,140.830643 368.992462,143.609299 369.432312,146.245605 
	C364.670502,146.477997 359.909332,146.804932 355.146118,146.838882 
	C354.447113,146.843872 353.119904,145.450439 353.127136,144.714294 
	C353.226074,134.642990 353.508698,124.573479 354.384796,114.864029 
	C355.964325,115.182182 357.562439,115.847931 359.120544,115.764771 
	C374.795135,114.928139 385.870514,122.914024 389.742889,138.294373 
	C390.562592,141.550186 391.884216,143.753479 395.375824,142.883163 
	C398.560303,142.089417 398.799683,139.558716 398.258240,136.535095 
	C394.932617,117.963387 376.235992,104.283897 357.678925,107.028137 
	C353.342499,107.669403 352.200134,110.244034 352.871826,114.901047 
	C352.585724,116.671608 352.077972,118.439026 352.052795,120.213287 
	C351.955902,127.041519 351.697144,133.891556 352.118805,140.695023 
	C352.426758,145.664169 351.067963,147.136658 345.853058,147.125717 
	C262.565582,146.950912 179.277603,147.010559 95.183784,147.163544 
	C94.784492,148.327026 94.038597,149.489822 94.036369,150.654053 
	C93.973457,183.485138 93.963112,216.316437 94.069878,249.147293 
	C94.074043,250.424988 95.318367,251.698654 96.923912,252.990341 
	C120.537849,252.999313 144.151779,253.008270 167.940216,253.903534 
	C168.715652,263.298737 169.015060,272.765625 170.416550,282.066498 
	C171.546036,289.562286 169.064438,298.105774 175.861053,304.270752 
	C176.126526,304.511536 175.957932,305.229004 175.994705,305.724091 
	C176.423248,311.493439 176.852386,317.262726 176.308868,323.018829 
	C163.865326,323.026245 151.421768,323.033630 138.150528,323.029419 
	C133.400925,322.960175 135.019608,326.477448 135.200974,328.740631 
	C136.006149,338.787689 137.087357,348.812286 137.987488,358.852295 
	C138.755661,367.420502 139.321045,376.007416 140.139450,384.570496 
	C141.660858,400.488892 143.301239,416.395935 144.962433,433.011475 
	C142.686203,433.011475 140.908447,433.011475 139.130692,433.011475 
	C125.643532,433.011475 112.156380,433.007141 98.669220,433.013306 
	C92.033615,433.016357 92.021645,433.025146 92.020882,439.656250 
	C92.016724,476.121521 92.018906,512.586792 92.018913,549.052063 
	C92.018913,550.831909 92.018913,552.611755 92.018913,554.992676 
	C94.763481,554.992676 96.877556,554.992676 99.893188,554.999878 
	C102.138832,554.893555 104.384468,554.787292 106.999992,554.663513 
	C106.999992,552.296509 106.999985,550.491516 106.999985,548.686584 
	C106.999992,531.393860 107.138100,514.099243 106.904846,496.809692 
	C106.845024,492.375183 107.859711,490.788727 112.630905,490.878967 
	C128.753845,491.183899 144.886215,490.989807 161.019974,491.925476 
	C161.019974,512.755859 161.019974,533.586182 161.019974,554.992676 
	C163.776321,554.992676 165.883972,554.992676 168.892990,554.999634 
	C171.141342,554.892456 173.389694,554.785339 175.999924,554.660889 
	C175.999924,552.283936 175.999908,550.474976 175.999908,548.666077 
	C175.999969,531.011658 176.100021,513.356201 175.920151,495.703613 
	C175.881775,491.937164 177.035141,490.610718 180.757202,490.940460 
	C183.865417,491.215851 187.017441,490.996948 190.150055,490.996948 
	C190.137787,490.332245 190.125519,489.667542 190.113251,489.002838 
	C186.891357,489.002838 183.653687,488.803070 180.451813,489.056274 
	C176.904312,489.336792 175.885681,487.942230 175.933655,484.491302 
	C176.107300,472.002319 176.008682,459.509583 176.499756,446.998291 
	C176.499756,446.998291 176.986633,446.976776 177.906509,446.990173 
	C181.279572,446.988708 184.652634,446.987244 188.292358,447.784393 
	C188.579834,451.094666 188.865448,454.405060 189.155029,457.715149 
	C192.473602,495.646942 195.773453,533.580383 199.130508,571.508789 
	C199.699326,577.935364 199.991547,584.482483 203.225021,589.984619 
	C197.102493,590.323059 190.981903,590.703186 184.856949,590.989868 
	C176.569443,591.377808 168.256134,591.420166 159.993774,592.097351 
	C142.029327,593.569763 124.068871,595.154907 106.151588,597.105530 
	C99.450424,597.835083 92.851189,599.612244 86.261787,601.152710 
	C85.090317,601.426575 84.196007,602.885986 83.173737,603.797974 
	C84.237762,604.741882 85.245483,605.763672 86.392212,606.593323 
	C86.882736,606.948242 87.657211,606.944641 88.312233,607.033203 
	C105.497009,609.358582 122.636765,612.138855 139.882263,613.857788 
	C156.189819,615.483154 172.600281,616.168701 188.980759,616.945435 
	C207.383606,617.818115 225.800781,618.423950 244.216949,618.969788 
	C260.113953,619.440857 276.018158,619.939514 291.919434,619.947693 
	C342.012970,619.973389 392.107391,619.905762 442.199707,619.590881 
	C459.961090,619.479248 477.716339,618.518005 495.476257,618.011536 
	C509.263611,617.618347 523.055664,617.387207 536.842163,616.968994 
	C543.635986,616.762878 550.433044,616.441895 557.209045,615.918152 
	C573.043091,614.694397 588.894714,613.593140 604.682251,611.908325 
	C616.003784,610.700012 627.251526,608.735657 638.482788,606.818970 
	C640.084900,606.545471 641.407532,604.634827 642.859558,603.481934 
	C641.447388,602.445007 640.092957,601.311584 638.596375,600.415527 
	C637.937439,600.021057 636.993042,600.077026 636.172058,599.983337 
	C612.859253,597.320984 589.591858,594.103149 566.217712,592.186401 
	C547.377136,590.641418 528.407593,590.668091 509.495026,590.003296 
	C508.329681,589.962280 507.161926,589.992004 505.996338,589.955566 
	C489.098633,589.427185 472.198029,588.968628 455.306366,588.289124 
	C452.346985,588.169983 451.084259,589.117188 450.316223,591.821411 
	C450.174866,590.963867 450.033539,590.106262 449.961884,588.527527 
	C449.699585,587.855164 449.437317,587.182861 449.175049,586.510498 
	C448.852173,587.075378 448.529266,587.640259 447.910309,588.843994 
	C447.230743,588.805298 446.551147,588.766602 445.635651,588.115479 
	C446.499817,583.843323 447.363983,579.571228 449.072174,575.082275 
M411.215454,136.003479 
	C412.247467,138.798645 413.942169,140.841293 417.181122,139.621475 
	C420.320862,138.439026 420.313019,135.698669 419.719727,132.886978 
	C416.692230,118.539597 409.826050,106.483765 398.067017,97.559021 
	C385.058624,87.686043 370.473602,83.313538 354.094147,85.794403 
	C351.098480,86.248131 349.135010,88.001289 350.140442,90.786842 
	C350.704498,92.349663 353.294281,93.275238 355.102631,94.242493 
	C355.708954,94.566818 356.719330,94.096260 357.548431,94.049400 
	C384.495697,92.525864 406.915283,109.768135 411.215454,136.003479 
M55.998627,453.500000 
	C55.998627,463.571106 55.998627,473.642212 55.998627,483.713318 
	C56.213955,483.707611 56.429279,483.701874 56.644608,483.696167 
	C56.644608,351.564148 56.644608,219.432159 56.644608,87.300156 
	C56.429279,87.300331 56.213955,87.300514 55.998627,87.300690 
	C55.998627,209.033798 55.998627,330.766907 55.998627,453.500000 
M234.500000,81.000305 
	C271.253906,81.000305 308.007782,81.000305 344.761688,81.000305 
	C344.760193,80.777802 344.758728,80.555305 344.757263,80.332802 
	C251.584961,80.332802 158.412659,80.332802 65.240349,80.332802 
	C65.240387,80.555305 65.240425,80.777802 65.240471,81.000305 
	C121.326981,81.000305 177.413483,81.000305 234.500000,81.000305 
M61.177189,81.756645 
	C61.121262,81.588631 61.065334,81.420609 61.009415,81.252594 
	C60.954983,81.421669 60.900551,81.590744 61.177189,81.756645 
z"/>
<path fill="#F5F5F5" opacity="1.000000" stroke="none" 
	d="
M450.997375,591.933350 
	C451.084259,589.117188 452.346985,588.169983 455.306366,588.289124 
	C472.198029,588.968628 489.098633,589.427185 505.996338,589.955566 
	C507.161926,589.992004 508.329681,589.962280 509.495026,590.003296 
	C528.407593,590.668091 547.377136,590.641418 566.217712,592.186401 
	C589.591858,594.103149 612.859253,597.320984 636.172058,599.983337 
	C636.993042,600.077026 637.937439,600.021057 638.596375,600.415527 
	C640.092957,601.311584 641.447388,602.445007 642.859558,603.481934 
	C641.407532,604.634827 640.084900,606.545471 638.482788,606.818970 
	C627.251526,608.735657 616.003784,610.700012 604.682251,611.908325 
	C588.894714,613.593140 573.043091,614.694397 557.209045,615.918152 
	C550.433044,616.441895 543.635986,616.762878 536.842163,616.968994 
	C523.055664,617.387207 509.263611,617.618347 495.476257,618.011536 
	C477.716339,618.518005 459.961090,619.479248 442.199707,619.590881 
	C392.107391,619.905762 342.012970,619.973389 291.919434,619.947693 
	C276.018158,619.939514 260.113953,619.440857 244.216949,618.969788 
	C225.800781,618.423950 207.383606,617.818115 188.980759,616.945435 
	C172.600281,616.168701 156.189819,615.483154 139.882263,613.857788 
	C122.636765,612.138855 105.497009,609.358582 88.312233,607.033203 
	C87.657211,606.944641 86.882736,606.948242 86.392212,606.593323 
	C85.245483,605.763672 84.237762,604.741882 83.173721,603.797974 
	C84.196007,602.885986 85.090317,601.426575 86.261787,601.152710 
	C92.851189,599.612244 99.450424,597.835083 106.151588,597.105530 
	C124.068871,595.154907 142.029327,593.569763 159.993774,592.097351 
	C168.256134,591.420166 176.569443,591.377808 184.856949,590.989868 
	C190.981903,590.703186 197.102493,590.323059 203.981674,590.112061 
	C208.888870,594.612793 213.714203,597.461426 220.460114,597.027344 
	C246.729965,594.876648 272.543976,592.673889 298.362091,590.520203 
	C317.224823,588.946655 336.092987,587.437683 355.241272,586.215637 
	C356.494843,586.688049 357.463806,586.967041 358.437134,586.983215 
	C379.879944,587.339844 401.324188,587.621887 422.764771,588.077454 
	C424.703827,588.118652 426.619843,589.242554 428.466431,590.206299 
	C427.598785,593.417358 426.895752,596.312561 426.002014,599.147522 
	C424.920746,602.577454 425.857330,603.976196 429.647095,603.914551 
	C439.927429,603.747375 450.212372,603.873291 460.495300,603.834961 
	C461.630005,603.830750 463.054077,603.880981 463.832153,603.262329 
	C465.129120,602.231079 466.011963,600.679077 467.069183,599.346375 
	C465.947754,598.582092 464.913055,597.615845 463.689178,597.090088 
	C459.494385,595.287781 455.233215,593.640015 450.997375,591.933350 
z"/>
<path fill="#ECECEC" opacity="1.000000" stroke="none" 
	d="
M95.989731,147.016769 
	C179.277603,147.010559 262.565582,146.950912 345.853058,147.125717 
	C351.067963,147.136658 352.426758,145.664169 352.118805,140.695023 
	C351.697144,133.891556 351.955902,127.041519 352.052795,120.213287 
	C352.077972,118.439026 352.585724,116.671608 353.118530,114.724701 
	C353.365204,114.548363 353.746155,114.503525 353.746155,114.503525 
	C353.508698,124.573479 353.226074,134.642990 353.127136,144.714294 
	C353.119904,145.450439 354.447113,146.843872 355.146118,146.838882 
	C359.909332,146.804932 364.670502,146.477997 370.212036,146.106842 
	C372.000305,146.068054 373.008881,146.168015 374.017456,146.267990 
	C375.792084,146.511261 377.565918,146.959183 379.341431,146.965683 
	C394.669556,147.021744 409.999542,147.114975 425.325287,146.916046 
	C429.135681,146.866592 430.087738,148.114716 430.073212,151.779526 
	C429.945770,183.935226 429.944153,216.091858 430.074829,248.247528 
	C430.089874,251.949524 429.070740,253.145935 425.296265,253.081161 
	C412.804047,252.866760 400.305786,253.002609 387.097961,252.829361 
	C385.406403,251.748062 384.426758,250.841446 383.327942,249.501770 
	C382.882263,244.709076 382.555756,240.349457 382.683319,235.992950 
	C391.619354,235.998093 400.105316,235.849045 408.581390,236.073868 
	C412.151093,236.168564 413.085510,234.882462 413.065430,231.473053 
	C412.940033,210.185699 412.947906,188.896973 413.059204,167.609482 
	C413.076447,164.309479 412.335907,162.858322 408.661652,162.925888 
	C396.358704,163.152069 384.049896,163.057877 371.481934,162.882446 
	C367.680969,156.000229 362.168579,152.104446 354.619720,151.669830 
	C350.678680,151.442932 346.682556,151.899902 342.727509,152.237717 
	C326.994354,153.581543 311.269836,155.026306 295.537933,156.385239 
	C264.740692,159.045563 233.940628,161.673416 202.877716,163.964783 
	C201.492462,163.408722 200.371445,163.023880 199.249954,163.022583 
	C171.608856,162.990692 143.967392,163.061646 116.326920,162.926788 
	C112.633728,162.908783 111.928017,164.349350 111.944794,167.631332 
	C112.053726,188.944427 112.072609,210.258820 111.930420,231.571533 
	C111.906685,235.128723 113.103516,236.103149 116.527992,236.067505 
	C131.013016,235.916702 145.500549,236.008347 160.419006,236.012817 
	C163.569672,236.341202 166.288498,236.668167 169.005188,237.456573 
	C169.044434,239.153976 169.085815,240.389923 168.984924,241.934372 
	C168.483658,245.834320 168.124695,249.425781 167.765717,253.017242 
	C144.151779,253.008270 120.537849,252.999313 96.460602,252.516479 
	C95.994774,217.034012 95.992249,182.025391 95.989731,147.016769 
z"/>
<path fill="#F5F5F5" opacity="1.000000" stroke="none" 
	d="
M486.629242,351.123077 
	C488.395294,350.749664 490.159790,350.060730 491.927643,350.051971 
	C508.584351,349.969452 525.242126,349.918182 541.898499,350.031036 
	C554.294373,350.115021 564.256042,354.746338 569.646057,366.516632 
	C571.051636,369.585968 571.804810,373.193848 571.896362,376.580383 
	C572.179749,387.066681 571.999939,397.565521 572.000000,408.997009 
	C571.997742,424.284058 571.995483,438.633606 571.525330,452.989319 
	C544.916260,452.980469 518.775085,452.965485 492.635620,452.496246 
	C492.828308,435.312225 493.951324,418.526459 492.950806,401.868256 
	C491.930969,384.887909 488.822968,368.032928 486.629242,351.123077 
z"/>
<path fill="#027CFF" opacity="1.000000" stroke="none" 
	d="
M486.431122,350.823120 
	C488.822968,368.032928 491.930969,384.887909 492.950806,401.868256 
	C493.951324,418.526459 492.828308,435.312225 492.452393,452.836304 
	C489.596252,465.427887 486.924957,477.225159 484.117279,489.385834 
	C477.331665,509.832703 470.682465,529.916138 463.846619,550.284912 
	C463.159973,552.058167 462.659973,553.546082 462.159973,555.033997 
	C460.787689,558.515198 459.415375,561.996460 457.505310,565.883545 
	C449.866669,565.771973 442.765808,565.254456 435.738831,564.351379 
	C436.542999,560.661865 437.273254,557.357971 438.215759,553.766968 
	C438.656525,552.336243 438.885132,551.192627 439.348175,549.758789 
	C440.915405,544.330505 442.344971,539.215149 443.562653,534.049866 
	C447.099915,519.045166 450.552246,504.020355 454.236694,488.674255 
	C456.285065,475.907715 458.134674,463.470367 460.181427,450.761505 
	C468.239655,446.037292 471.374268,439.418243 471.264648,430.296600 
	C470.930725,402.515228 471.138275,374.727295 471.155762,346.941895 
	C471.156952,345.040131 471.328949,343.138519 471.439728,340.861816 
	C474.166443,341.273163 476.217285,341.582520 478.561310,341.936127 
	C479.156952,340.037659 479.693176,338.328583 480.496948,336.529907 
	C481.446747,336.719086 482.128937,336.997803 482.658203,337.571045 
	C481.903656,339.296478 481.302063,340.727325 480.567749,342.473877 
	C482.250641,343.108887 483.550995,343.599548 484.851349,344.090210 
	C485.311890,346.234528 485.772461,348.378876 486.431122,350.823120 
z"/>
<path fill="#F5F5F5" opacity="1.000000" stroke="none" 
	d="
M625.993408,409.005768 
	C633.423584,408.680176 640.531067,408.992554 646.397522,414.769562 
	C651.005066,419.306885 652.968994,424.634644 652.983521,430.857147 
	C653.023926,448.188904 652.997498,465.520782 652.997498,482.852631 
	C652.997498,484.651917 652.997559,486.451202 652.997559,488.602386 
	C655.575867,488.826111 657.670898,489.007874 659.765930,489.189667 
	C659.834839,489.401947 659.903748,489.614227 659.972656,489.826508 
	C657.807922,490.432312 655.643250,491.038086 652.997375,491.778534 
	C652.997375,503.692322 653.161194,515.657959 652.944275,527.616638 
	C652.777710,536.799866 649.632629,544.571472 640.626343,548.619629 
	C638.421570,549.610657 635.883362,549.859741 632.800171,550.725159 
	C629.737305,550.991516 627.372620,550.982544 624.951904,550.631775 
	C624.326904,549.731995 623.850830,548.872314 623.174133,548.663940 
	C617.710510,546.980774 616.789185,543.122864 616.891174,537.888000 
	C617.194641,522.313477 617.031189,506.729126 616.955750,491.149078 
	C616.947449,489.430420 616.328491,487.714722 616.141968,485.694763 
	C627.012634,473.694153 624.888916,461.072021 611.004395,453.516113 
	C611.001465,448.887665 611.000488,444.726868 611.000122,440.566040 
	C610.999817,436.571655 610.962280,432.576843 611.007385,428.582977 
	C611.123230,418.335083 617.527405,412.875275 625.993408,409.005768 
z"/>
<path fill="#34454A" opacity="1.000000" stroke="none" 
	d="
M482.811127,337.276550 
	C482.128937,336.997803 481.446747,336.719086 480.101685,336.356873 
	C474.684631,335.537109 471.307190,334.086304 470.012726,328.304718 
	C468.517792,321.627899 463.254883,317.203827 456.360107,316.082214 
	C450.687897,315.159546 444.844055,315.292053 439.108582,314.571594 
	C441.213654,303.289337 443.286346,292.392365 445.591980,280.270996 
	C441.928284,282.847137 439.532837,284.531494 436.859924,286.007874 
	C432.983551,282.186218 429.384644,278.572601 425.785767,274.958954 
	C432.035034,267.438995 438.284332,259.919067 445.262146,252.197784 
	C453.352203,253.007431 460.713715,254.018433 468.042786,255.457428 
	C467.911438,265.565918 474.630951,272.626160 484.230133,272.828674 
	C487.885406,272.905823 490.235535,271.075256 490.851379,267.439850 
	C491.153168,265.658386 491.025543,263.804169 491.472351,262.002258 
	C499.295837,265.372864 506.739258,268.724091 514.276733,272.371521 
	C515.556824,273.506714 516.742981,274.345673 518.058350,275.486908 
	C519.766541,278.064697 521.345398,280.340210 522.632812,282.810913 
	C519.207397,287.316742 516.073486,291.627319 512.939575,295.937927 
	C510.429626,294.761627 507.919708,293.585327 505.556274,292.477692 
	C499.044525,307.479431 492.554108,322.432098 485.622253,337.669556 
	C484.390930,337.728394 483.601044,337.502472 482.811127,337.276550 
z"/>
<path fill="#F5F5F5" opacity="1.000000" stroke="none" 
	d="
M481.982513,135.012573 
	C515.438049,135.008377 548.894226,135.102951 582.348450,134.887970 
	C587.082825,134.857544 588.107666,136.335297 588.093018,140.798782 
	C587.941589,186.903717 587.923889,233.009644 588.111145,279.114319 
	C588.131104,284.031616 586.646545,285.273438 581.933411,285.108093 
	C571.958923,284.758179 561.963684,285.002686 551.493408,284.569580 
	C551.350342,280.754669 551.690735,277.373627 552.496521,273.995300 
	C559.951538,273.998230 566.947754,273.816467 573.928101,274.071350 
	C577.724731,274.209991 579.109375,273.237396 579.092957,269.117554 
	C578.936890,230.009720 578.956543,190.900894 579.071716,151.792786 
	C579.082458,148.151337 578.161316,146.897018 574.341675,146.919281 
	C548.048401,147.072418 521.753540,147.056580 495.459900,146.932480 
	C491.950989,146.915939 490.891479,148.025284 490.932953,151.492599 
	C491.098083,165.303421 491.003021,179.117325 490.590515,193.017685 
	C487.453278,193.386658 484.729858,193.668060 481.998657,193.484100 
	C481.988068,173.683365 481.985291,154.347961 481.982513,135.012573 
z"/>
<path fill="#E7E7E7" opacity="1.000000" stroke="none" 
	d="
M176.986633,446.976776 
	C176.986633,446.976776 176.499756,446.998291 175.805084,447.001404 
	C172.865829,447.108887 170.621246,447.213226 167.991623,447.335480 
	C167.991623,483.594055 167.991623,519.293335 167.991623,554.992676 
	C165.883972,554.992676 163.776321,554.992676 161.019974,554.992676 
	C161.019974,533.586182 161.019974,512.755859 161.017670,491.127075 
	C161.014603,489.889709 161.013809,489.450806 161.014862,488.541992 
	C161.017975,475.954254 160.887115,463.834045 161.099579,451.719849 
	C161.164825,447.999817 160.042648,446.877838 156.312515,446.920441 
	C139.880768,447.108276 123.445778,447.010956 106.561447,447.011414 
	C103.866371,447.109680 101.621796,447.213501 98.991638,447.335175 
	C98.991638,483.593964 98.991638,519.293335 98.991638,554.992676 
	C96.877556,554.992676 94.763481,554.992676 92.018913,554.992676 
	C92.018913,552.611755 92.018913,550.831909 92.018913,549.052063 
	C92.018906,512.586792 92.016724,476.121521 92.020882,439.656250 
	C92.021645,433.025146 92.033615,433.016357 98.669220,433.013306 
	C112.156380,433.007141 125.643532,433.011475 139.130692,433.011475 
	C140.908447,433.011475 142.686203,433.011475 144.962433,433.011475 
	C143.301239,416.395935 141.660858,400.488892 140.139450,384.570496 
	C139.321045,376.007416 138.755661,367.420502 137.987488,358.852295 
	C137.087357,348.812286 136.006149,338.787689 135.200974,328.740631 
	C135.019608,326.477448 133.400925,322.960175 138.571747,323.464355 
	C142.359375,360.083099 145.725754,396.266876 149.105209,432.591034 
	C150.430283,432.773041 151.225754,432.973969 152.022018,432.977203 
	C159.020187,433.005646 166.021194,433.113647 173.015518,432.949280 
	C176.061966,432.877716 177.224197,433.926422 177.042542,436.981873 
	C176.845123,440.302887 176.990646,443.644287 176.986633,446.976776 
z"/>
<path fill="#1C2E35" opacity="1.000000" stroke="none" 
	d="
M482.006439,193.949448 
	C484.729858,193.668060 487.453278,193.386658 490.947296,193.138672 
	C499.392334,194.518906 504.756348,199.036774 507.606079,206.029160 
	C509.388641,210.403015 510.118256,215.235031 511.070038,219.912384 
	C513.062683,229.704391 514.744324,239.561142 516.830322,249.332230 
	C518.526550,257.277039 520.250427,265.092773 514.182678,272.075317 
	C506.739258,268.724091 499.295837,265.372864 491.312256,261.681274 
	C485.131805,256.157867 484.925995,250.438004 490.424225,245.197784 
	C494.422546,241.387039 496.032379,235.622681 501.233704,232.648361 
	C502.323944,232.024918 501.692719,228.391129 501.854736,226.144531 
	C499.807220,226.271484 497.756683,226.362976 495.713318,226.538177 
	C494.407074,226.650192 492.907562,227.404312 491.842804,226.985489 
	C481.857452,223.057938 473.306366,217.350204 468.281219,206.681259 
	C466.667816,209.404572 465.202911,211.877274 463.660156,214.481354 
	C464.967194,214.876160 465.777588,215.120956 465.467102,215.027161 
	C464.417969,216.990662 462.637604,218.875061 462.455872,220.902740 
	C461.440826,232.228226 461.480560,243.345261 473.592163,250.052612 
	C471.482788,251.955490 469.779022,253.492462 468.075256,255.029449 
	C460.713715,254.018433 453.352203,253.007431 445.543579,252.009583 
	C442.230865,242.862473 443.499512,235.106155 451.991028,229.218018 
	C457.090210,225.682190 458.667023,220.498856 457.554138,214.266266 
	C456.640900,209.151794 457.491791,204.037903 461.762604,200.637344 
	C463.785461,199.026657 466.857635,198.682358 469.496979,197.909744 
	C473.280975,196.802063 477.103882,195.827469 481.258148,194.473541 
	C481.606110,194.151001 482.006439,193.949448 482.006439,193.949448 
z"/>
<path fill="#F0F0F0" opacity="1.000000" stroke="none" 
	d="
M177.446564,446.983459 
	C176.990646,443.644287 176.845123,440.302887 177.042542,436.981873 
	C177.224197,433.926422 176.061966,432.877716 173.015518,432.949280 
	C166.021194,433.113647 159.020187,433.005646 152.022018,432.977203 
	C151.225754,432.973969 150.430283,432.773041 149.105209,432.591034 
	C145.725754,396.266876 142.359375,360.083099 138.985596,323.470154 
	C151.421768,323.033630 163.865326,323.026245 176.964508,323.393860 
	C177.723602,327.516968 177.827057,331.265045 177.466644,335.009460 
	C172.184631,335.006287 167.366486,335.007141 162.548355,335.007263 
	C152.137466,335.007477 151.877640,335.657135 153.003342,346.357758 
	C154.900848,364.394684 156.314804,382.481995 158.028610,400.538971 
	C158.662781,407.220703 159.569107,413.876617 160.404907,421.001221 
	C164.222504,421.001221 167.682693,420.882080 171.131485,421.029663 
	C176.059204,421.240570 180.978577,421.646667 186.004471,422.389160 
	C186.746857,430.867828 187.386276,438.926819 188.025696,446.985779 
	C184.652634,446.987244 181.279572,446.988708 177.446564,446.983459 
z"/>
<path fill="#F0F0F0" opacity="1.000000" stroke="none" 
	d="
M625.525452,409.003571 
	C617.527405,412.875275 611.123230,418.335083 611.007385,428.582977 
	C610.962280,432.576843 610.999817,436.571655 611.000122,440.566040 
	C611.000488,444.726868 611.001465,448.887665 610.587891,453.469177 
	C608.062561,453.593323 605.953552,453.059021 603.840088,453.040466 
	C593.225159,452.947266 582.609009,452.988861 571.993286,452.983154 
	C571.995483,438.633606 571.997742,424.284058 572.000000,409.465424 
	C589.685852,408.998016 607.371643,408.999695 625.525452,409.003571 
z"/>
<path fill="#087BF9" opacity="1.000000" stroke="none" 
	d="
M188.159027,447.385071 
	C187.386276,438.926819 186.746857,430.867828 186.054779,421.956604 
	C185.519745,415.148560 185.110901,409.185730 184.541931,403.238281 
	C182.366043,380.493896 180.138657,357.754456 177.930511,335.013153 
	C177.827057,331.265045 177.723602,327.516968 177.450745,323.400452 
	C176.852386,317.262726 176.423248,311.493439 175.994705,305.724091 
	C175.957932,305.229004 176.126526,304.511536 175.861053,304.270752 
	C169.064438,298.105774 171.546036,289.562286 170.416550,282.066498 
	C169.015060,272.765625 168.715652,263.298737 167.852966,253.460388 
	C168.124695,249.425781 168.483658,245.834320 169.311493,241.665634 
	C169.794373,239.721405 169.808411,238.354401 169.881836,236.560867 
	C168.904663,227.770203 167.868118,219.406082 166.907700,210.578033 
	C167.035233,208.473328 167.207474,206.825836 167.116913,205.192917 
	C166.742020,198.432739 165.951752,191.677170 165.947678,184.919540 
	C165.942627,176.511871 172.058136,169.234879 179.359772,168.149261 
	C172.200516,173.052185 168.541687,179.484436 169.138672,187.840759 
	C170.016006,200.121460 171.228317,212.378372 172.310486,224.644287 
	C174.532944,249.834946 176.779724,275.023468 178.986038,300.215515 
	C180.786255,320.770599 182.524582,341.331024 184.322220,361.886322 
	C186.525452,387.079437 188.777664,412.268250 190.978989,437.461517 
	C192.789536,458.182098 194.526489,478.909149 196.350952,499.628479 
	C198.510971,524.158447 201.112473,548.657532 202.759857,573.221130 
	C203.568130,585.272949 208.088135,593.537292 220.006027,596.996338 
	C213.714203,597.461426 208.888870,594.612793 204.435242,590.100525 
	C199.991547,584.482483 199.699326,577.935364 199.130508,571.508789 
	C195.773453,533.580383 192.473602,495.646942 189.155029,457.715149 
	C188.865448,454.405060 188.579834,451.094666 188.159027,447.385071 
z"/>
<path fill="#F5F5F5" opacity="1.000000" stroke="none" 
	d="
M161.013031,489.011871 
	C161.013809,489.450806 161.014603,489.889709 161.015182,490.657562 
	C144.886215,490.989807 128.753845,491.183899 112.630905,490.878967 
	C107.859711,490.788727 106.845024,492.375183 106.904846,496.809692 
	C107.138100,514.099243 106.999992,531.393860 106.999985,548.686584 
	C106.999985,550.491516 106.999992,552.296509 106.999992,554.663513 
	C104.384468,554.787292 102.138832,554.893555 99.442413,554.996277 
	C98.991638,519.293335 98.991638,483.593964 98.991638,447.335175 
	C101.621796,447.213501 103.866371,447.109680 106.556870,447.478149 
	C107.001923,460.065735 107.134109,472.183380 106.920837,484.294952 
	C106.855064,488.030182 108.010376,489.121399 111.722824,489.081329 
	C128.151230,488.903931 144.582687,489.009033 161.013031,489.011871 
z"/>
<path fill="#F5F5F5" opacity="1.000000" stroke="none" 
	d="
M168.442307,554.996155 
	C167.991623,519.293335 167.991623,483.594055 167.991623,447.335480 
	C170.621246,447.213226 172.865829,447.108887 175.561615,447.011414 
	C176.008682,459.509583 176.107300,472.002319 175.933655,484.491302 
	C175.885681,487.942230 176.904312,489.336792 180.451813,489.056274 
	C183.653687,488.803070 186.891357,489.002838 190.113251,489.002838 
	C190.125519,489.667542 190.137787,490.332245 190.150055,490.996948 
	C187.017441,490.996948 183.865417,491.215851 180.757202,490.940460 
	C177.035141,490.610718 175.881775,491.937164 175.920151,495.703613 
	C176.100021,513.356201 175.999969,531.011658 175.999908,548.666077 
	C175.999908,550.474976 175.999924,552.283936 175.999924,554.660889 
	C173.389694,554.785339 171.141342,554.892456 168.442307,554.996155 
z"/>
<path fill="#FFC3BE" opacity="1.000000" stroke="none" 
	d="
M552.031128,273.992584 
	C551.690735,277.373627 551.350342,280.754669 551.027588,284.572662 
	C549.995789,288.662323 549.168152,292.397339 547.849731,295.950256 
	C545.247437,302.963501 539.834290,305.613190 532.800476,303.029419 
	C527.379333,301.038055 522.204834,298.375153 516.669434,295.630249 
	C518.675720,292.156250 520.933350,289.062866 523.487854,286.128540 
	C527.111816,288.146637 530.472717,289.948120 533.755554,291.882385 
	C536.529663,293.516968 538.653564,293.077789 539.469299,289.897064 
	C540.817078,284.641693 541.854187,279.306641 543.063232,273.607178 
	C545.874634,265.573669 546.060974,258.331085 539.925476,251.590790 
	C539.963318,247.883820 539.963318,244.641571 539.963318,241.823318 
	C542.596252,241.057465 544.300781,240.561676 546.421204,240.059937 
	C548.358032,240.651337 550.987732,240.975281 551.213684,241.891861 
	C552.383667,246.637054 553.511414,251.527786 553.561951,256.379120 
	C553.623047,262.244324 552.590454,268.120911 552.031128,273.992584 
z"/>
<path fill="#077CFF" opacity="1.000000" stroke="none" 
	d="
M411.151306,135.610291 
	C406.915283,109.768135 384.495697,92.525864 357.548431,94.049400 
	C356.719330,94.096260 355.708954,94.566818 355.102631,94.242493 
	C353.294281,93.275238 350.704498,92.349663 350.140442,90.786842 
	C349.135010,88.001289 351.098480,86.248131 354.094147,85.794403 
	C370.473602,83.313538 385.058624,87.686043 398.067017,97.559021 
	C409.826050,106.483765 416.692230,118.539597 419.719727,132.886978 
	C420.313019,135.698669 420.320862,138.439026 417.181122,139.621475 
	C413.942169,140.841293 412.247467,138.798645 411.151306,135.610291 
z"/>
<path fill="#E1E1E1" opacity="1.000000" stroke="none" 
	d="
M625.007935,550.973633 
	C627.372620,550.982544 629.737305,550.991516 632.544250,551.008667 
	C631.945557,555.059631 628.880127,555.044312 625.518433,555.041138 
	C571.370850,554.990173 517.223267,555.011353 462.617798,555.025024 
	C462.659973,553.546082 463.159973,552.058167 464.312988,550.289368 
	C506.029755,550.008911 547.093689,549.936951 588.157104,550.054077 
	C600.441467,550.089111 612.724365,550.652344 625.007935,550.973633 
z"/>
<path fill="#FFC3BE" opacity="1.000000" stroke="none" 
	d="
M383.447083,249.934830 
	C384.426758,250.841446 385.406403,251.748062 386.620148,252.831726 
	C387.248138,256.019379 388.174652,259.071808 387.942108,262.033203 
	C387.021301,273.758209 392.775787,282.662933 399.680206,291.126068 
	C402.329071,294.372925 405.588654,294.657288 408.832428,292.018341 
	C414.213531,287.640656 419.483612,283.126465 425.258606,278.496704 
	C428.504028,281.191132 431.291321,284.058655 433.778320,287.084534 
	C426.821350,292.161102 420.392212,297.435303 413.434448,301.882385 
	C408.068695,305.311890 401.740540,305.797882 396.743073,301.279175 
	C392.943451,297.843506 390.263519,293.169556 386.951477,288.653198 
	C386.100586,284.436371 385.536835,280.575256 384.608704,276.803772 
	C384.060974,274.578308 382.183533,272.485657 382.209778,270.349304 
	C382.293427,263.540436 382.988312,256.739075 383.447083,249.934830 
z"/>
<path fill="#077CFF" opacity="1.000000" stroke="none" 
	d="
M353.450562,114.376625 
	C352.200134,110.244034 353.342499,107.669403 357.678925,107.028137 
	C376.235992,104.283897 394.932617,117.963387 398.258240,136.535095 
	C398.799683,139.558716 398.560303,142.089417 395.375824,142.883163 
	C391.884216,143.753479 390.562592,141.550186 389.742889,138.294373 
	C385.870514,122.914024 374.795135,114.928139 359.120544,115.764771 
	C357.562439,115.847931 355.964325,115.182182 354.065491,114.683777 
	C353.746155,114.503525 353.365204,114.548363 353.450562,114.376625 
z"/>
<path fill="#1C2E35" opacity="1.000000" stroke="none" 
	d="
M450.656799,591.877319 
	C455.233215,593.640015 459.494385,595.287781 463.689178,597.090088 
	C464.913055,597.615845 465.947754,598.582092 467.069183,599.346375 
	C466.011963,600.679077 465.129120,602.231079 463.832153,603.262329 
	C463.054077,603.880981 461.630005,603.830750 460.495300,603.834961 
	C450.212372,603.873291 439.927429,603.747375 429.647095,603.914551 
	C425.857330,603.976196 424.920746,602.577454 426.002014,599.147522 
	C426.895752,596.312561 427.598785,593.417358 428.600250,590.180054 
	C428.814178,589.811218 429.067108,589.696289 429.456451,589.793396 
	C435.187714,589.502930 440.529663,589.115417 445.871582,588.727905 
	C446.551147,588.766602 447.230743,588.805298 448.281311,588.642517 
	C449.065613,588.710266 449.478912,588.979492 449.892181,589.248718 
	C450.033539,590.106262 450.174866,590.963867 450.656799,591.877319 
z"/>
<path fill="#F5F5F5" opacity="1.000000" stroke="none" 
	d="
M55.998627,453.000000 
	C55.998627,330.766907 55.998627,209.033798 55.998627,87.300690 
	C56.213955,87.300514 56.429279,87.300331 56.644608,87.300156 
	C56.644608,219.432159 56.644608,351.564148 56.644608,483.696167 
	C56.429279,483.701874 56.213955,483.707611 55.998627,483.713318 
	C55.998627,473.642212 55.998627,463.571106 55.998627,453.000000 
z"/>
<path fill="#F5F5F5" opacity="1.000000" stroke="none" 
	d="
M234.000000,81.000305 
	C177.413483,81.000305 121.326981,81.000305 65.240471,81.000305 
	C65.240425,80.777802 65.240387,80.555305 65.240349,80.332802 
	C158.412659,80.332802 251.584961,80.332802 344.757263,80.332802 
	C344.758728,80.555305 344.760193,80.777802 344.761688,81.000305 
	C308.007782,81.000305 271.253906,81.000305 234.000000,81.000305 
z"/>
<path fill="#1C2E35" opacity="1.000000" stroke="none" 
	d="
M435.664917,564.736938 
	C442.765808,565.254456 449.866669,565.771973 457.424561,566.257324 
	C458.769104,566.567810 459.656647,566.910522 460.539093,567.251282 
	C458.993530,574.942871 458.993530,574.942871 448.173523,575.102051 
	C443.493286,575.105713 439.711700,575.089722 435.549805,574.952148 
	C433.874969,574.695557 432.580505,574.560547 431.107056,574.406799 
	C431.550323,571.901062 431.656647,569.520386 432.470795,567.413330 
	C432.909058,566.279114 434.560730,565.613770 435.664917,564.736938 
z"/>
<path fill="#077CFF" opacity="1.000000" stroke="none" 
	d="
M374.363373,146.108597 
	C373.008881,146.168015 372.000305,146.068054 370.612122,145.940628 
	C368.992462,143.609299 368.191437,140.830643 366.374542,139.150650 
	C364.900665,137.787872 362.089539,137.989700 360.092346,137.035416 
	C358.614288,136.329193 356.690369,135.036255 356.433441,133.718399 
	C356.172668,132.381088 357.337128,129.832550 358.531952,129.309433 
	C363.225983,127.254280 367.639130,128.736115 371.486084,131.785782 
	C375.172180,134.707962 377.615051,138.398163 376.853882,143.357956 
	C376.707916,144.309021 375.452728,145.089844 374.363373,146.108597 
z"/>
<path fill="#E1E1E1" opacity="1.000000" stroke="none" 
	d="
M95.586761,147.090149 
	C95.992249,182.025391 95.994774,217.034012 95.991058,252.508423 
	C95.318367,251.698654 94.074043,250.424988 94.069878,249.147293 
	C93.963112,216.316437 93.973457,183.485138 94.036369,150.654053 
	C94.038597,149.489822 94.784492,148.327026 95.586761,147.090149 
z"/>
<path fill="#FCC4BF" opacity="1.000000" stroke="none" 
	d="
M435.930176,575.073669 
	C439.711700,575.089722 443.493286,575.105713 447.751495,575.210449 
	C447.363983,579.571228 446.499817,583.843323 445.753601,588.421692 
	C440.529663,589.115417 435.187714,589.502930 429.560425,589.400513 
	C430.576813,587.225098 432.243225,585.703979 433.094147,583.815369 
	C434.345001,581.039124 435.013550,578.000488 435.930176,575.073669 
z"/>
<path fill="#E1E1E1" opacity="1.000000" stroke="none" 
	d="
M481.998657,193.484100 
	C482.006439,193.949448 481.606110,194.151001 481.387268,194.102539 
	C480.453644,192.818970 479.126190,191.588745 479.116333,190.348053 
	C478.979675,173.135880 478.980072,155.921951 479.115295,138.709747 
	C479.124939,137.477722 480.444366,136.256012 481.568665,135.021042 
	C481.985291,154.347961 481.988068,173.683365 481.998657,193.484100 
z"/>
<path fill="#087BF9" opacity="1.000000" stroke="none" 
	d="
M523.190918,285.969482 
	C520.933350,289.062866 518.675720,292.156250 516.327881,295.545532 
	C515.220032,296.109711 514.202515,296.377960 513.062256,296.292053 
	C516.073486,291.627319 519.207397,287.316742 522.932495,282.981323 
	C523.412781,283.960815 523.301880,284.965149 523.190918,285.969482 
z"/>
<path fill="#027CFF" opacity="1.000000" stroke="none" 
	d="
M434.078644,286.926147 
	C431.291321,284.058655 428.504028,281.191132 425.423096,278.204956 
	C425.132080,277.065796 425.134705,276.045319 425.461548,274.991913 
	C429.384644,278.572601 432.983551,282.186218 436.820190,286.331787 
	C436.064850,286.884521 435.071747,286.905334 434.078644,286.926147 
z"/>
<path fill="#64A4FF" opacity="1.000000" stroke="none" 
	d="
M482.658203,337.571075 
	C483.601044,337.502472 484.390930,337.728394 485.481110,338.012878 
	C485.496674,339.845703 485.211975,341.619934 484.889282,343.742188 
	C483.550995,343.599548 482.250641,343.108887 480.567749,342.473877 
	C481.302063,340.727325 481.903656,339.296478 482.658203,337.571075 
z"/>
<path fill="#F5F5F5" opacity="1.000000" stroke="none" 
	d="
M449.927032,588.888123 
	C449.478912,588.979492 449.065613,588.710266 448.429382,588.323059 
	C448.529266,587.640259 448.852173,587.075378 449.175049,586.510498 
	C449.437317,587.182861 449.699585,587.855164 449.927032,588.888123 
z"/>
<path fill="#F5F5F5" opacity="1.000000" stroke="none" 
	d="
M61.011654,81.758224 
	C60.900551,81.590744 60.954983,81.421669 61.009411,81.252594 
	C61.065334,81.420609 61.121262,81.588631 61.011654,81.758224 
z"/>
<path fill="#1C2E35" opacity="1.000000" stroke="none" 
	d="
M383.327911,249.501770 
	C382.988312,256.739075 382.293427,263.540436 382.209778,270.349304 
	C382.183533,272.485657 384.060974,274.578308 384.608704,276.803772 
	C385.536835,280.575256 386.100586,284.436371 386.899292,289.098450 
	C387.470428,296.200195 388.135529,302.457275 388.350311,308.729797 
	C388.421906,310.820099 387.340179,312.949921 386.414429,315.082336 
	C385.062042,315.054932 384.080963,315.006897 383.085327,314.501160 
	C382.058319,301.508698 381.048828,288.973694 380.032562,276.439209 
	C378.976044,263.407959 377.966797,250.372620 376.839783,237.347473 
	C375.271118,219.218323 373.480591,201.107101 372.086060,182.965073 
	C371.744873,178.526535 370.218048,176.513306 365.719269,176.934143 
	C357.811829,177.673813 349.897003,178.335068 341.543274,179.008667 
	C336.668610,179.335159 332.227295,179.597427 327.805054,180.047165 
	C319.162445,180.926117 310.530548,181.909836 301.436462,182.855408 
	C291.716278,183.562576 282.452240,184.244598 273.191681,184.971283 
	C259.964111,186.009262 246.731232,186.990753 233.514999,188.158875 
	C216.343750,189.676575 199.200226,191.524750 182.017883,192.892929 
	C172.902863,193.618729 172.749435,193.427261 173.005402,202.378601 
	C173.038681,203.542725 173.069717,204.709579 173.174942,205.868530 
	C174.763718,223.366974 176.404343,240.860794 177.949738,258.363037 
	C179.087646,271.250397 180.052475,284.153015 181.188477,297.040558 
	C182.731232,314.542694 184.411682,332.032776 185.942017,349.535950 
	C187.083252,362.588776 188.022964,375.659180 189.155304,388.712830 
	C190.716736,406.713409 192.405075,424.702942 193.981720,442.702240 
	C195.096054,455.423798 196.047470,468.159821 197.193817,480.878387 
	C198.711319,497.714630 200.395966,514.535828 201.917633,531.371765 
	C203.022247,543.593323 203.926544,555.833130 205.036163,568.054260 
	C205.338058,571.379211 206.993317,572.738281 210.770569,572.379272 
	C228.269943,570.715881 245.806122,569.443604 263.320923,567.936035 
	C268.236908,567.512817 273.125000,566.765381 278.483887,566.169983 
	C291.951996,565.095825 304.962097,564.018372 318.412048,562.960205 
	C327.763916,562.264771 336.681946,561.616638 345.586792,560.821350 
	C363.057190,559.261108 380.509308,557.479248 397.993988,556.107300 
	C402.439972,555.758423 404.439911,554.233826 404.015350,549.734314 
	C403.300140,542.154541 402.656311,534.567871 402.009216,526.981812 
	C400.925690,514.279846 399.824554,501.579224 398.803070,488.872223 
	C397.821808,476.665497 396.932129,464.451416 396.324707,452.182861 
	C397.081177,452.154724 397.515198,452.184326 397.980408,452.627808 
	C398.673279,459.210876 399.334930,465.380066 399.961151,471.966431 
	C400.306305,477.516479 400.598358,482.657776 401.087219,487.780334 
	C401.936462,496.679382 402.907379,505.566895 403.726776,514.881348 
	C404.516266,525.543274 405.406311,535.783020 406.255981,546.438660 
	C406.508057,550.488892 406.842316,554.120361 407.085815,557.757996 
	C408.175079,574.032654 400.904785,582.015320 384.609741,583.069153 
	C374.706482,583.709656 364.841095,584.936462 354.958710,585.899841 
	C336.092987,587.437683 317.224823,588.946655 298.362091,590.520203 
	C272.543976,592.673889 246.729965,594.876648 220.460114,597.027344 
	C208.088135,593.537292 203.568130,585.272949 202.759857,573.221130 
	C201.112473,548.657532 198.510971,524.158447 196.350952,499.628479 
	C194.526489,478.909149 192.789536,458.182098 190.978989,437.461517 
	C188.777664,412.268250 186.525452,387.079437 184.322220,361.886322 
	C182.524582,341.331024 180.786255,320.770599 178.986038,300.215515 
	C176.779724,275.023468 174.532944,249.834946 172.310486,224.644287 
	C171.228317,212.378372 170.016006,200.121460 169.138672,187.840759 
	C168.541687,179.484436 172.200516,173.052185 179.565063,167.881348 
	C187.704529,166.313705 195.423126,165.314194 203.141724,164.314697 
	C233.940628,161.673416 264.740692,159.045563 295.537933,156.385239 
	C311.269836,155.026306 326.994354,153.581543 342.727509,152.237717 
	C346.682556,151.899902 350.678680,151.442932 354.619720,151.669830 
	C362.168579,152.104446 367.680969,156.000229 371.568054,163.278366 
	C373.285309,176.084808 374.699890,188.286652 376.006775,200.499985 
	C376.714752,207.116119 376.113892,214.133194 378.190643,220.262177 
	C379.957550,225.476761 382.103973,230.411163 382.229248,235.989838 
	C382.555756,240.349457 382.882263,244.709076 383.327911,249.501770 
M253.547668,169.951645 
	C251.768341,170.875153 249.989014,171.798660 248.209686,172.722153 
	C249.966476,173.481705 251.691055,174.334961 253.495697,174.955215 
	C254.230469,175.207779 255.143066,174.998276 255.968094,174.924484 
	C266.821014,173.953751 277.682892,173.062637 288.513153,171.882355 
	C290.023804,171.717743 291.377655,170.114624 292.804077,169.177399 
	C291.363434,168.434769 289.872284,166.967453 288.490112,167.063797 
	C277.126312,167.855835 265.782745,168.938461 253.547668,169.951645 
z"/>
<path fill="#FCFCFD" opacity="1.000000" stroke="none" 
	d="
M355.241272,586.215637 
	C364.841095,584.936462 374.706482,583.709656 384.609741,583.069153 
	C400.904785,582.015320 408.175079,574.032654 407.085815,557.757996 
	C406.842316,554.120361 406.508057,550.488892 406.588440,546.529175 
	C407.312714,547.474426 407.664124,548.745117 408.008850,550.447449 
	C408.592957,552.222473 409.188416,554.736633 409.773865,554.734375 
	C419.184479,554.697021 428.593872,554.339111 438.003540,554.054077 
	C437.273254,557.357971 436.542999,560.661865 435.738831,564.351318 
	C434.560730,565.613770 432.909058,566.279114 432.470795,567.413330 
	C431.656647,569.520386 431.550323,571.901062 431.107056,574.406799 
	C432.580505,574.560547 433.874969,574.695557 435.549805,574.952148 
	C435.013550,578.000488 434.345001,581.039124 433.094147,583.815369 
	C432.243225,585.703979 430.576813,587.225098 429.171082,589.303467 
	C429.067108,589.696289 428.814178,589.811218 428.680359,589.837402 
	C426.619843,589.242554 424.703827,588.118652 422.764771,588.077454 
	C401.324188,587.621887 379.879944,587.339844 358.437134,586.983215 
	C357.463806,586.967041 356.494843,586.688049 355.241272,586.215637 
z"/>
<path fill="#F5F5F5" opacity="1.000000" stroke="none" 
	d="
M202.877716,163.964783 
	C195.423126,165.314194 187.704529,166.313705 179.780640,167.581131 
	C172.058136,169.234879 165.942627,176.511871 165.947678,184.919540 
	C165.951752,191.677170 166.742020,198.432739 167.116913,205.192917 
	C167.207474,206.825836 167.035233,208.473328 166.660660,210.830795 
	C164.220718,219.702103 162.103943,227.856735 159.987167,236.011368 
	C145.500549,236.008347 131.013016,235.916702 116.527992,236.067505 
	C113.103516,236.103149 111.906685,235.128723 111.930420,231.571533 
	C112.072609,210.258820 112.053726,188.944427 111.944794,167.631332 
	C111.928017,164.349350 112.633728,162.908783 116.326920,162.926788 
	C143.967392,163.061646 171.608856,162.990692 199.249954,163.022583 
	C200.371445,163.023880 201.492462,163.408722 202.877716,163.964783 
z"/>
<path fill="#F5F5F5" opacity="1.000000" stroke="none" 
	d="
M382.683319,235.992950 
	C382.103973,230.411163 379.957550,225.476761 378.190643,220.262177 
	C376.113892,214.133194 376.714752,207.116119 376.006775,200.499985 
	C374.699890,188.286652 373.285309,176.084808 371.829468,163.482269 
	C384.049896,163.057877 396.358704,163.152069 408.661652,162.925888 
	C412.335907,162.858322 413.076447,164.309479 413.059204,167.609482 
	C412.947906,188.896973 412.940033,210.185699 413.065430,231.473053 
	C413.085510,234.882462 412.151093,236.168564 408.581390,236.073868 
	C400.105316,235.849045 391.619354,235.998093 382.683319,235.992950 
z"/>
<path fill="#FCFCFD" opacity="1.000000" stroke="none" 
	d="
M160.419006,236.012817 
	C162.103943,227.856735 164.220718,219.702103 166.584518,211.294708 
	C167.868118,219.406082 168.904663,227.770203 169.678070,236.563263 
	C169.414902,236.992203 169.007324,236.995117 169.007324,236.995117 
	C166.288498,236.668167 163.569672,236.341202 160.419006,236.012817 
z"/>
<path fill="#F5F5F5" opacity="1.000000" stroke="none" 
	d="
M169.005188,237.456573 
	C169.007324,236.995117 169.414902,236.992203 169.618683,236.989807 
	C169.808411,238.354401 169.794373,239.721405 169.453766,241.357147 
	C169.085815,240.389923 169.044434,239.153976 169.005188,237.456573 
z"/>
<path fill="#E1E1E1" opacity="1.000000" stroke="none" 
	d="
M571.525330,452.989319 
	C582.609009,452.988861 593.225159,452.947266 603.840088,453.040466 
	C605.953552,453.059021 608.062561,453.593323 610.590088,453.936798 
	C624.888916,461.072021 627.012634,473.694153 615.806519,485.842896 
	C611.511719,487.197540 607.705444,488.867859 603.890930,488.886719 
	C564.012573,489.084045 524.132935,489.016541 484.253632,489.022400 
	C486.924957,477.225159 489.596252,465.427887 492.450745,453.290558 
	C518.775085,452.965485 544.916260,452.980469 571.525330,452.989319 
z"/>
<path fill="#64A4FF" opacity="1.000000" stroke="none" 
	d="
M383.099854,314.958862 
	C384.080963,315.006897 385.062042,315.054932 386.900513,315.106445 
	C404.864014,315.058929 421.970123,315.007904 439.076263,314.956879 
	C444.844055,315.292053 450.687897,315.159546 456.360107,316.082214 
	C463.254883,317.203827 468.517792,321.627899 470.012726,328.304718 
	C471.307190,334.086304 474.684631,335.537109 479.834106,336.446472 
	C479.693176,338.328583 479.156952,340.037659 478.561310,341.936127 
	C476.217285,341.582520 474.166443,341.273163 471.439728,340.861816 
	C471.328949,343.138519 471.156952,345.040131 471.155762,346.941895 
	C471.138275,374.727295 470.930725,402.515228 471.264648,430.296600 
	C471.374268,439.418243 468.239655,446.037292 459.762024,450.728912 
	C454.424988,451.316742 449.704559,451.665649 444.517151,452.035065 
	C433.022156,452.042511 421.994110,452.029480 410.504517,452.029785 
	C406.011688,452.100067 401.980438,452.157013 397.949188,452.213928 
	C397.515198,452.184326 397.081177,452.154724 395.870483,452.118103 
	C386.598297,450.579193 380.405151,453.787964 374.784973,460.300659 
	C367.897888,468.281433 359.987427,475.379120 351.378906,484.000916 
	C342.326538,474.395325 333.663239,465.202545 324.835327,455.691498 
	C322.751648,454.277588 320.851715,452.276520 318.910309,452.235413 
	C307.598480,451.995972 296.276947,452.216431 284.497620,452.214111 
	C273.378357,452.129272 262.718933,452.208771 252.062424,452.066711 
	C241.737366,451.929047 233.165970,443.691925 233.112671,433.357178 
	C232.969223,405.547638 233.120926,377.736542 233.513702,349.985687 
	C243.566452,355.242371 253.295456,355.007263 263.233368,350.591370 
	C263.607727,352.738586 263.967102,354.524780 263.970947,356.311798 
	C264.011841,375.348267 263.966827,394.384979 264.042633,413.421234 
	C264.050079,415.293701 264.703308,417.163635 265.217804,419.347412 
	C267.777100,426.777100 270.559082,428.770721 278.244049,428.774689 
	C300.205841,428.786041 322.167633,428.758514 344.129395,428.782501 
	C372.743530,428.813721 401.357635,428.879730 430.075928,429.109467 
	C430.437347,429.114899 430.694580,428.941620 431.200745,428.543091 
	C436.866577,426.445282 439.136353,422.640533 439.107697,416.927002 
	C438.996796,394.832214 439.077240,372.736542 439.031494,350.641296 
	C439.028168,349.025085 438.587341,347.409760 438.250336,345.451172 
	C436.201111,340.485077 432.485901,338.982666 427.747131,338.995331 
	C410.110168,339.042480 392.472992,339.029114 374.835938,339.009949 
	C341.394714,338.973663 307.953491,338.917694 274.657715,338.515015 
	C278.609222,330.821075 278.945007,323.131256 277.580994,315.200867 
	C283.361359,315.126892 288.682678,315.075226 294.471100,315.063354 
	C307.953796,315.081573 320.969391,315.060028 334.452606,315.087463 
	C350.980072,315.077240 367.039978,315.018036 383.099854,314.958862 
z"/>
<path fill="#F0F0F0" opacity="1.000000" stroke="none" 
	d="
M484.117249,489.385834 
	C524.132935,489.016541 564.012573,489.084045 603.890930,488.886719 
	C607.705444,488.867859 611.511719,487.197540 615.657288,486.145752 
	C616.328491,487.714722 616.947449,489.430420 616.955750,491.149078 
	C617.031189,506.729126 617.194641,522.313477 616.891174,537.888000 
	C616.789185,543.122864 617.710510,546.980774 623.174133,548.663940 
	C623.850830,548.872314 624.326904,549.731995 624.951904,550.631836 
	C612.724365,550.652344 600.441467,550.089111 588.157104,550.054077 
	C547.093689,549.936951 506.029755,550.008911 464.499634,550.004028 
	C470.682465,529.916138 477.331665,509.832703 484.117249,489.385834 
z"/>
<path fill="#F0F0F0" opacity="1.000000" stroke="none" 
	d="
M408.015533,550.015808 
	C407.664124,548.745117 407.312714,547.474426 406.628845,546.113281 
	C405.406311,535.783020 404.516266,525.543274 404.004272,514.632446 
	C410.866516,505.621246 417.350769,497.281097 424.313782,488.957275 
	C434.541016,488.983521 444.289459,488.993469 454.037933,489.003448 
	C450.552246,504.020355 447.099915,519.045166 443.562653,534.049866 
	C442.344971,539.215149 440.915405,544.330505 438.871948,549.749390 
	C428.112671,550.025330 418.064117,550.020569 408.015533,550.015808 
z"/>
<path fill="#E1E1E1" opacity="1.000000" stroke="none" 
	d="
M454.236694,488.674255 
	C444.289459,488.993469 434.541016,488.983521 424.420715,488.627106 
	C431.027313,476.191956 438.005707,464.103271 444.984131,452.014587 
	C449.704559,451.665649 454.424988,451.316742 459.564880,451.000427 
	C458.134674,463.470367 456.285065,475.907715 454.236694,488.674255 
z"/>
<path fill="#E1E1E1" opacity="1.000000" stroke="none" 
	d="
M408.008850,550.447449 
	C418.064117,550.020569 428.112671,550.025330 438.637482,550.039551 
	C438.885132,551.192627 438.656525,552.336243 438.215729,553.766968 
	C428.593872,554.339111 419.184479,554.697021 409.773865,554.734375 
	C409.188416,554.736633 408.592957,552.222473 408.008850,550.447449 
z"/>
<path fill="#FFFFFF" opacity="1.000000" stroke="none" 
	d="
M539.887634,252.055511 
	C546.060974,258.331085 545.874634,265.573669 542.592163,273.605408 
	C536.348633,274.000671 530.614014,273.888275 524.887390,274.052979 
	C522.559021,274.119995 520.247986,274.789337 517.929077,275.184631 
	C516.742981,274.345673 515.556824,273.506714 514.276733,272.371521 
	C520.250427,265.092773 518.526550,257.277039 516.830322,249.332230 
	C514.744324,239.561142 513.062683,229.704391 511.070038,219.912384 
	C510.118256,215.235031 509.388641,210.403015 507.606079,206.029160 
	C504.756348,199.036774 499.392334,194.518906 491.361115,193.051086 
	C491.003021,179.117325 491.098083,165.303421 490.932953,151.492599 
	C490.891479,148.025284 491.950989,146.915939 495.459900,146.932480 
	C521.753540,147.056580 548.048401,147.072418 574.341675,146.919281 
	C578.161316,146.897018 579.082458,148.151337 579.071716,151.792786 
	C578.956543,190.900894 578.936890,230.009720 579.092957,269.117554 
	C579.109375,273.237396 577.724731,274.209991 573.928101,274.071350 
	C566.947754,273.816467 559.951538,273.998230 552.496582,273.995300 
	C552.590454,268.120911 553.623047,262.244324 553.561951,256.379120 
	C553.511414,251.527786 552.383667,246.637054 551.213684,241.891861 
	C550.987732,240.975281 548.358032,240.651337 546.419556,239.588196 
	C546.001221,236.638840 546.023560,234.155029 545.995056,231.671783 
	C545.937744,226.673477 545.350891,226.355972 540.418640,227.727982 
	C526.894775,231.489914 521.777344,244.411362 524.803223,257.680420 
	C531.041626,259.111908 535.388184,255.372391 539.887634,252.055511 
M541.512329,194.999100 
	C529.963013,196.684387 520.977844,209.566879 524.800476,225.920532 
	C531.393738,225.719315 536.740967,222.978317 541.000183,217.975861 
	C546.280640,211.774078 546.280396,204.319000 546.031616,196.761444 
	C545.920654,193.392288 543.972900,194.677856 541.512329,194.999100 
M543.644531,162.032578 
	C535.398193,163.358246 528.762634,167.231720 526.012939,175.369965 
	C524.519836,179.789032 524.601562,184.744400 524.010132,189.462524 
	C523.572144,192.956863 526.028564,193.826736 528.315369,192.807632 
	C532.597107,190.899475 537.189697,188.899612 540.477844,185.721893 
	C546.548828,179.854691 548.107666,167.724655 543.644531,162.032578 
z"/>
<path fill="#FCC4BF" opacity="1.000000" stroke="none" 
	d="
M468.042755,255.457413 
	C469.779022,253.492462 471.482788,251.955490 473.592163,250.052612 
	C461.480560,243.345261 461.440826,232.228226 462.455872,220.902740 
	C462.637604,218.875061 464.417969,216.990662 465.467102,215.027161 
	C465.777588,215.120956 464.967194,214.876160 463.660156,214.481354 
	C465.202911,211.877274 466.667816,209.404572 468.281219,206.681259 
	C473.306366,217.350204 481.857452,223.057938 491.842804,226.985489 
	C492.907562,227.404312 494.407074,226.650192 495.713318,226.538177 
	C497.756683,226.362976 499.807220,226.271484 501.854736,226.144531 
	C501.692719,228.391129 502.323944,232.024918 501.233704,232.648361 
	C496.032379,235.622681 494.422546,241.387039 490.424225,245.197784 
	C484.925995,250.438004 485.131805,256.157867 490.932159,261.661896 
	C491.025543,263.804169 491.153168,265.658386 490.851379,267.439850 
	C490.235535,271.075256 487.885406,272.905823 484.230133,272.828674 
	C474.630951,272.626160 467.911438,265.565918 468.042755,255.457413 
z"/>
<path fill="#FCFCFD" opacity="1.000000" stroke="none" 
	d="
M439.108582,314.571594 
	C421.970123,315.007904 404.864014,315.058929 387.271790,315.085815 
	C387.340179,312.949921 388.421906,310.820099 388.350311,308.729797 
	C388.135529,302.457275 387.470428,296.200195 387.033234,289.491821 
	C390.263519,293.169556 392.943451,297.843506 396.743073,301.279175 
	C401.740540,305.797882 408.068695,305.311890 413.434448,301.882385 
	C420.392212,297.435303 426.821350,292.161102 433.778320,287.084534 
	C435.071747,286.905334 436.064850,286.884521 437.097656,286.539764 
	C439.532837,284.531494 441.928284,282.847137 445.591980,280.270996 
	C443.286346,292.392365 441.213654,303.289337 439.108582,314.571594 
z"/>
<path fill="#F5F5F5" opacity="1.000000" stroke="none" 
	d="
M518.058350,275.486938 
	C520.247986,274.789337 522.559021,274.119995 524.887390,274.052979 
	C530.614014,273.888275 536.348633,274.000671 542.551147,274.003357 
	C541.854187,279.306641 540.817078,284.641693 539.469299,289.897064 
	C538.653564,293.077789 536.529663,293.516968 533.755554,291.882385 
	C530.472717,289.948120 527.111816,288.146637 523.487793,286.128540 
	C523.301880,284.965149 523.412781,283.960815 523.223999,282.786072 
	C521.345398,280.340210 519.766541,278.064697 518.058350,275.486938 
z"/>
<path fill="#FFFFFF" opacity="1.000000" stroke="none" 
	d="
M161.014877,488.541992 
	C144.582687,489.009033 128.151230,488.903931 111.722824,489.081329 
	C108.010376,489.121399 106.855064,488.030182 106.920837,484.294952 
	C107.134109,472.183380 107.001923,460.065735 107.007370,447.483673 
	C123.445778,447.010956 139.880768,447.108276 156.312515,446.920441 
	C160.042648,446.877838 161.164825,447.999817 161.099579,451.719849 
	C160.887115,463.834045 161.017975,475.954254 161.014877,488.541992 
z"/>
<path fill="#FEFEFF" opacity="1.000000" stroke="none" 
	d="
M177.466644,335.009460 
	C180.138657,357.754456 182.366043,380.493896 184.541931,403.238281 
	C185.110901,409.185730 185.519745,415.148560 185.951813,421.536865 
	C180.978577,421.646667 176.059204,421.240570 171.131485,421.029663 
	C167.682693,420.882080 164.222504,421.001221 160.404907,421.001221 
	C159.569107,413.876617 158.662781,407.220703 158.028610,400.538971 
	C156.314804,382.481995 154.900848,364.394684 153.003342,346.357758 
	C151.877640,335.657135 152.137466,335.007477 162.548355,335.007263 
	C167.366486,335.007141 172.184631,335.006287 177.466644,335.009460 
z"/>
<path fill="#F5F5F5" opacity="1.000000" stroke="none" 
	d="
M539.925476,251.590790 
	C535.388184,255.372391 531.041626,259.111908 524.803223,257.680420 
	C521.777344,244.411362 526.894775,231.489914 540.418640,227.727982 
	C545.350891,226.355972 545.937744,226.673477 545.995056,231.671783 
	C546.023560,234.155029 546.001221,236.638840 546.003601,239.594147 
	C544.300781,240.561676 542.596252,241.057465 539.963318,241.823318 
	C539.963318,244.641571 539.963318,247.883820 539.925476,251.590790 
z"/>
<path fill="#104E8B" opacity="1.000000" stroke="none" 
	d="
M233.155457,349.926086 
	C233.120926,377.736542 232.969223,405.547638 233.112671,433.357178 
	C233.165970,443.691925 241.737366,451.929047 252.062424,452.066711 
	C262.718933,452.208771 273.378357,452.129272 284.512390,452.653595 
	C284.307953,467.394592 283.651825,481.629944 282.934418,495.862213 
	C282.676147,500.985718 282.290161,506.103149 281.928802,511.221008 
	C280.635620,529.536743 279.328033,547.851562 278.025879,566.166687 
	C273.125000,566.765381 268.236908,567.512817 263.320923,567.936035 
	C245.806122,569.443604 228.269943,570.715881 210.770569,572.379272 
	C206.993317,572.738281 205.338058,571.379211 205.036163,568.054260 
	C203.926544,555.833130 203.022247,543.593323 201.917633,531.371765 
	C200.395966,514.535828 198.711319,497.714630 197.193817,480.878387 
	C196.047470,468.159821 195.096054,455.423798 193.981720,442.702240 
	C192.405075,424.702942 190.716736,406.713409 189.155304,388.712830 
	C188.022964,375.659180 187.083252,362.588776 185.942017,349.535950 
	C184.411682,332.032776 182.731232,314.542694 181.188477,297.040558 
	C180.052475,284.153015 179.087646,271.250397 177.949738,258.363037 
	C176.404343,240.860794 174.763718,223.366974 173.174942,205.868530 
	C173.069717,204.709579 173.038681,203.542725 173.005402,202.378601 
	C172.749435,193.427261 172.902863,193.618729 182.017883,192.892929 
	C199.200226,191.524750 216.343750,189.676575 233.514999,188.158875 
	C246.731232,186.990753 259.964111,186.009262 273.191681,184.971283 
	C282.452240,184.244598 291.716278,183.562576 301.472351,183.329559 
	C301.308716,196.022690 300.682709,208.248657 299.985107,220.470535 
	C299.344269,231.698746 298.651825,242.924194 297.936676,254.147964 
	C296.643677,274.440979 295.316772,294.731842 294.004028,315.023590 
	C288.682678,315.075226 283.361359,315.126892 277.432159,314.856171 
	C271.988464,302.247803 262.977264,295.014374 249.850296,294.343445 
	C238.041168,293.739868 228.672134,299.038605 222.608231,309.406097 
	C216.486984,319.871674 215.845444,337.797699 233.155457,349.926086 
z"/>
<path fill="#104E8B" opacity="1.000000" stroke="none" 
	d="
M324.999939,456.009766 
	C333.663239,465.202545 342.326538,474.395325 351.378906,484.000916 
	C359.987427,475.379120 367.897888,468.281433 374.784973,460.300659 
	C380.405151,453.787964 386.598297,450.579193 395.547974,452.175842 
	C396.932129,464.451416 397.821808,476.665497 398.803070,488.872223 
	C399.824554,501.579224 400.925690,514.279846 402.009216,526.981812 
	C402.656311,534.567871 403.300140,542.154541 404.015350,549.734314 
	C404.439911,554.233826 402.439972,555.758423 397.993988,556.107300 
	C380.509308,557.479248 363.057190,559.261108 345.586792,560.821350 
	C336.681946,561.616638 327.763916,562.264771 318.441498,562.543701 
	C318.686523,554.028259 319.466217,545.956238 319.962830,537.866760 
	C320.471100,529.587097 320.552826,521.280884 321.084320,513.003174 
	C322.304504,493.999908 323.684662,475.006927 324.999939,456.009766 
z"/>
<path fill="#104E8B" opacity="1.000000" stroke="none" 
	d="
M383.085327,314.501160 
	C367.039978,315.018036 350.980072,315.077240 334.450867,314.623566 
	C334.648224,304.390533 335.415619,294.675964 335.957428,284.948853 
	C336.729828,271.081085 337.318390,257.203125 338.023315,243.331451 
	C338.316895,237.555115 338.698456,231.783142 339.056580,226.010208 
	C340.028076,210.349579 341.008453,194.689484 341.985291,179.029175 
	C349.897003,178.335068 357.811829,177.673813 365.719269,176.934143 
	C370.218048,176.513306 371.744873,178.526535 372.086060,182.965073 
	C373.480591,201.107101 375.271118,219.218323 376.839783,237.347473 
	C377.966797,250.372620 378.976044,263.407959 380.032562,276.439209 
	C381.048828,288.973694 382.058319,301.508698 383.085327,314.501160 
z"/>
<path fill="#0C5CB1" opacity="1.000000" stroke="none" 
	d="
M341.543274,179.008667 
	C341.008453,194.689484 340.028076,210.349579 339.056580,226.010208 
	C338.698456,231.783142 338.316895,237.555115 338.023315,243.331451 
	C337.318390,257.203125 336.729828,271.081085 335.957428,284.948853 
	C335.415619,294.675964 334.648224,304.390533 333.983276,314.574585 
	C320.969391,315.060028 307.953796,315.081573 294.471100,315.063354 
	C295.316772,294.731842 296.643677,274.440979 297.936676,254.147964 
	C298.651825,242.924194 299.344269,231.698746 299.985107,220.470535 
	C300.682709,208.248657 301.308716,196.022690 301.930054,183.324341 
	C310.530548,181.909836 319.162445,180.926117 327.805054,180.047165 
	C332.227295,179.597427 336.668610,179.335159 341.543274,179.008667 
z"/>
<path fill="#0C5CB1" opacity="1.000000" stroke="none" 
	d="
M324.835327,455.691528 
	C323.684662,475.006927 322.304504,493.999908 321.084320,513.003174 
	C320.552826,521.280884 320.471100,529.587097 319.962830,537.866760 
	C319.466217,545.956238 318.686523,554.028259 318.001648,562.524414 
	C304.962097,564.018372 291.951996,565.095825 278.483887,566.169983 
	C279.328033,547.851562 280.635620,529.536743 281.928802,511.221008 
	C282.290161,506.103149 282.676147,500.985718 282.934418,495.862213 
	C283.651825,481.629944 284.307953,467.394592 284.973480,452.721008 
	C296.276947,452.216431 307.598480,451.995972 318.910309,452.235413 
	C320.851715,452.276520 322.751648,454.277588 324.835327,455.691528 
z"/>
<path fill="#027CFF" opacity="1.000000" stroke="none" 
	d="
M444.517151,452.035065 
	C438.005707,464.103271 431.027313,476.191956 423.941986,488.610779 
	C417.350769,497.281097 410.866516,505.621246 404.104797,514.210327 
	C402.907379,505.566895 401.936462,496.679382 401.087219,487.780334 
	C400.598358,482.657776 400.306305,477.516479 400.246399,471.726135 
	C404.033417,464.717957 407.499756,458.367218 410.966095,452.016418 
	C421.994110,452.029480 433.022156,452.042511 444.517151,452.035065 
z"/>
<path fill="#4C5B60" opacity="1.000000" stroke="none" 
	d="
M253.990356,169.942291 
	C265.782745,168.938461 277.126312,167.855835 288.490112,167.063797 
	C289.872284,166.967453 291.363434,168.434769 292.804077,169.177399 
	C291.377655,170.114624 290.023804,171.717743 288.513153,171.882355 
	C277.682892,173.062637 266.821014,173.953751 255.968094,174.924484 
	C255.143066,174.998276 254.230469,175.207779 253.495697,174.955215 
	C251.691055,174.334961 249.966476,173.481705 248.209686,172.722168 
	C249.989014,171.798660 251.768341,170.875153 253.990356,169.942291 
z"/>
<path fill="#E1E1E1" opacity="1.000000" stroke="none" 
	d="
M410.504517,452.029785 
	C407.499756,458.367218 404.033417,464.717957 400.281860,471.308990 
	C399.334930,465.380066 398.673279,459.210876 397.980408,452.627808 
	C401.980438,452.157013 406.011688,452.100067 410.504517,452.029785 
z"/>
<path fill="#FEFEFF" opacity="1.000000" stroke="none" 
	d="
M438.349915,345.794037 
	C438.587341,347.409760 439.028168,349.025085 439.031494,350.641296 
	C439.077240,372.736542 438.996796,394.832214 439.107697,416.927002 
	C439.136353,422.640533 436.866577,426.445282 430.950806,428.554016 
	C430.291901,428.837067 430.131836,428.883911 429.971741,428.930786 
	C401.357635,428.879730 372.743530,428.813721 344.129395,428.782501 
	C322.167633,428.758514 300.205841,428.786041 278.244049,428.774689 
	C270.559082,428.770721 267.777100,426.777100 265.256958,418.876678 
	C265.129883,395.083374 265.124695,372.073517 265.319550,348.846100 
	C266.318146,348.064056 267.116730,347.499573 268.301025,346.953674 
	C269.788116,347.314484 270.932434,347.557556 271.984558,348.013458 
	C294.688110,357.851776 317.418121,367.630554 340.057373,377.614960 
	C348.388763,381.289337 356.593079,380.929626 364.706390,377.550018 
	C375.743500,372.952454 386.611267,367.950165 397.590698,363.211792 
	C411.156158,357.357422 424.761688,351.595764 438.349915,345.794037 
z"/>
<path fill="#E6E6E6" opacity="1.000000" stroke="none" 
	d="
M438.250336,345.451172 
	C424.761688,351.595764 411.156158,357.357422 397.590698,363.211792 
	C386.611267,367.950165 375.743500,372.952454 364.706390,377.550018 
	C356.593079,380.929626 348.388763,381.289337 340.057373,377.614960 
	C317.418121,367.630554 294.688110,357.851776 271.984558,348.013458 
	C270.932434,347.557556 269.788116,347.314484 268.451447,346.658203 
	C270.314880,343.852722 272.413574,341.361328 274.512268,338.869904 
	C307.953491,338.917694 341.394714,338.973663 374.835938,339.009949 
	C392.472992,339.029114 410.110168,339.042480 427.747131,338.995331 
	C432.485901,338.982666 436.201111,340.485077 438.250336,345.451172 
z"/>
<path fill="#FD5652" opacity="1.000000" stroke="none" 
	d="
M274.657715,338.515015 
	C272.413574,341.361328 270.314880,343.852722 268.065735,346.639587 
	C267.116730,347.499573 266.318146,348.064056 265.018890,348.891418 
	C264.029907,349.513092 263.541595,349.871918 263.053314,350.230743 
	C253.295456,355.007263 243.566452,355.242371 233.513718,349.985687 
	C215.845444,337.797699 216.486984,319.871674 222.608231,309.406097 
	C228.672134,299.038605 238.041168,293.739868 249.850296,294.343445 
	C262.977264,295.014374 271.988464,302.247803 276.973145,314.878479 
	C278.945007,323.131256 278.609222,330.821075 274.657715,338.515015 
M254.090057,317.518860 
	C254.090057,313.749481 254.090057,309.980103 254.090057,304.359711 
	C250.884125,306.363556 248.846252,307.468353 247.003845,308.836395 
	C245.159607,310.205811 243.732681,312.312134 241.727463,313.251587 
	C238.137268,314.933594 237.437256,317.350250 238.734772,321.294159 
	C241.513229,319.909790 244.209732,318.566254 247.163071,317.094757 
	C247.163071,321.421906 247.163055,325.395203 247.163055,329.368500 
	C247.163055,333.471710 247.163071,337.574890 247.163071,341.704468 
	C249.728729,341.704468 251.765533,341.704468 254.090103,341.704468 
	C254.090103,333.733887 254.090103,326.122803 254.090057,317.518860 
z"/>
<path fill="#4F99FF" opacity="1.000000" stroke="none" 
	d="
M263.233368,350.591370 
	C263.541595,349.871918 264.029907,349.513092 264.818848,349.108948 
	C265.124695,372.073517 265.129883,395.083374 265.095947,418.563965 
	C264.703308,417.163635 264.050079,415.293701 264.042633,413.421234 
	C263.966827,394.384979 264.011841,375.348267 263.970947,356.311798 
	C263.967102,354.524780 263.607727,352.738586 263.233368,350.591370 
z"/>
<path fill="#4F99FF" opacity="1.000000" stroke="none" 
	d="
M430.075928,429.109467 
	C430.131836,428.883911 430.291901,428.837067 430.701874,428.779297 
	C430.694580,428.941620 430.437347,429.114899 430.075928,429.109467 
z"/>
<path fill="#F5F5F5" opacity="1.000000" stroke="none" 
	d="
M541.913696,194.978485 
	C543.972900,194.677856 545.920654,193.392288 546.031616,196.761444 
	C546.280396,204.319000 546.280640,211.774078 541.000183,217.975861 
	C536.740967,222.978317 531.393738,225.719315 524.800476,225.920532 
	C520.977844,209.566879 529.963013,196.684387 541.913696,194.978485 
z"/>
<path fill="#F5F5F5" opacity="1.000000" stroke="none" 
	d="
M544.061768,162.078308 
	C548.107666,167.724655 546.548828,179.854691 540.477844,185.721893 
	C537.189697,188.899612 532.597107,190.899475 528.315369,192.807632 
	C526.028564,193.826736 523.572144,192.956863 524.010132,189.462524 
	C524.601562,184.744400 524.519836,179.789032 526.012939,175.369965 
	C528.762634,167.231720 535.398193,163.358246 544.061768,162.078308 
z"/>
<path fill="#FCFCFD" opacity="1.000000" stroke="none" 
	d="
M254.090088,318.015289 
	C254.090103,326.122803 254.090103,333.733887 254.090103,341.704468 
	C251.765533,341.704468 249.728729,341.704468 247.163071,341.704468 
	C247.163071,337.574890 247.163055,333.471710 247.163055,329.368500 
	C247.163055,325.395203 247.163071,321.421906 247.163071,317.094757 
	C244.209732,318.566254 241.513229,319.909790 238.734772,321.294159 
	C237.437256,317.350250 238.137268,314.933594 241.727463,313.251587 
	C243.732681,312.312134 245.159607,310.205811 247.003845,308.836395 
	C248.846252,307.468353 250.884125,306.363556 254.090057,304.359711 
	C254.090057,309.980103 254.090057,313.749481 254.090088,318.015289 
z"/>
</svg>