<svg xmlns="http://www.w3.org/2000/svg" version="1.1" viewBox="88.479 145.15200000000002 868.32 797.04" style="max-height: 500px" width="868.32" height="797.04">
<path transform="translate(598.5625,492.98828125)" fill="#090E37" d="M0 0 C3.3542882 1.39224462 6.12237561 3.40060032 9 5.57421875 C10.25269168 6.49644374 11.50661716 7.41699497 12.76171875 8.3359375 C13.38353027 8.79274902 14.0053418 9.24956055 14.64599609 9.72021484 C17.14894092 11.52459998 19.72551551 13.20570968 22.3125 14.88671875 C29.94331568 19.91189005 37.17143274 25.47918023 44.4375 31.01171875 C43.85813213 36.0260708 43.06679297 40.21968061 41.4375 45.01171875 C41.12049942 46.54028521 40.82278674 48.07290917 40.53857422 49.60791016 C39.54182797 54.69448672 38.22613742 59.62924658 36.7578125 64.59765625 C36.50377655 65.46186188 36.2497406 66.3260675 35.98800659 67.21646118 C35.45430293 69.02379118 34.91807331 70.83037707 34.37939453 72.63623047 C33.55938924 75.39719268 32.75815392 78.16319606 31.95703125 80.9296875 C31.43343671 82.69435057 30.90873611 84.45868591 30.3828125 86.22265625 C30.1472464 87.04559174 29.9116803 87.86852722 29.66897583 88.71640015 C28.0240905 94.12852338 26.33722962 97.33993251 21.27783203 100.25683594 C20.50810059 100.60391602 19.73836914 100.95099609 18.9453125 101.30859375 C18.08309082 101.70554443 17.22086914 102.10249512 16.33251953 102.51147461 C14.96135986 103.13034546 14.96135986 103.13034546 13.5625 103.76171875 C7.40924564 106.60847397 1.39198508 109.48438999 -4.4375 112.94921875 C-11.67217599 117.22703805 -19.22682643 120.76695119 -26.83349609 124.33178711 C-27.78949707 124.78046143 -28.74549805 125.22913574 -29.73046875 125.69140625 C-30.58922607 126.09085449 -31.4479834 126.49030273 -32.33276367 126.90185547 C-34.75506988 128.04923015 -34.75506988 128.04923015 -37.5625 130.01171875 C-42.39217996 129.9019533 -45.02913497 128.16849094 -48.703125 125.33984375 C-50.63057484 123.96309386 -52.54904353 122.96217182 -54.6875 121.94921875 C-58.03212495 120.3549909 -60.76052797 118.46344428 -63.5625 116.01171875 C-62.85631953 113.37731501 -62.14176188 110.74574648 -61.4140625 108.1171875 C-60.86783658 106.12521682 -60.34008414 104.12803423 -59.8359375 102.125 C-59.60132813 101.24199219 -59.36671875 100.35898437 -59.125 99.44921875 C-58.92003906 98.64355469 -58.71507812 97.83789062 -58.50390625 97.0078125 C-57.5625 95.01171875 -57.5625 95.01171875 -55.8984375 93.47265625 C-52.6942744 92.84039664 -51.10174017 94.13323837 -48.47851562 95.88867188 C-47.56102539 96.53739258 -47.56102539 96.53739258 -46.625 97.19921875 C-45.40789222 98.02654228 -44.19045016 98.85337427 -42.97265625 99.6796875 C-40.94522137 101.06022348 -38.93502529 102.45645194 -36.93359375 103.875 C-33.90129855 105.3287033 -32.77587464 104.88009637 -29.5625 104.01171875 C-27.67033578 103.21692435 -25.80265756 102.36242222 -23.95703125 101.46484375 C-22.35698242 100.69140625 -22.35698242 100.69140625 -20.72460938 99.90234375 C-19.61923828 99.3609375 -18.51386719 98.81953125 -17.375 98.26171875 C-16.28896484 97.73578125 -15.20292969 97.20984375 -14.08398438 96.66796875 C-11.92589944 95.62068189 -9.77500945 94.55842983 -7.63183594 93.48095703 C-4.5625 92.01171875 -4.5625 92.01171875 -1.70410156 90.97607422 C2.42585901 89.38051189 4.78342757 88.17789281 6.99194336 84.24023438 C8.31258477 80.73915493 9.34735406 77.25170627 10.3125 73.63671875 C10.67980225 72.3827832 11.04710449 71.12884766 11.42553711 69.83691406 C12.46965819 66.23829636 13.46121926 62.62923892 14.4375 59.01171875 C14.91948018 57.28485089 15.4023842 55.55824026 15.88671875 53.83203125 C16.78808956 50.57059968 17.63784029 47.29982999 18.4375 44.01171875 C17.58478516 43.61339844 17.58478516 43.61339844 16.71484375 43.20703125 C14.30280327 41.9410203 12.20496013 40.48559372 10 38.88671875 C9.12601563 38.27828125 8.25203125 37.66984375 7.3515625 37.04296875 C5.28977411 35.60579722 3.24434602 34.14502094 1.2109375 32.66796875 C-4.33970596 28.59203674 -4.33970596 28.59203674 -10.828125 26.9296875 C-13.26497771 27.69701707 -15.31435053 28.79296697 -17.5625 30.01171875 C-19.41665418 30.79220241 -21.27121451 31.57180211 -23.13085938 32.33911133 C-30.22727998 35.30690451 -37.04210292 38.72595902 -43.77783203 42.43432617 C-46.35987668 43.85548184 -48.75743333 45.07669653 -51.5625 46.01171875 C-52.71055963 48.89116073 -53.65525753 51.67815852 -54.5390625 54.640625 C-54.82150314 55.55218353 -55.10394379 56.46374207 -55.39494324 57.40292358 C-56.33766284 60.45651083 -57.26256342 63.51520225 -58.1875 66.57421875 C-58.84756081 68.72564597 -59.50863126 70.87676366 -60.1706543 73.02758789 C-61.94790618 78.81424248 -63.70906117 84.60567336 -65.46588135 90.39855957 C-66.93071993 95.2249365 -68.40237026 100.04922639 -69.873703 104.87362671 C-71.71034253 110.8979502 -73.54286263 116.92352479 -75.375 122.94921875 C-75.73485992 124.13219543 -76.09471985 125.31517212 -76.46548462 126.53399658 C-79.93898399 137.95865198 -83.39766097 149.38547464 -86.71875 160.85546875 C-87.39678655 163.17533813 -88.07600419 165.49485779 -88.75570679 167.8142395 C-89.35676768 169.88636384 -89.93918388 171.96310869 -90.52075195 174.04077148 C-90.87097412 175.23645752 -91.22119629 176.43214355 -91.58203125 177.6640625 C-91.87182861 178.68491943 -92.16162598 179.70577637 -92.46020508 180.75756836 C-93.5625 183.01171875 -93.5625 183.01171875 -95.48632812 183.96777344 C-99.11326897 184.04454312 -101.54855193 181.49315546 -104.25 179.32421875 C-104.84361328 178.87626953 -105.43722656 178.42832031 -106.04882812 177.96679688 C-110.28606935 174.64754405 -110.28606935 174.64754405 -111.33782959 172.22836304 C-111.64987652 169.14964409 -110.87368345 166.88633507 -109.95800781 163.93212891 C-109.57813217 162.68889359 -109.19825653 161.44565826 -108.80686951 160.16474915 C-108.37661934 158.79337484 -107.94619904 157.4220539 -107.515625 156.05078125 C-107.07165241 154.61068563 -106.62860398 153.17030482 -106.18641663 151.72966003 C-104.98901413 147.83735009 -103.77929935 143.94896799 -102.567173 140.06122208 C-101.30776007 136.01516393 -100.05886862 131.96586316 -98.80932617 127.91674805 C-97.27033741 122.93179154 -95.73027649 117.94717773 -94.18522644 112.96409607 C-90.97112167 102.59555253 -87.78962056 92.21772639 -84.64269638 81.82859802 C-83.98045787 79.64293609 -83.31722523 77.4575786 -82.65359497 75.27233887 C-82.4395785 74.56760311 -82.22556202 73.86286736 -82.0050602 73.13677597 C-81.58075733 71.73970672 -81.15642983 70.34264494 -80.73207664 68.94559097 C-79.70353867 65.55820255 -78.67712288 62.17019851 -77.65515137 58.78082275 C-76.52354894 55.02871575 -75.38131648 51.27989076 -74.23828125 47.53125 C-73.7428054 45.87841255 -73.7428054 45.87841255 -73.23731995 44.19218445 C-72.92737595 43.18106094 -72.61743195 42.16993744 -72.2980957 41.12817383 C-72.03358109 40.25502029 -71.76906647 39.38186676 -71.49653625 38.48225403 C-69.57589221 33.40213123 -67.70039054 30.62093781 -62.73046875 28.36328125 C-61.77374268 27.91871582 -60.8170166 27.47415039 -59.83129883 27.01611328 C-58.81447021 26.56091309 -57.7976416 26.10571289 -56.75 25.63671875 C-54.65316925 24.66900072 -52.55681324 23.70025339 -50.4609375 22.73046875 C-49.44483398 22.26511719 -48.42873047 21.79976562 -47.38183594 21.3203125 C-43.83385634 19.67351906 -40.35612104 17.92030436 -36.875 16.13671875 C-31.92880681 13.63702972 -26.92900329 11.4702167 -21.78515625 9.4140625 C-19.26467421 8.31727092 -16.86585733 7.16106082 -14.43359375 5.890625 C-13.36310791 5.33362915 -13.36310791 5.33362915 -12.27099609 4.76538086 C-10.86760052 4.027281 -9.47041427 3.27722033 -8.08056641 2.51391602 C-5.33106526 1.06900054 -3.13761222 0.01434884 0 0 Z"/>
<path transform="translate(759,497)" fill="#142757" d="M0 0 C6.65279844 -0.05101786 13.30554577 -0.0858662 19.95849609 -0.10986328 C22.2182809 -0.11987519 24.4780529 -0.13348872 26.73779297 -0.15087891 C29.99970678 -0.17533966 33.26144819 -0.18653153 36.5234375 -0.1953125 C38.02093033 -0.21079636 38.02093033 -0.21079636 39.54867554 -0.22659302 C50.30468309 -0.22828512 59.35421035 1.26224669 68 8 C74.34482256 14.34482256 76.03261953 20.74439791 76.25 29.5 C76.02555075 38.56525593 73.75523313 45.81728779 68 53 C58.93851133 61 58.93851133 61 54 61 C57.44456717 68.15410105 61.38353748 74.93871595 65.68359375 81.61328125 C67 84 67 84 67 87 C56.44 87 45.88 87 35 87 C28.33333333 74.77777778 28.33333333 74.77777778 25.46875 68.6796875 C23.3135463 66.21495987 21.15928449 66.28641865 18 66 C17.81824219 67.2684375 17.81824219 67.2684375 17.6328125 68.5625 C17.46523438 69.696875 17.29765625 70.83125 17.125 72 C16.96257813 73.11375 16.80015625 74.2275 16.6328125 75.375 C15.94955888 79.28894667 14.96362716 83.14549137 14 87 C3.77 87 -6.46 87 -17 87 C-13.56528747 68.76960272 -9.93293967 50.5817465 -6.27490234 32.39501953 C-5.81496241 30.10749943 -5.35539611 27.81990417 -4.89624023 25.53222656 C-4.48131791 23.46498228 -4.06553913 21.39790961 -3.64868164 19.33105469 C-3.46039795 18.39293945 -3.27211426 17.45482422 -3.078125 16.48828125 C-2.91731445 15.68946533 -2.75650391 14.89064941 -2.59082031 14.06762695 C-1.68903225 9.3854092 -0.84717534 4.69236409 0 0 Z M27 23 C24.56953809 29.32837252 23.40939975 35.23784552 23 42 C25.54348425 42.13593443 28.07961496 42.23448907 30.625 42.3125 C31.33785156 42.35439453 32.05070313 42.39628906 32.78515625 42.43945312 C36.77351612 42.53092927 39.26813703 42.21649436 42.453125 39.69921875 C45.23123181 37.1431904 45.23123181 37.1431904 46.125 33.5 C46.25572369 29.98412252 46.25572369 29.98412252 44.5 27.1875 C39.32364004 22.65818504 33.52469665 22.77106328 27 23 Z"/>
<path transform="translate(853.775634765625,496.886474609375)" fill="#142756" d="M0 0 C1.20970459 0.00523682 2.41940918 0.01047363 3.66577148 0.01586914 C4.97094727 0.0190918 6.27612305 0.02231445 7.62084961 0.02563477 C9.00952213 0.03399138 10.39819401 0.04245634 11.78686523 0.05102539 C13.17944179 0.05603873 14.57202005 0.06060193 15.96459961 0.06469727 C19.38456394 0.07653105 22.80444367 0.09301659 26.22436523 0.11352539 C26.45051539 6.2761172 25.66586422 11.63325258 24.22436523 17.61352539 C23.93819336 18.8471582 23.93819336 18.8471582 23.64624023 20.10571289 C23.1800922 22.11014946 22.70333548 24.11211402 22.22436523 26.11352539 C25.98591261 24.85967626 27.49627721 22.97152237 30.22436523 20.11352539 C31.85273262 18.40941999 33.51206275 16.73327098 35.22436523 15.11352539 C35.88436523 15.11352539 36.54436523 15.11352539 37.22436523 15.11352539 C37.22436523 14.45352539 37.22436523 13.79352539 37.22436523 13.11352539 C38.76342773 11.59790039 38.76342773 11.59790039 40.84936523 9.86352539 C43.82312284 7.40736738 43.82312284 7.40736738 46.47521973 4.62173462 C49.32380032 1.32003947 50.67394594 0.20980563 55.1184082 -0.56762695 C56.56813687 -0.56668875 58.01811017 -0.53347128 59.46655273 -0.47241211 C60.61911057 -0.45967758 60.61911057 -0.45967758 61.79495239 -0.44668579 C64.23122878 -0.413296 66.66410258 -0.33805823 69.09936523 -0.26147461 C70.75817133 -0.23135572 72.41702972 -0.20398327 74.07592773 -0.17944336 C78.12670302 -0.11355399 82.17495884 -0.01014481 86.22436523 0.11352539 C84.4092374 4.08457841 81.83073754 6.56882245 78.59936523 9.42602539 C78.0631958 9.9073291 77.52702637 10.38863281 76.97460938 10.88452148 C75.89741098 11.84952853 74.81777366 12.81182071 73.7355957 13.77124023 C72.40209838 14.95566161 71.07990803 16.15278684 69.75952148 17.35180664 C64.60738333 21.98585269 64.60738333 21.98585269 61.22436523 23.11352539 C60.72936523 24.59852539 60.72936523 24.59852539 60.22436523 26.11352539 C59.56436523 26.11352539 58.90436523 26.11352539 58.22436523 26.11352539 C58.22436523 26.77352539 58.22436523 27.43352539 58.22436523 28.11352539 C56.65014648 29.69946289 56.65014648 29.69946289 54.53686523 31.48852539 C53.44825195 32.4147168 53.44825195 32.4147168 52.33764648 33.35961914 C49.98987411 35.30814002 47.62871749 37.23512519 45.22436523 39.11352539 C46.48711984 44.03826834 48.76704685 47.55070256 51.60717773 51.66821289 C53.17176105 54.0339838 54.52206995 56.42065737 55.84936523 58.92602539 C59.3820978 65.57364043 63.32475673 71.9708518 67.26196289 78.38427734 C67.77291504 79.22434326 68.28386719 80.06440918 68.81030273 80.92993164 C69.27484863 81.68733643 69.73939453 82.44474121 70.21801758 83.22509766 C71.22436523 85.11352539 71.22436523 85.11352539 71.22436523 87.11352539 C41.9870981 90.45625675 41.9870981 90.45625675 34.40258789 85.13305664 C30.11305842 80.19794581 27.55585415 74.55793223 25.2253418 68.49487305 C24.00802515 65.59884706 22.36770841 63.39877942 20.22436523 61.11352539 C19.44061523 61.93852539 18.65686523 62.76352539 17.84936523 63.61352539 C15.22436523 66.11352539 15.22436523 66.11352539 13.22436523 66.11352539 C13.22436523 68.42352539 13.22436523 70.73352539 13.22436523 73.11352539 C11.73936523 80.04352539 11.73936523 80.04352539 10.22436523 87.11352539 C0.32436523 87.11352539 -9.57563477 87.11352539 -19.77563477 87.11352539 C-19.77563477 79.24750087 -19.77563477 79.24750087 -18.82250977 75.35571289 C-18.61770996 74.49510254 -18.41291016 73.63449219 -18.2019043 72.74780273 C-17.97873535 71.83724121 -17.75556641 70.92667969 -17.52563477 69.98852539 C-15.84091622 62.84413648 -14.24308339 55.70537684 -12.90063477 48.48852539 C-12.67428345 47.27640381 -12.67428345 47.27640381 -12.44335938 46.03979492 C-12.10019685 44.20017131 -11.75736813 42.3604854 -11.41479492 40.52075195 C-10.15330624 33.79602466 -8.86435582 27.07660073 -7.56829834 20.35845947 C-7.24859117 18.69725824 -6.93043106 17.03575852 -6.61383057 15.3739624 C-6.16744888 13.03123544 -5.71623858 10.6894865 -5.26391602 8.34790039 C-5.12866013 7.63225922 -4.99340424 6.91661804 -4.85404968 6.17929077 C-3.67986439 0.15050901 -3.67986439 0.15050901 0 0 Z"/>
<path transform="translate(130,497)" fill="#142757" d="M0 0 C23.76 0 47.52 0 72 0 C70 13 70 13 67 23 C53.47 23 39.94 23 26 23 C25.34 25.97 24.68 28.94 24 32 C35.88 32 47.76 32 60 32 C59 43 59 43 56 54 C44.12 54.33 32.24 54.66 20 55 C19.34 57.97 18.68 60.94 18 64 C32.19 64 46.38 64 61 64 C58 80 58 80 56 87 C32.24 87 8.48 87 -16 87 C-16 81.65955565 -15.72917793 77.90469651 -14.609375 72.8359375 C-14.46484894 72.17047409 -14.32032288 71.50501068 -14.17141724 70.81938171 C-13.86308084 69.40244866 -13.55161718 67.986193 -13.23724365 66.57058716 C-12.4112454 62.848525 -11.60954749 59.12121051 -10.8046875 55.39453125 C-10.64553864 54.6605864 -10.48638977 53.92664154 -10.32241821 53.17045593 C-8.37102521 44.14547012 -6.69156078 35.07804284 -5 26 C-3.35 17.42 -1.7 8.84 0 0 Z"/>
<path transform="translate(241,497)" fill="#142757" d="M0 0 C2.98095703 -0.34057617 2.98095703 -0.34057617 6.7578125 -0.29296875 C7.42086395 -0.28872391 8.08391541 -0.28447906 8.76705933 -0.28010559 C10.88678441 -0.26329971 13.00556188 -0.22564701 15.125 -0.1875 C16.56118419 -0.17245549 17.99738328 -0.15876668 19.43359375 -0.14648438 C22.95603764 -0.1133909 26.47792636 -0.0615968 30 0 C31.61542657 3.748417 32.64042069 7.40665808 33.515625 11.390625 C33.79422363 12.64504395 34.07282227 13.89946289 34.35986328 15.19189453 C34.50490295 15.85336487 34.64994263 16.51483521 34.79937744 17.1963501 C35.56775114 20.69810681 36.35061652 24.19662184 37.1328125 27.6953125 C37.29026947 28.40078217 37.44772644 29.10625183 37.60995483 29.83309937 C39.05286633 36.27877426 40.5724463 42.70485673 42.125 49.125 C42.36726318 50.12724609 42.60952637 51.12949219 42.85913086 52.16210938 C43.33612718 54.13259872 43.81357523 56.10297877 44.29150391 58.07324219 C45.47521764 62.96309756 46.64488452 67.85627973 47.8125 72.75 C48.01955566 73.61383301 48.22661133 74.47766602 48.43994141 75.36767578 C48.63120605 76.16931152 48.8224707 76.97094727 49.01953125 77.796875 C49.18557861 78.49135742 49.35162598 79.18583984 49.52270508 79.90136719 C50.05869834 82.25809253 50.52600539 84.63002696 51 87 C40.77 87 30.54 87 20 87 C18 79 18 79 18 72 C7.44 72 -3.12 72 -14 72 C-14.66 73.32 -15.32 74.64 -16 76 C-17.98 79.63 -19.96 83.26 -22 87 C-32.56 87 -43.12 87 -54 87 C-53.07426274 83.29705096 -52.23234893 81.53711285 -50.1875 78.4375 C-49.55328125 77.46296875 -48.9190625 76.4884375 -48.265625 75.484375 C-47.90662109 74.93458984 -47.54761719 74.38480469 -47.17773438 73.81835938 C-44.89669809 70.29656041 -42.67273713 66.73846567 -40.4375 63.1875 C-34.7566702 54.18287691 -29.04371923 45.19884525 -23.32421875 36.21875 C-22.781604 35.36643799 -22.23898926 34.51412598 -21.67993164 33.63598633 C-20.51408672 31.80665519 -19.34648154 29.97844516 -18.17749023 28.15112305 C-14.2364477 21.98214524 -10.43093855 15.75476663 -6.69921875 9.45703125 C-6.13847656 8.64621094 -5.57773438 7.83539063 -5 7 C-4.34 7 -3.68 7 -3 7 C-2.814375 6.1028125 -2.814375 6.1028125 -2.625 5.1875 C-2 3 -2 3 0 0 Z M9 31 C7.51762714 33.60238792 6.03899869 36.20678228 4.5625 38.8125 C4.14162109 39.55048828 3.72074219 40.28847656 3.28710938 41.04882812 C2.68286133 42.11713867 2.68286133 42.11713867 2.06640625 43.20703125 C1.69459229 43.8616333 1.32277832 44.51623535 0.93969727 45.19067383 C-0.1354657 47.14536412 -0.1354657 47.14536412 -1 50 C3.62 50 8.24 50 13 50 C12.27637073 43.60794144 11.19656638 37.31972924 10 31 C9.67 31 9.34 31 9 31 Z"/>
<path transform="translate(689,497)" fill="#142757" d="M0 0 C2.98095703 -0.34057617 2.98095703 -0.34057617 6.7578125 -0.29296875 C7.42086395 -0.28872391 8.08391541 -0.28447906 8.76705933 -0.28010559 C10.88678441 -0.26329971 13.00556188 -0.22564701 15.125 -0.1875 C16.56118419 -0.17245549 17.99738328 -0.15876668 19.43359375 -0.14648438 C22.95603764 -0.1133909 26.47792636 -0.0615968 30 0 C31.61542657 3.748417 32.64042069 7.40665808 33.515625 11.390625 C33.79422363 12.64504395 34.07282227 13.89946289 34.35986328 15.19189453 C34.50490295 15.85336487 34.64994263 16.51483521 34.79937744 17.1963501 C35.56775114 20.69810681 36.35061652 24.19662184 37.1328125 27.6953125 C37.29026947 28.40078217 37.44772644 29.10625183 37.60995483 29.83309937 C39.05286633 36.27877426 40.5724463 42.70485673 42.125 49.125 C42.36726318 50.12724609 42.60952637 51.12949219 42.85913086 52.16210938 C43.33612718 54.13259872 43.81357523 56.10297877 44.29150391 58.07324219 C45.47521764 62.96309756 46.64488452 67.85627973 47.8125 72.75 C48.01955566 73.61383301 48.22661133 74.47766602 48.43994141 75.36767578 C48.63120605 76.16931152 48.8224707 76.97094727 49.01953125 77.796875 C49.18557861 78.49135742 49.35162598 79.18583984 49.52270508 79.90136719 C50.05869834 82.25809253 50.52600539 84.63002696 51 87 C40.77 87 30.54 87 20 87 C18 79 18 79 18 72 C7.44 72 -3.12 72 -14 72 C-14.66 73.32 -15.32 74.64 -16 76 C-17.98 79.63 -19.96 83.26 -22 87 C-32.56 87 -43.12 87 -54 87 C-53.06931202 83.27724809 -52.12360764 81.3373639 -50.0859375 78.18359375 C-49.48910156 77.25353516 -48.89226563 76.32347656 -48.27734375 75.36523438 C-47.33568359 73.91600586 -47.33568359 73.91600586 -46.375 72.4375 C-45.77042969 71.49841797 -45.16585937 70.55933594 -44.54296875 69.59179688 C-43.31403269 67.68288446 -42.08321448 65.77518253 -40.85058594 63.86865234 C-35.84734562 56.11296979 -30.92363736 48.30636341 -26 40.5 C-22.23759014 34.53682529 -18.46496634 28.58078287 -14.66015625 22.64453125 C-13.37159324 20.59192617 -12.11338511 18.52965594 -10.87109375 16.44921875 C-10.50790039 15.84513184 -10.14470703 15.24104492 -9.77050781 14.61865234 C-8.74092076 12.90159079 -7.71983221 11.17944178 -6.69921875 9.45703125 C-6.13847656 8.64621094 -5.57773437 7.83539063 -5 7 C-4.34 7 -3.68 7 -3 7 C-2.814375 6.1028125 -2.814375 6.1028125 -2.625 5.1875 C-2 3 -2 3 0 0 Z M9 31 C7.51762714 33.60238792 6.03899869 36.20678228 4.5625 38.8125 C4.14162109 39.55048828 3.72074219 40.28847656 3.28710938 41.04882812 C2.68286133 42.11713867 2.68286133 42.11713867 2.06640625 43.20703125 C1.69459229 43.8616333 1.32277832 44.51623535 0.93969727 45.19067383 C-0.1354657 47.14536412 -0.1354657 47.14536412 -1 50 C3.62 50 8.24 50 13 50 C12.27637073 43.60794144 11.19656638 37.31972924 10 31 C9.67 31 9.34 31 9 31 Z"/>
<path transform="translate(379,502)" fill="#142656" d="M0 0 C-1.38922902 5.56422782 -3.49282023 10.35450973 -6.125 15.4375 C-6.49753906 16.16904297 -6.87007813 16.90058594 -7.25390625 17.65429688 C-8.16376327 19.43901642 -9.08110863 21.21991509 -10 23 C-12.56140331 22.42409561 -14.43895991 21.77564271 -16.8125 20.5625 C-25.06796562 16.97859376 -34.99094126 15.76060126 -43.4609375 18.98046875 C-45.34208592 19.99916753 -45.34208592 19.99916753 -46 23 C-41.73627457 24.44662113 -37.47682353 25.86913872 -33.15625 27.13671875 C-13.24593054 33.02618558 -13.24593054 33.02618558 -8 41 C-7.34 41.99 -6.68 42.98 -6 44 C-5.1978071 52.38571411 -4.70345501 60.99806591 -10 68 C-10.44730469 68.62261719 -10.89460938 69.24523437 -11.35546875 69.88671875 C-14.6140073 74.05380425 -18.1795983 76.79421461 -23 79 C-23.78761719 79.3609375 -24.57523437 79.721875 -25.38671875 80.09375 C-43.21011699 87.73624848 -65.79424626 84.89226301 -83.515625 78.51171875 C-86 77 -86 77 -86.78588867 74.69580078 C-87.04034108 71.49207965 -86.44891833 70.14803697 -84.91015625 67.35546875 C-84.45576172 66.51435547 -84.00136719 65.67324219 -83.53320312 64.80664062 C-82.80520508 63.51016602 -82.80520508 63.51016602 -82.0625 62.1875 C-81.34030273 60.86202148 -81.34030273 60.86202148 -80.60351562 59.50976562 C-79.41487046 57.33254429 -78.21353194 55.16341812 -77 53 C-73.64198868 53.62837349 -70.92652133 54.40013659 -67.875 55.9375 C-59.26022952 59.86629251 -48.0655838 61.94098681 -38.875 59 C-37.946875 58.505 -37.946875 58.505 -37 58 C-37 56.68 -37 55.36 -37 54 C-38.02738281 53.75765625 -39.05476563 53.5153125 -40.11328125 53.265625 C-50.97380312 50.65857414 -61.42744976 47.95625348 -71 42 C-71 41.34 -71 40.68 -71 40 C-71.66 40 -72.32 40 -73 40 C-77.45563028 34.02967654 -77.38813706 26.63647356 -76.78515625 19.43359375 C-75.35226923 11.5868315 -71.74895888 6.00517567 -65.375 1.25 C-46.84986737 -10.78858767 -19.2671779 -10.15740112 0 0 Z"/>
<path transform="translate(380,497)" fill="#142656" d="M0 0 C4.21742593 -0.12365029 8.43389111 -0.21435665 12.65258789 -0.2746582 C14.08734514 -0.29979524 15.52197441 -0.33391108 16.95629883 -0.37719727 C19.0193637 -0.43789665 21.08073615 -0.46621353 23.14453125 -0.48828125 C25.00621948 -0.52755737 25.00621948 -0.52755737 26.90551758 -0.56762695 C30 0 30 0 31.78710938 2.18554688 C32.18736328 3.11431641 32.58761719 4.04308594 33 5 C33.38502686 5.88405518 33.77005371 6.76811035 34.16674805 7.67895508 C34.52808838 8.61634521 34.88942871 9.55373535 35.26171875 10.51953125 C35.65810547 11.54111328 36.05449219 12.56269531 36.46289062 13.61523438 C37.06907227 15.19788086 37.06907227 15.19788086 37.6875 16.8125 C38.10322266 17.88693359 38.51894531 18.96136719 38.94726562 20.06835938 C39.96896364 22.71068183 40.98638889 25.35456717 42 28 C42.33773437 27.4946875 42.67546875 26.989375 43.0234375 26.46875 C43.46945312 25.8190625 43.91546875 25.169375 44.375 24.5 C44.81585938 23.8503125 45.25671875 23.200625 45.7109375 22.53125 C46.34902344 21.77328125 46.34902344 21.77328125 47 21 C47.66 21 48.32 21 49 21 C49.32677734 20.22849609 49.32677734 20.22849609 49.66015625 19.44140625 C51.55863589 15.98207747 53.98365327 13.01840535 56.4375 9.9375 C56.92798828 9.31294922 57.41847656 8.68839844 57.92382812 8.04492188 C60.6274668 4.6261507 60.6274668 4.6261507 62 3 C62.40782715 2.44473633 62.8156543 1.88947266 63.23583984 1.31738281 C65.99830385 -0.74548126 68.46022418 -0.33594653 71.85546875 -0.29296875 C72.51710526 -0.28872391 73.17874176 -0.28447906 73.86042786 -0.28010559 C75.9698691 -0.26333693 78.07834846 -0.22569099 80.1875 -0.1875 C81.61912681 -0.17245068 83.05076862 -0.1587627 84.48242188 -0.14648438 C87.98859288 -0.1134403 91.49420254 -0.06167167 95 0 C93.38359452 4.35860388 91.16996084 7.47086091 88.125 10.9375 C85.48790293 13.96977037 82.95817336 16.97903307 80.8046875 20.37890625 C80.20914063 21.24386719 79.61359375 22.10882812 79 23 C78.34 23 77.68 23 77 23 C76.61328125 23.82757812 76.61328125 23.82757812 76.21875 24.671875 C74.82036875 27.34314175 73.21236695 29.76851909 71.5 32.25 C70.8915625 33.14203125 70.283125 34.0340625 69.65625 34.953125 C69.1096875 35.62859375 68.563125 36.3040625 68 37 C67.34 37 66.68 37 66 37 C65.73960937 37.56847656 65.47921875 38.13695312 65.2109375 38.72265625 C63.89547256 41.19657903 62.36625331 43.24382498 60.625 45.4375 C60.00367188 46.23285156 59.38234375 47.02820313 58.7421875 47.84765625 C57 50 57 50 54.75 52.375 C49.90675719 59.63986421 49.32328451 69.42018768 48.00170898 77.89331055 C47.51159623 81.03280961 47.00699029 83.97902914 46 87 C35.77 87 25.54 87 15 87 C15.61875 83.9475 16.2375 80.895 16.875 77.75 C17.23180788 75.88827698 17.58754688 74.02634819 17.94140625 72.1640625 C18.50497959 69.27115618 19.13130731 66.58760519 20.02734375 63.7734375 C22.99527798 53.76219665 17.20676466 44.49526128 13.12597656 35.515625 C11.7318815 32.40097724 10.50713952 29.25875408 9.3125 26.0625 C8.04552533 22.71185967 6.75423715 19.37571743 5.40234375 16.05859375 C5.12801514 15.38368896 4.85368652 14.70878418 4.57104492 14.01342773 C3.79556027 12.11172629 3.01512117 10.21204738 2.234375 8.3125 C1.18450155 5.49511809 0.54209835 2.93960028 0 0 Z"/>
<path transform="translate(597,496)" fill="#1D3C6C" d="M0 0 C3.00763244 0.60169145 5.03129344 1.50926777 7.51171875 3.30078125 C8.51259521 4.01621094 8.51259521 4.01621094 9.53369141 4.74609375 C10.24444824 5.26300781 10.95520508 5.77992188 11.6875 6.3125 C13.20959351 7.40240228 14.73173021 8.49224424 16.25390625 9.58203125 C17.03523926 10.14486816 17.81657227 10.70770508 18.62158203 11.28759766 C22.44515402 14.0404753 26.28318978 16.77266008 30.125 19.5 C31.15306763 20.23730347 31.15306763 20.23730347 32.2019043 20.98950195 C36.34422565 23.93351797 40.54757905 26.54827729 45 29 C44.21190421 33.74756501 42.68471562 38.19163639 41.1875 42.75 C38.92804933 49.75025031 37.00950166 56.74278749 35.40356445 63.91918945 C34.117558 69.63918987 32.55314667 75.24482578 30.8203125 80.84765625 C30.05114557 83.80345489 29.88841039 86.34381235 29.75 89.375 C29.03805871 93.02963194 28.23333877 93.8419318 25.09375 95.96875 C21.63503236 97.7740409 18.05371912 99.29737241 14.47900391 100.85595703 C9.99782435 102.92399006 5.73872863 105.39807137 1.4375 107.8125 C-7.44311333 112.73215127 -16.48074858 117.22216103 -25.67602539 121.52270508 C-26.5911792 121.95091553 -27.50633301 122.37912598 -28.44921875 122.8203125 C-29.66097778 123.38129639 -29.66097778 123.38129639 -30.8972168 123.95361328 C-33.21228217 125.05057511 -33.21228217 125.05057511 -36 127 C-40.82967996 126.89023455 -43.46663497 125.15677219 -47.140625 122.328125 C-49.06807484 120.95137511 -50.98654353 119.95045307 -53.125 118.9375 C-56.46962495 117.34327215 -59.19802797 115.45172553 -62 113 C-61.29381953 110.36559626 -60.57926188 107.73402773 -59.8515625 105.10546875 C-59.30533658 103.11349807 -58.77758414 101.11631548 -58.2734375 99.11328125 C-57.92152344 97.78876953 -57.92152344 97.78876953 -57.5625 96.4375 C-57.35753906 95.63183594 -57.15257812 94.82617188 -56.94140625 93.99609375 C-56 92 -56 92 -54.3359375 90.4609375 C-51.1317744 89.82867789 -49.53924017 91.12151962 -46.91601562 92.87695312 C-45.99852539 93.52567383 -45.99852539 93.52567383 -45.0625 94.1875 C-43.84539222 95.01482353 -42.62795016 95.84165552 -41.41015625 96.66796875 C-39.38272137 98.04850473 -37.37252529 99.44473319 -35.37109375 100.86328125 C-32.33879855 102.31698455 -31.21337464 101.86837762 -28 101 C-26.10783578 100.2052056 -24.24015756 99.35070347 -22.39453125 98.453125 C-21.32783203 97.9375 -20.26113281 97.421875 -19.16210938 96.890625 C-18.05673828 96.34921875 -16.95136719 95.8078125 -15.8125 95.25 C-14.18344727 94.46109375 -14.18344727 94.46109375 -12.52148438 93.65625 C-10.36339944 92.60896314 -8.21250945 91.54671108 -6.06933594 90.46923828 C-3 89 -3 89 -0.14160156 87.96435547 C3.98835901 86.36879314 6.34592757 85.16617406 8.55444336 81.22851562 C9.87508477 77.72743618 10.90985406 74.23998752 11.875 70.625 C12.24230225 69.37106445 12.60960449 68.11712891 12.98803711 66.82519531 C14.03215819 63.22657761 15.02371926 59.61752017 16 56 C16.48198018 54.27313214 16.9648842 52.54652151 17.44921875 50.8203125 C18.35058956 47.55888093 19.20034029 44.28811124 20 41 C19.15501953 40.60554687 19.15501953 40.60554687 18.29296875 40.203125 C15.80078528 38.89547166 13.60170989 37.38672978 11.3125 35.75 C7.9738038 33.36803506 4.5999518 31.11437063 1.125 28.9375 C-2.63488466 26.39974481 -5.22520318 24.31022085 -7 20 C-6.74399119 12.88564982 -3.12446189 6.24892378 0 0 Z"/>
<path transform="translate(597,496)" fill="#15295A" d="M0 0 C3.00763244 0.60169145 5.03129344 1.50926777 7.51171875 3.30078125 C8.17896973 3.77773438 8.8462207 4.2546875 9.53369141 4.74609375 C10.24444824 5.26300781 10.95520508 5.77992188 11.6875 6.3125 C13.20959351 7.40240228 14.73173021 8.49224424 16.25390625 9.58203125 C17.03523926 10.14486816 17.81657227 10.70770508 18.62158203 11.28759766 C22.44515402 14.0404753 26.28318978 16.77266008 30.125 19.5 C31.15306763 20.23730347 31.15306763 20.23730347 32.2019043 20.98950195 C36.34422565 23.93351797 40.54757905 26.54827729 45 29 C44.67 30.65 44.34 32.3 44 34 C43.67 33.34 43.34 32.68 43 32 C42.33613281 32.42152344 41.67226563 32.84304688 40.98828125 33.27734375 C40.10527344 33.82519531 39.22226562 34.37304688 38.3125 34.9375 C37.44238281 35.48277344 36.57226562 36.02804687 35.67578125 36.58984375 C33.05375311 37.97167172 30.91689925 38.58480173 28 39 C28 39.66 28 40.32 28 41 C25.525 41.495 25.525 41.495 23 42 C22.34 44.97 21.68 47.94 21 51 C20.34 51 19.68 51 19 51 C18.91363281 51.54785156 18.82726562 52.09570312 18.73828125 52.66015625 C17.53046296 59.4749108 15.49137867 65.90819499 13.21875 72.42578125 C12.49435969 74.55019514 11.81107662 76.69051497 11.21875 78.85546875 C10.06600323 83.06162214 9.64746568 84.5507381 5.9375 87.125 C3 88 3 88 1 87 C1.94020996 86.62649414 2.88041992 86.25298828 3.84912109 85.86816406 C7.68318324 83.59493893 8.14815192 82.30784038 9.4140625 78.109375 C9.78088135 76.93084961 10.1477002 75.75232422 10.52563477 74.53808594 C10.88842529 73.28801758 11.25121582 72.03794922 11.625 70.75 C12.01247359 69.47374576 12.40171849 68.19802797 12.79272461 66.92285156 C15.38938583 58.33758867 17.88015373 49.7165707 20 41 C19.43667969 40.73703125 18.87335937 40.4740625 18.29296875 40.203125 C15.80078528 38.89547166 13.60170989 37.38672978 11.3125 35.75 C7.9738038 33.36803506 4.5999518 31.11437063 1.125 28.9375 C-2.63488466 26.39974481 -5.22520318 24.31022085 -7 20 C-6.74399119 12.88564982 -3.12446189 6.24892378 0 0 Z"/>
<path transform="translate(568,550)" fill="#173055" d="M0 0 C2.9844671 0.31976433 4.09690108 1.08670097 6.375 3.125 C8.84379224 5.2724554 8.84379224 5.2724554 11.8125 5 C15.18476481 3.94203457 18.02479912 2.51567923 21.0703125 0.7421875 C23.46220783 -0.17777224 24.59129393 0.29972926 27 1 C23.4438301 18.18605424 23.4438301 18.18605424 17.84765625 22.33984375 C14.55085347 23.55992037 11.45964396 24.40104355 8 25 C7.33742188 25.25394531 6.67484375 25.50789062 5.9921875 25.76953125 C2.74702235 26.14495232 0.57550857 24.56739044 -2.25 23.0625 C-3.32765625 22.49660156 -4.4053125 21.93070313 -5.515625 21.34765625 C-6.33546875 20.90292969 -7.1553125 20.45820312 -8 20 C-2.38297872 2.38297872 -2.38297872 2.38297872 0 0 Z"/>
<path transform="translate(543,588)" fill="#234881" d="M0 0 C3.53674757 1.64539335 6.69722631 3.70936941 9.9375 5.875 C10.95714844 6.55304687 11.97679687 7.23109375 13.02734375 7.9296875 C15.78507064 9.85031201 18.40394533 11.86769727 21 14 C19.9611908 20.1112924 18.84269722 26.07704464 17 32 C13.62537285 31.45276317 11.91765 30.9451 9 29 C7.61307322 28.70455998 6.21512788 28.45853229 4.8125 28.25 C-0.60144999 27.16721 -3.8066054 24.50720275 -8 21 C-6.515 15.555 -6.515 15.555 -5 10 C-4.34 10 -3.68 10 -3 10 C-2.86722656 9.36191406 -2.73445312 8.72382812 -2.59765625 8.06640625 C-2.42105469 7.24011719 -2.24445312 6.41382813 -2.0625 5.5625 C-1.88847656 4.73878906 -1.71445312 3.91507813 -1.53515625 3.06640625 C-1 1 -1 1 0 0 Z"/>
<path transform="translate(574,506)" fill="#01020C" d="M0 0 C-1.86238167 0.88012202 -3.72505481 1.75963057 -5.58886719 2.63671875 C-7.26564395 3.43373384 -8.93676335 4.2427411 -10.60253906 5.0625 C-15.37980506 7.39253234 -20.1088532 9.4364395 -25.13671875 11.16796875 C-35.88695552 14.87446264 -35.88695552 14.87446264 -43.61230469 22.72558594 C-46.11318356 29.01869933 -47.34568748 35.52075877 -48.46435547 42.17822266 C-49.14164096 45.7461651 -50.25348014 48.73038972 -51.6875 52.0625 C-53.79083291 57.18425221 -55.15236204 62.34715322 -56.4152832 67.72021484 C-57.6380324 72.81269079 -59.17275233 77.73619852 -60.875 82.6875 C-62.98624479 88.85428041 -64.92709881 95.03645049 -66.6875 101.3125 C-69.38340169 110.90480712 -72.17172002 120.46831296 -74.99917603 130.02255249 C-75.4978424 131.70948105 -75.99506652 133.39683665 -76.49081421 135.08462524 C-77.1933258 137.47548934 -77.90072666 139.86485494 -78.609375 142.25390625 C-78.92625023 143.33699066 -78.92625023 143.33699066 -79.24952698 144.44195557 C-80.25280413 147.80456707 -81.36973071 150.89550277 -83 154 C-83.57293316 156.48660551 -83.57293316 156.48660551 -83 159 C-80.89797046 161.34745051 -80.89797046 161.34745051 -78.125 163.3125 C-76.76761719 164.35857422 -76.76761719 164.35857422 -75.3828125 165.42578125 C-73.1978581 167.18374109 -73.1978581 167.18374109 -71 167 C-70.82871582 166.4652002 -70.65743164 165.93040039 -70.48095703 165.37939453 C-69.70192467 162.95918664 -68.91358694 160.54211067 -68.125 158.125 C-67.85558594 157.28324219 -67.58617187 156.44148437 -67.30859375 155.57421875 C-67.04433594 154.76855469 -66.78007812 153.96289062 -66.5078125 153.1328125 C-66.26691895 152.38918457 -66.02602539 151.64555664 -65.77783203 150.87939453 C-65 149 -65 149 -63 147 C-63.98969102 152.76885688 -65.29483171 158.42615168 -66.875 164.0625 C-67.18179687 165.16722656 -67.48859375 166.27195312 -67.8046875 167.41015625 C-69 170 -69 170 -70.71484375 171.1640625 C-74.44086413 170.89655334 -76.87641439 168.56946243 -79.6875 166.3125 C-80.28111328 165.86455078 -80.87472656 165.41660156 -81.48632812 164.95507812 C-85.72356935 161.6358253 -85.72356935 161.6358253 -86.77532959 159.21664429 C-87.08737652 156.13792534 -86.31118345 153.87461632 -85.39550781 150.92041016 C-85.01563217 149.67717484 -84.63575653 148.43393951 -84.24436951 147.1530304 C-83.81411934 145.78165609 -83.38369904 144.41033515 -82.953125 143.0390625 C-82.50915241 141.59896688 -82.06610398 140.15858607 -81.62391663 138.71794128 C-80.42651413 134.82563134 -79.21679935 130.93724924 -78.004673 127.04950333 C-76.74526007 123.00344518 -75.49636862 118.95414441 -74.24682617 114.9050293 C-72.70783741 109.92007279 -71.16777649 104.93545898 -69.62272644 99.95237732 C-66.40862167 89.58383378 -63.22712056 79.20600764 -60.08019638 68.81687927 C-59.41795787 66.63121734 -58.75472523 64.44585985 -58.09109497 62.26062012 C-57.8770785 61.55588436 -57.66306202 60.85114861 -57.4425602 60.12505722 C-57.01825733 58.72798797 -56.59392983 57.33092619 -56.16957664 55.93387222 C-55.14103867 52.5464838 -54.11462288 49.15847976 -53.09265137 45.769104 C-51.96104894 42.016997 -50.81881648 38.26817201 -49.67578125 34.51953125 C-49.1803054 32.8666938 -49.1803054 32.8666938 -48.67481995 31.1804657 C-48.36487595 30.16934219 -48.05493195 29.15821869 -47.7355957 28.11645508 C-47.47108109 27.24330154 -47.20656647 26.37014801 -46.93403625 25.47053528 C-45.01339221 20.39041248 -43.13789054 17.60921906 -38.16796875 15.3515625 C-37.21051758 14.9066748 -36.25306641 14.46178711 -35.26660156 14.00341797 C-34.25049805 13.54854004 -33.23439453 13.09366211 -32.1875 12.625 C-30.10239738 11.66246979 -28.0177608 10.69892934 -25.93359375 9.734375 C-24.91894043 9.26966797 -23.90428711 8.80496094 -22.85888672 8.32617188 C-19.11409456 6.58904882 -15.4265297 4.75136753 -11.75 2.875 C-3.69431051 -1.23143684 -3.69431051 -1.23143684 0 0 Z"/>
<path transform="translate(601,494)" fill="#040914" d="M0 0 C2.28114548 1.46095834 4.40851504 2.93548384 6.5625 4.5625 C7.81519168 5.48472499 9.06911716 6.40527622 10.32421875 7.32421875 C10.94603027 7.78103027 11.5678418 8.2378418 12.20849609 8.70849609 C14.71144092 10.51288123 17.28801551 12.19399093 19.875 13.875 C27.50581568 18.9001713 34.73393274 24.46746148 42 30 C41.42063213 35.01435205 40.62929297 39.20796186 39 44 C38.74927371 45.34148364 38.51296182 46.68568445 38.28515625 48.03125 C36.64863756 56.40041723 33.9044582 64.49277595 31.375 72.625 C30.85371569 74.31366293 30.33287857 76.00246398 29.8125 77.69140625 C28.54681915 81.79588207 27.27509339 85.89843899 26 90 C24.65259992 85.66537768 25.82479732 82.50207582 27.1875 78.3125 C28.99943479 72.49385738 30.57941999 66.7041247 31.875 60.75 C34.12577092 50.58951508 37.57233055 40.81336561 41 31 C40.42813965 30.89292725 39.8562793 30.78585449 39.26708984 30.67553711 C36.65774818 29.89801736 34.94374388 28.76827036 32.7265625 27.19140625 C31.90808838 26.61374512 31.08961426 26.03608398 30.24633789 25.44091797 C29.38129639 24.82104004 28.51625488 24.20116211 27.625 23.5625 C26.73611084 22.93230957 25.84722168 22.30211914 24.93139648 21.65283203 C22.28378353 19.77385011 19.64186695 17.88704782 17 16 C15.58254915 14.99536264 14.16462946 13.99138621 12.74609375 12.98828125 C3.55745674 6.4738788 3.55745674 6.4738788 0.31640625 3.71875 C-1.93825241 1.67018615 -1.93825241 1.67018615 -5.125 2.125 C-8.15814267 2.89713516 -8.15814267 2.89713516 -11 5 C-13.1875 4.625 -13.1875 4.625 -15 4 C-13.4470724 3.12855131 -11.88214564 2.27846343 -10.3125 1.4375 C-9.44238281 0.96183594 -8.57226562 0.48617188 -7.67578125 -0.00390625 C-4.44085516 -1.20814881 -3.23228515 -1.17537642 0 0 Z"/>
<path transform="translate(625,584)" fill="#060D18" d="M0 0 C0.75 1.75 0.75 1.75 1 4 C-2.43716362 8.63526066 -7.77320963 10.4473146 -12.875 12.75 C-19.02825436 15.59675522 -25.04551492 18.47267124 -30.875 21.9375 C-38.10967599 26.2153193 -45.66432643 29.75523244 -53.27099609 33.32006836 C-54.22699707 33.76874268 -55.18299805 34.21741699 -56.16796875 34.6796875 C-57.02672607 35.07913574 -57.8854834 35.47858398 -58.77026367 35.89013672 C-61.19256988 37.0375114 -61.19256988 37.0375114 -64 39 C-69.62807495 38.87208921 -72.71884234 36.33930297 -77 33 C-75.11328125 32.375 -75.11328125 32.375 -73 32 C-72.401875 32.66 -71.80375 33.32 -71.1875 34 C-69.12384796 36.34976598 -69.12384796 36.34976598 -65.99267578 35.93017578 C-60.87958361 35.01723569 -56.48756868 32.50799733 -51.9296875 30.1171875 C-50.97160187 29.62469513 -50.01351624 29.13220276 -49.02639771 28.62478638 C-45.97089568 27.05106357 -42.92301307 25.46317016 -39.875 23.875 C-37.84942932 22.82981589 -35.82339171 21.78553616 -33.796875 20.7421875 C-23.23938293 15.31033412 -23.23938293 15.31033412 -12.77832031 9.69628906 C-12.17069855 9.36283478 -11.56307678 9.02938049 -10.93704224 8.68582153 C-9.39831746 7.83546112 -7.86512554 6.97510894 -6.33251953 6.11376953 C-4 5 -4 5 -1 5 C-0.67 3.35 -0.34 1.7 0 0 Z"/>
<path transform="translate(543,586)" fill="#060C16" d="M0 0 C3.84416731 1.39977831 7.07817087 3.202738 10.5 5.4375 C12.33119667 6.62829222 14.16448188 7.81587983 16 9 C16.8353125 9.58910156 17.670625 10.17820312 18.53125 10.78515625 C20.89070517 12.18861269 20.89070517 12.18861269 23.33203125 11.9140625 C27.64884527 10.43509547 31.65986555 8.38785077 35.73632812 6.3515625 C37.46500196 5.51216665 39.2305609 4.74965586 41 4 C41.66 4.33 42.32 4.66 43 5 C40.95895429 6.10531407 38.91713464 7.20919907 36.875 8.3125 C35.73804688 8.92738281 34.60109375 9.54226563 33.4296875 10.17578125 C32.29789063 10.77777344 31.16609375 11.37976563 30 12 C28.40091797 12.85078125 28.40091797 12.85078125 26.76953125 13.71875 C22.83008784 15.54122876 21.17042527 15.29898492 17 14 C12.36617337 11.04461909 8.08811706 7.66310208 3.79296875 4.2421875 C2.08953885 2.81017023 2.08953885 2.81017023 0 3 C-0.99 5.97 -1.98 8.94 -3 12 C-4.22400998 7.10396009 -3.17036065 5.42419671 -1 1 C-0.67 0.67 -0.34 0.34 0 0 Z"/>
<path transform="translate(609,531)" fill="#050A14" d="M0 0 C3.33219881 0.28561704 5.11720824 1.07730756 7.9375 2.9375 C10.19509594 6.28968791 10.29009274 6.63929221 9.625 10.375 C8.33622464 15.30438372 6.69620549 20.13585468 5.03637695 24.95166016 C3.04707886 30.72722902 1.33593804 36.56864156 -0.30004883 42.45336914 C-1.2283767 45.71661739 -2.10062472 48.15093708 -4 51 C-7.625 52.1875 -7.625 52.1875 -11 53 C-8.94766315 50.7522025 -7.99332739 49.9977758 -5 49 C-3.79703174 46.46360968 -3.79703174 46.46360968 -2.87890625 43.3046875 C-2.50241943 42.1197168 -2.12593262 40.93474609 -1.73803711 39.71386719 C-1.34569695 38.43439631 -0.9538595 37.15477118 -0.5625 35.875 C-0.16028628 34.58995006 0.24262687 33.30511883 0.64624023 32.02050781 C3.33507728 23.40899823 5.86786293 14.76710907 8 6 C7.38640625 5.71382812 6.7728125 5.42765625 6.140625 5.1328125 C3.60648734 3.79175425 1.94640867 2.08543786 0 0 Z"/>
<path transform="translate(640,530)" fill="#091221" d="M0 0 C0.33 0 0.66 0 1 0 C0.32418477 6.08233706 -0.73638028 12.01314152 -2 18 C-2.66 18 -3.32 18 -4 18 C-4.33 19.65 -4.66 21.3 -5 23 C-6.11378736 19.68177296 -5.87728255 17.75179221 -4.78515625 14.453125 C-4.51123047 13.60878906 -4.23730469 12.76445313 -3.95507812 11.89453125 C-3.51325195 10.58548828 -3.51325195 10.58548828 -3.0625 9.25 C-2.77181641 8.36183594 -2.48113281 7.47367188 -2.18164062 6.55859375 C-1.46360682 4.36917921 -0.73614477 2.18337811 0 0 Z"/>
<path transform="translate(592,518)" fill="#010309" d="M0 0 C0.66 0.99 1.32 1.98 2 3 C1.14792969 2.773125 0.29585937 2.54625 -0.58203125 2.3125 C-4.86482352 1.92093042 -6.90254464 3.03059233 -10.6875 5 C-14.07421875 6.75 -14.07421875 6.75 -17 8 C-17.99 7.67 -18.98 7.34 -20 7 C-17.42362412 5.63092584 -14.84031896 4.27971545 -12.25 2.9375 C-11.52039063 2.54755859 -10.79078125 2.15761719 -10.0390625 1.75585938 C-9.33007812 1.39169922 -8.62109375 1.02753906 -7.890625 0.65234375 C-7.24125977 0.31195068 -6.59189453 -0.02844238 -5.92285156 -0.37915039 C-3.50621153 -1.15943424 -2.33003622 -0.97911097 0 0 Z"/>
<path transform="translate(548,616)" fill="#091220" d="M0 0 C4.69014085 0.63380282 4.69014085 0.63380282 6.375 2.625 C8.08466752 4.39678262 8.08466752 4.39678262 11.4375 3.75 C15.23926366 2.95748065 15.23926366 2.95748065 19 2 C17.06745228 4.0245738 15.36841312 5.42105792 13 7 C7.6020877 6.87732018 3.95231968 4.46120303 0 1 C0 0.67 0 0.34 0 0 Z"/>
<path transform="translate(498,633)" fill="#040519" d="M0 0 C1.14176746 3.42530237 0.83108216 4.31673674 -0.21484375 7.66796875 C-0.48876953 8.56064453 -0.76269531 9.45332031 -1.04492188 10.37304688 C-1.33947266 11.30181641 -1.63402344 12.23058594 -1.9375 13.1875 C-2.22818359 14.12787109 -2.51886719 15.06824219 -2.81835938 16.03710938 C-3.53781887 18.36060971 -4.26529186 20.68128518 -5 23 C-5.33 23 -5.66 23 -6 23 C-5.27637073 16.60794144 -4.19656638 10.31972924 -3 4 C-2.34 4 -1.68 4 -1 4 C-0.67 2.68 -0.34 1.36 0 0 Z"/>
<path transform="translate(594,521)" fill="#040813" d="M0 0 C2.86724686 0.57344937 3.8614515 0.8614515 6 3 C7.155 3.45375 8.31 3.9075 9.5 4.375 C13 6 13 6 14.4375 8.1875 C14.623125 8.785625 14.80875 9.38375 15 10 C11.84868804 8.47209117 8.82748446 6.7813793 5.8125 5 C4.93207031 4.484375 4.05164063 3.96875 3.14453125 3.4375 C1 2 1 2 0 0 Z"/>
<path transform="translate(584,611)" fill="#030A11" d="M0 0 C-7.92 3.96 -7.92 3.96 -16 8 C-16.33 7.34 -16.66 6.68 -17 6 C-14.92426919 4.79715599 -12.84116905 3.61294299 -10.75 2.4375 C-9.87021484 1.92413086 -9.87021484 1.92413086 -8.97265625 1.40039062 C-5.22307384 -0.68505128 -4.3506237 -1.08765593 0 0 Z"/>
<path transform="translate(316,503)" fill="#0C1734" d="M0 0 C-1.55603771 3.81936528 -3.95604931 6.26044438 -7 9 C-7.66 9 -8.32 9 -9 9 C-7.67183131 4.6532661 -5.0855272 0 0 0 Z"/>
<path transform="translate(618,507)" fill="#01040A" d="M0 0 C3.99500618 1.3697164 6.80009492 3.25722422 10 6 C9.67 6.66 9.34 7.32 9 8 C4.41173718 6.06273348 2.19471406 4.51135667 0 0 Z"/>
<path transform="translate(636,520)" fill="#03060E" d="M0 0 C2.49361571 1.20381448 4.68143083 2.45428722 7 4 C6.67 6.64 6.34 9.28 6 12 C5.06576355 8.98968256 4.95550089 8.13349732 6 5 C5.38125 4.9175 4.7625 4.835 4.125 4.75 C2 4 2 4 0.75 1.9375 C0.5025 1.298125 0.255 0.65875 0 0 Z"/>
</svg>