<svg version="1.1" id="Layer_1" xmlns="http://www.w3.org/2000/svg" xmlns:xlink="http://www.w3.org/1999/xlink" x="0px" y="0px"
	 width="100%" viewBox="0 0 1648 3668" enable-background="new 0 0 1648 3668" xml:space="preserve">
<path fill="#162A5D" opacity="1.000000" stroke="none" 
	d="
M1330.000000,3670.000000 
	C886.666687,3670.000000 444.333344,3670.000000 2.000000,3670.000000 
	C2.000000,2447.333252 2.000000,1224.666626 2.000000,2.000000 
	C551.333313,2.000000 1100.666626,2.000000 1650.000000,2.000000 
	C1650.000000,1224.666626 1650.000000,2447.333252 1650.000000,3670.000000 
	C1543.666626,3670.000000 1437.333374,3670.000000 1330.000000,3670.000000 
M446.121185,1829.782471 
	C445.471588,1832.664917 447.270203,1833.146973 449.480438,1833.172485 
	C454.475647,1833.230225 459.473663,1833.385376 464.466156,1833.284546 
	C482.652679,1832.917725 478.935760,1835.472412 488.101257,1819.245483 
	C488.744843,1818.105835 489.612701,1817.093018 490.278137,1816.158936 
	C503.691437,1816.158936 516.832031,1816.158936 529.830872,1816.158936 
	C530.843079,1822.077026 531.729431,1827.259399 532.643677,1832.604736 
	C544.298706,1832.604736 555.108154,1832.604736 567.466248,1832.604736 
	C559.214111,1797.899414 551.180054,1764.111206 543.084717,1730.065186 
	C532.671692,1730.065186 523.376526,1730.219360 514.090698,1729.993164 
	C510.107758,1729.895996 508.141052,1731.962158 506.254150,1734.971680 
	C499.887604,1745.126099 493.355316,1755.176758 486.887238,1765.267700 
	C473.244019,1786.552612 459.601379,1807.837891 443.662476,1829.610474 
	C444.328766,1822.563477 444.995087,1815.516479 445.772797,1807.290894 
	C429.205719,1807.290894 413.046021,1807.290894 395.723969,1807.290894 
	C396.594666,1801.953613 397.251556,1797.927124 398.023529,1793.194946 
	C412.735107,1793.194946 426.604218,1793.194946 441.250549,1793.194946 
	C442.887604,1784.978394 444.388702,1777.444214 446.157532,1768.566040 
	C431.078613,1768.566040 417.557037,1768.566040 403.764252,1768.566040 
	C403.895203,1765.829712 403.783234,1764.161621 404.100525,1762.579590 
	C404.475952,1760.707764 405.221863,1758.910278 406.127350,1756.079590 
	C422.448364,1756.079590 438.581055,1756.079590 454.861389,1756.079590 
	C456.682190,1746.945679 458.284424,1738.908325 459.986237,1730.371338 
	C431.918854,1730.371338 404.718964,1730.371338 376.538849,1730.371338 
	C369.705444,1764.343506 362.909790,1798.127808 356.104279,1831.961304 
	C358.113525,1832.526123 359.052765,1833.016479 359.994751,1833.021851 
	C384.644897,1833.161865 409.296509,1833.151611 433.944611,1833.442993 
	C438.331543,1833.494873 440.632843,1831.757568 442.373383,1828.033936 
	C443.522522,1825.575562 445.264374,1825.968872 446.121185,1829.782471 
M867.871033,1779.564697 
	C869.242004,1775.111450 870.183594,1770.457886 872.134155,1766.274902 
	C873.445129,1763.463257 875.706848,1760.384399 878.362183,1759.026611 
	C894.348328,1750.851562 910.571228,1743.139404 926.859314,1735.202026 
	C938.660583,1743.535889 950.251587,1751.721313 961.847412,1759.910156 
	C957.478699,1774.665771 953.267700,1788.661255 949.208313,1802.700562 
	C947.340576,1809.159912 943.741211,1813.560669 937.365051,1816.453003 
	C925.856140,1821.673462 914.571960,1827.447144 903.496826,1833.540283 
	C898.377808,1836.356689 894.386414,1836.161499 889.783630,1832.775879 
	C884.013367,1828.531982 877.867859,1824.798218 871.048096,1820.291626 
	C868.048950,1828.975220 865.393372,1836.664062 862.713745,1844.422607 
	C870.008484,1849.166504 876.486145,1853.205811 882.772278,1857.523926 
	C887.471619,1860.751953 891.884399,1860.623413 896.737915,1857.846069 
	C902.799561,1854.377441 909.048462,1851.229370 915.271240,1848.050049 
	C930.091675,1840.478027 944.972778,1833.024170 959.765503,1825.398682 
	C963.894775,1823.270264 967.953796,1821.006470 969.373352,1815.886475 
	C975.763000,1792.840210 982.275757,1769.828125 988.967651,1746.007935 
	C971.983093,1734.130615 955.114868,1722.356567 938.276672,1710.539551 
	C935.300110,1708.450806 932.725342,1709.629639 929.914612,1710.985107 
	C907.427917,1721.828857 884.963684,1732.723633 862.337830,1743.270630 
	C857.602661,1745.477783 855.370300,1748.607788 853.907776,1753.443726 
	C840.127502,1799.009888 826.112244,1844.505127 812.208496,1890.034180 
	C809.887878,1897.633423 807.777588,1905.296875 805.506287,1913.151611 
	C811.156921,1917.387939 816.340088,1921.273804 822.862671,1926.163818 
	C837.978943,1876.979980 852.711182,1829.045532 867.871033,1779.564697 
M1203.156250,1826.683105 
	C1198.900757,1819.264771 1194.645386,1811.846436 1190.117798,1803.953735 
	C1192.886963,1802.296143 1195.011963,1801.382690 1196.693970,1799.949097 
	C1201.458374,1795.888916 1206.944092,1792.270874 1210.540527,1787.314087 
	C1226.472656,1765.355347 1216.320679,1738.327271 1190.064697,1732.210449 
	C1184.607422,1730.938965 1178.885742,1730.427490 1173.268433,1730.293213 
	C1160.635254,1729.990967 1147.991211,1730.108032 1135.351807,1730.147949 
	C1133.138062,1730.154907 1130.925659,1730.618164 1128.437012,1730.902100 
	C1121.726318,1764.890747 1115.111694,1798.392456 1108.360229,1832.587402 
	C1120.049683,1832.587402 1131.127197,1832.587402 1142.245972,1832.587402 
	C1145.676880,1823.686523 1144.036743,1813.528564 1152.006592,1805.383789 
	C1154.791138,1808.144043 1157.697510,1810.242065 1159.551025,1813.038330 
	C1162.663208,1817.733276 1164.918945,1822.989136 1167.915039,1827.770874 
	C1169.234375,1829.876343 1171.362305,1832.777832 1173.334839,1832.954468 
	C1184.069824,1833.915649 1194.823120,1833.301147 1206.445435,1832.610229 
	C1205.087280,1830.081787 1204.473633,1828.939453 1203.156250,1826.683105 
M1277.291992,1755.137817 
	C1273.919556,1757.446411 1272.391602,1762.463989 1266.098511,1762.158569 
	C1267.975952,1751.610962 1269.809692,1741.308350 1271.735107,1730.490967 
	C1260.244629,1730.490967 1249.726562,1730.490967 1238.176514,1730.490967 
	C1231.320923,1764.530396 1224.522217,1798.287476 1217.492310,1833.192017 
	C1224.189819,1833.192017 1229.453369,1833.284790 1234.712769,1833.175171 
	C1252.259399,1832.809814 1251.317261,1836.784302 1254.633545,1816.802734 
	C1255.844727,1809.505371 1259.509888,1804.079834 1266.834229,1800.854370 
	C1272.167358,1809.413818 1277.745483,1817.326416 1282.178955,1825.835449 
	C1285.302612,1831.831055 1289.406128,1833.863770 1295.757568,1833.309326 
	C1300.726685,1832.875488 1305.770142,1833.291870 1310.738647,1832.853882 
	C1315.151611,1832.465210 1319.881836,1834.267822 1324.403320,1831.531128 
	C1313.614990,1813.411011 1303.091187,1795.735229 1292.085449,1777.249756 
	C1308.850952,1761.539429 1326.423950,1747.547485 1343.239380,1730.073486 
	C1331.193604,1730.073486 1321.232544,1730.320435 1311.292603,1729.971069 
	C1306.196167,1729.791870 1302.364014,1731.420776 1298.803345,1734.882080 
	C1292.114502,1741.384399 1285.196533,1747.651123 1277.291992,1755.137817 
M1006.268860,1833.253174 
	C1012.534973,1834.220215 1017.314880,1832.713501 1019.453918,1825.970947 
	C1020.140808,1823.805908 1021.819641,1821.974609 1022.860046,1819.898193 
	C1024.334717,1816.955444 1026.444214,1815.357422 1029.890015,1815.382080 
	C1041.449707,1815.465210 1053.010376,1815.413696 1064.827026,1815.413696 
	C1065.994263,1821.645630 1067.018066,1827.111084 1068.044556,1832.591797 
	C1079.477539,1832.591797 1090.298096,1832.591797 1102.341919,1832.591797 
	C1094.186401,1797.999756 1086.233521,1764.267578 1078.159546,1730.021240 
	C1068.742188,1730.021240 1060.440186,1730.445923 1052.206543,1729.877319 
	C1046.361450,1729.473511 1043.180054,1731.748901 1040.188232,1736.495728 
	C1021.222961,1766.587158 1001.977295,1796.501831 982.871216,1826.504639 
	C981.717529,1828.316284 980.967834,1830.385254 979.995422,1832.406494 
	C981.311035,1832.898438 981.915588,1833.320068 982.520935,1833.321289 
	C989.835999,1833.335327 997.151184,1833.287231 1006.268860,1833.253174 
M648.503235,1757.098389 
	C652.435486,1758.556641 656.367737,1760.014893 660.601990,1761.585083 
	C664.724976,1752.967651 668.521484,1745.032471 672.216736,1737.308960 
	C657.333740,1726.767578 621.795044,1725.406616 605.469604,1733.271729 
	C601.305725,1735.277710 597.131165,1737.619263 593.637390,1740.599121 
	C575.082947,1756.425171 579.220581,1782.123413 601.763000,1790.969360 
	C607.932190,1793.390259 614.558899,1794.619995 620.874756,1796.702271 
	C624.797607,1797.995728 629.600708,1798.283325 631.408020,1804.600586 
	C629.102173,1805.867310 626.776489,1807.978027 624.157593,1808.445435 
	C609.510437,1811.059082 596.033081,1806.372314 582.146484,1800.069214 
	C578.682922,1809.208008 572.620483,1816.357910 570.108093,1825.843506 
	C593.545044,1836.336792 616.393616,1839.120605 640.017273,1831.249268 
	C647.746338,1828.673950 654.333740,1824.197021 659.294739,1817.573364 
	C672.424133,1800.043701 666.748169,1780.807007 646.200134,1773.693115 
	C640.232544,1771.627197 634.024902,1770.264648 627.995667,1768.363159 
	C623.699707,1767.008423 619.033752,1766.063721 616.244141,1761.422974 
	C619.733154,1756.223267 624.555725,1754.341797 630.075806,1754.619873 
	C635.707397,1754.903687 641.302856,1755.905151 648.503235,1757.098389 
M773.148315,1748.310425 
	C777.583618,1742.703857 782.018982,1737.097168 787.638672,1729.993408 
	C782.038818,1729.993408 778.362305,1730.486572 774.862549,1729.908936 
	C758.630920,1727.229492 746.803589,1732.684570 738.603271,1747.280884 
	C734.989990,1753.712280 729.390991,1759.028198 723.780151,1765.982788 
	C722.081543,1761.798828 720.971863,1759.149536 719.926758,1756.475098 
	C717.143616,1749.352051 714.425171,1742.203491 711.604065,1735.095703 
	C710.456726,1732.204834 708.904602,1729.890503 705.143066,1729.944336 
	C695.600708,1730.080933 686.055176,1729.989624 675.587830,1729.989624 
	C676.451904,1732.981323 676.837646,1734.851196 677.522156,1736.604492 
	C684.050659,1753.327271 690.380676,1770.134521 697.323120,1786.684570 
	C699.917236,1792.868652 700.406738,1798.607788 698.832581,1805.041260 
	C696.657593,1813.930420 695.163330,1822.985962 693.298401,1832.368164 
	C705.486450,1832.368164 716.575745,1832.368164 727.961670,1832.368164 
	C729.339600,1825.226074 730.963989,1818.768921 731.764343,1812.211182 
	C733.058899,1801.604980 737.327576,1792.611328 744.166809,1784.450806 
	C753.779297,1772.981323 762.933594,1761.128052 773.148315,1748.310425 
M928.336975,1785.108154 
	C928.839355,1782.718018 929.341797,1780.327881 930.157837,1776.445679 
	C924.190186,1779.287354 919.879944,1781.739624 915.288696,1783.428589 
	C909.063538,1785.718384 906.838440,1777.712646 900.333252,1777.411621 
	C897.805237,1783.608154 895.146118,1790.125977 892.413086,1796.824951 
	C898.275513,1800.413940 902.580933,1805.998291 909.165344,1803.938599 
	C917.949646,1801.190674 927.368774,1798.333130 928.336975,1785.108154 
z"/>
<path fill="#F7F8F9" opacity="1.000000" stroke="none" 
	d="
M867.657227,1780.337891 
	C852.711182,1829.045532 837.978943,1876.979980 822.862671,1926.163818 
	C816.340088,1921.273804 811.156921,1917.387939 805.506287,1913.151611 
	C807.777588,1905.296875 809.887878,1897.633423 812.208496,1890.034180 
	C826.112244,1844.505127 840.127502,1799.009888 853.907776,1753.443726 
	C855.370300,1748.607788 857.602661,1745.477783 862.337830,1743.270630 
	C884.963684,1732.723633 907.427917,1721.828857 929.914612,1710.985107 
	C932.725342,1709.629639 935.300110,1708.450806 938.276672,1710.539551 
	C955.114868,1722.356567 971.983093,1734.130615 988.967651,1746.007935 
	C982.275757,1769.828125 975.763000,1792.840210 969.373352,1815.886475 
	C967.953796,1821.006470 963.894775,1823.270264 959.765503,1825.398682 
	C944.972778,1833.024170 930.091675,1840.478027 915.271240,1848.050049 
	C909.048462,1851.229370 902.799561,1854.377441 896.737915,1857.846069 
	C891.884399,1860.623413 887.471619,1860.751953 882.772278,1857.523926 
	C876.486145,1853.205811 870.008484,1849.166504 862.713745,1844.422607 
	C865.393372,1836.664062 868.048950,1828.975220 871.048096,1820.291626 
	C877.867859,1824.798218 884.013367,1828.531982 889.783630,1832.775879 
	C894.386414,1836.161499 898.377808,1836.356689 903.496826,1833.540283 
	C914.571960,1827.447144 925.856140,1821.673462 937.365051,1816.453003 
	C943.741211,1813.560669 947.340576,1809.159912 949.208313,1802.700562 
	C953.267700,1788.661255 957.478699,1774.665771 961.847412,1759.910156 
	C950.251587,1751.721313 938.660583,1743.535889 926.859314,1735.202026 
	C910.571228,1743.139404 894.348328,1750.851562 878.362183,1759.026611 
	C875.706848,1760.384399 873.445129,1763.463257 872.134155,1766.274902 
	C870.183594,1770.457886 869.242004,1775.111450 867.657227,1780.337891 
z"/>
<path fill="#F8F9FA" opacity="1.000000" stroke="none" 
	d="
M1203.508057,1827.239990 
	C1204.473633,1828.939453 1205.087280,1830.081787 1206.445435,1832.610229 
	C1194.823120,1833.301147 1184.069824,1833.915649 1173.334839,1832.954468 
	C1171.362305,1832.777832 1169.234375,1829.876343 1167.915039,1827.770874 
	C1164.918945,1822.989136 1162.663208,1817.733276 1159.551025,1813.038330 
	C1157.697510,1810.242065 1154.791138,1808.144043 1152.006592,1805.383789 
	C1144.036743,1813.528564 1145.676880,1823.686523 1142.245972,1832.587402 
	C1131.127197,1832.587402 1120.049683,1832.587402 1108.360229,1832.587402 
	C1115.111694,1798.392456 1121.726318,1764.890747 1128.437012,1730.902100 
	C1130.925659,1730.618164 1133.138062,1730.154907 1135.351807,1730.147949 
	C1147.991211,1730.108032 1160.635254,1729.990967 1173.268433,1730.293213 
	C1178.885742,1730.427490 1184.607422,1730.938965 1190.064697,1732.210449 
	C1216.320679,1738.327271 1226.472656,1765.355347 1210.540527,1787.314087 
	C1206.944092,1792.270874 1201.458374,1795.888916 1196.693970,1799.949097 
	C1195.011963,1801.382690 1192.886963,1802.296143 1190.117798,1803.953735 
	C1194.645386,1811.846436 1198.900757,1819.264771 1203.508057,1827.239990 
M1163.537354,1757.146484 
	C1161.498535,1757.908081 1157.932983,1758.326416 1157.671875,1759.487671 
	C1156.126831,1766.359619 1153.084961,1773.131592 1154.394531,1780.851685 
	C1160.441162,1780.851685 1166.085815,1781.462524 1171.536987,1780.696533 
	C1178.296753,1779.746826 1182.610107,1773.781250 1182.392212,1767.322876 
	C1182.185669,1761.200684 1179.236816,1758.581177 1171.076172,1757.450806 
	C1169.118286,1757.179688 1167.116089,1757.228394 1163.537354,1757.146484 
z"/>
<path fill="#F8F9FA" opacity="1.000000" stroke="none" 
	d="
M1277.833008,1754.576904 
	C1285.196533,1747.651123 1292.114502,1741.384399 1298.803345,1734.882080 
	C1302.364014,1731.420776 1306.196167,1729.791870 1311.292603,1729.971069 
	C1321.232544,1730.320435 1331.193604,1730.073486 1343.239380,1730.073486 
	C1326.423950,1747.547485 1308.850952,1761.539429 1292.085449,1777.249756 
	C1303.091187,1795.735229 1313.614990,1813.411011 1324.403320,1831.531128 
	C1319.881836,1834.267822 1315.151611,1832.465210 1310.738647,1832.853882 
	C1305.770142,1833.291870 1300.726685,1832.875488 1295.757568,1833.309326 
	C1289.406128,1833.863770 1285.302612,1831.831055 1282.178955,1825.835449 
	C1277.745483,1817.326416 1272.167358,1809.413818 1266.834229,1800.854370 
	C1259.509888,1804.079834 1255.844727,1809.505371 1254.633545,1816.802734 
	C1251.317261,1836.784302 1252.259399,1832.809814 1234.712769,1833.175171 
	C1229.453369,1833.284790 1224.189819,1833.192017 1217.492310,1833.192017 
	C1224.522217,1798.287476 1231.320923,1764.530396 1238.176514,1730.490967 
	C1249.726562,1730.490967 1260.244629,1730.490967 1271.735107,1730.490967 
	C1269.809692,1741.308350 1267.975952,1751.610962 1266.098511,1762.158569 
	C1272.391602,1762.463989 1273.919556,1757.446411 1277.833008,1754.576904 
z"/>
<path fill="#F8F9FA" opacity="1.000000" stroke="none" 
	d="
M446.597076,1828.197754 
	C445.264374,1825.968872 443.522522,1825.575562 442.373383,1828.033936 
	C440.632843,1831.757568 438.331543,1833.494873 433.944611,1833.442993 
	C409.296509,1833.151611 384.644897,1833.161865 359.994751,1833.021851 
	C359.052765,1833.016479 358.113525,1832.526123 356.104279,1831.961304 
	C362.909790,1798.127808 369.705444,1764.343506 376.538849,1730.371338 
	C404.718964,1730.371338 431.918854,1730.371338 459.986237,1730.371338 
	C458.284424,1738.908325 456.682190,1746.945679 454.861389,1756.079590 
	C438.581055,1756.079590 422.448364,1756.079590 406.127350,1756.079590 
	C405.221863,1758.910278 404.475952,1760.707764 404.100525,1762.579590 
	C403.783234,1764.161621 403.895203,1765.829712 403.764252,1768.566040 
	C417.557037,1768.566040 431.078613,1768.566040 446.157532,1768.566040 
	C444.388702,1777.444214 442.887604,1784.978394 441.250549,1793.194946 
	C426.604218,1793.194946 412.735107,1793.194946 398.023529,1793.194946 
	C397.251556,1797.927124 396.594666,1801.953613 395.723969,1807.290894 
	C413.046021,1807.290894 429.205719,1807.290894 445.772797,1807.290894 
	C444.995087,1815.516479 444.328766,1822.563477 444.850861,1829.233398 
	C446.039246,1828.856201 446.597076,1828.197754 446.597076,1828.197754 
z"/>
<path fill="#F7F8F9" opacity="1.000000" stroke="none" 
	d="
M1005.367615,1833.254395 
	C997.151184,1833.287231 989.835999,1833.335327 982.520935,1833.321289 
	C981.915588,1833.320068 981.311035,1832.898438 979.995422,1832.406494 
	C980.967834,1830.385254 981.717529,1828.316284 982.871216,1826.504639 
	C1001.977295,1796.501831 1021.222961,1766.587158 1040.188232,1736.495728 
	C1043.180054,1731.748901 1046.361450,1729.473511 1052.206543,1729.877319 
	C1060.440186,1730.445923 1068.742188,1730.021240 1078.159546,1730.021240 
	C1086.233521,1764.267578 1094.186401,1797.999756 1102.341919,1832.591797 
	C1090.298096,1832.591797 1079.477539,1832.591797 1068.044556,1832.591797 
	C1067.018066,1827.111084 1065.994263,1821.645630 1064.827026,1815.413696 
	C1053.010376,1815.413696 1041.449707,1815.465210 1029.890015,1815.382080 
	C1026.444214,1815.357422 1024.334717,1816.955444 1022.860046,1819.898193 
	C1021.819641,1821.974609 1020.140808,1823.805908 1019.453918,1825.970947 
	C1017.314880,1832.713501 1012.534973,1834.220215 1005.367615,1833.254395 
M1047.620605,1776.701050 
	C1045.405762,1780.859009 1043.191040,1785.016968 1040.706543,1789.681152 
	C1048.108032,1789.681152 1053.905762,1789.681152 1060.295044,1789.681152 
	C1058.580566,1781.420044 1057.025757,1773.929199 1055.097290,1764.637207 
	C1052.125488,1769.397949 1050.253662,1772.396729 1047.620605,1776.701050 
z"/>
<path fill="#F7F8F9" opacity="1.000000" stroke="none" 
	d="
M446.359131,1828.990112 
	C446.597076,1828.197754 446.039246,1828.856201 445.998901,1828.989624 
	C459.601379,1807.837891 473.244019,1786.552612 486.887238,1765.267700 
	C493.355316,1755.176758 499.887604,1745.126099 506.254150,1734.971680 
	C508.141052,1731.962158 510.107758,1729.895996 514.090698,1729.993164 
	C523.376526,1730.219360 532.671692,1730.065186 543.084717,1730.065186 
	C551.180054,1764.111206 559.214111,1797.899414 567.466248,1832.604736 
	C555.108154,1832.604736 544.298706,1832.604736 532.643677,1832.604736 
	C531.729431,1827.259399 530.843079,1822.077026 529.830872,1816.158936 
	C516.832031,1816.158936 503.691437,1816.158936 490.278137,1816.158936 
	C489.612701,1817.093018 488.744843,1818.105835 488.101257,1819.245483 
	C478.935760,1835.472412 482.652679,1832.917725 464.466156,1833.284546 
	C459.473663,1833.385376 454.475647,1833.230225 449.480438,1833.172485 
	C447.270203,1833.146973 445.471588,1832.664917 446.359131,1828.990112 
M524.241150,1789.054077 
	C523.698303,1785.129150 523.218994,1781.194214 522.593933,1777.282349 
	C522.016907,1773.670898 521.283569,1770.084351 520.619080,1766.486816 
	C519.990112,1766.464600 519.361145,1766.442505 518.732117,1766.420288 
	C514.369934,1773.981323 510.007721,1781.542358 505.474945,1789.399048 
	C507.478210,1789.962036 508.114258,1790.298584 508.747498,1790.293457 
	C513.395813,1790.255249 518.043579,1790.148682 524.241150,1789.054077 
z"/>
<path fill="#F7F8F9" opacity="1.000000" stroke="none" 
	d="
M647.708679,1756.845459 
	C641.302856,1755.905151 635.707397,1754.903687 630.075806,1754.619873 
	C624.555725,1754.341797 619.733154,1756.223267 616.244141,1761.422974 
	C619.033752,1766.063721 623.699707,1767.008423 627.995667,1768.363159 
	C634.024902,1770.264648 640.232544,1771.627197 646.200134,1773.693115 
	C666.748169,1780.807007 672.424133,1800.043701 659.294739,1817.573364 
	C654.333740,1824.197021 647.746338,1828.673950 640.017273,1831.249268 
	C616.393616,1839.120605 593.545044,1836.336792 570.108093,1825.843506 
	C572.620483,1816.357910 578.682922,1809.208008 582.146484,1800.069214 
	C596.033081,1806.372314 609.510437,1811.059082 624.157593,1808.445435 
	C626.776489,1807.978027 629.102173,1805.867310 631.408020,1804.600586 
	C629.600708,1798.283325 624.797607,1797.995728 620.874756,1796.702271 
	C614.558899,1794.619995 607.932190,1793.390259 601.763000,1790.969360 
	C579.220581,1782.123413 575.082947,1756.425171 593.637390,1740.599121 
	C597.131165,1737.619263 601.305725,1735.277710 605.469604,1733.271729 
	C621.795044,1725.406616 657.333740,1726.767578 672.216736,1737.308960 
	C668.521484,1745.032471 664.724976,1752.967651 660.601990,1761.585083 
	C656.367737,1760.014893 652.435486,1758.556641 647.708679,1756.845459 
z"/>
<path fill="#F8F9FA" opacity="1.000000" stroke="none" 
	d="
M772.716064,1748.874756 
	C762.933594,1761.128052 753.779297,1772.981323 744.166809,1784.450806 
	C737.327576,1792.611328 733.058899,1801.604980 731.764343,1812.211182 
	C730.963989,1818.768921 729.339600,1825.226074 727.961670,1832.368164 
	C716.575745,1832.368164 705.486450,1832.368164 693.298401,1832.368164 
	C695.163330,1822.985962 696.657593,1813.930420 698.832581,1805.041260 
	C700.406738,1798.607788 699.917236,1792.868652 697.323120,1786.684570 
	C690.380676,1770.134521 684.050659,1753.327271 677.522156,1736.604492 
	C676.837646,1734.851196 676.451904,1732.981323 675.587830,1729.989624 
	C686.055176,1729.989624 695.600708,1730.080933 705.143066,1729.944336 
	C708.904602,1729.890503 710.456726,1732.204834 711.604065,1735.095703 
	C714.425171,1742.203491 717.143616,1749.352051 719.926758,1756.475098 
	C720.971863,1759.149536 722.081543,1761.798828 723.780151,1765.982788 
	C729.390991,1759.028198 734.989990,1753.712280 738.603271,1747.280884 
	C746.803589,1732.684570 758.630920,1727.229492 774.862549,1729.908936 
	C778.362305,1730.486572 782.038818,1729.993408 787.638672,1729.993408 
	C782.018982,1737.097168 777.583618,1742.703857 772.716064,1748.874756 
z"/>
<path fill="#F7F8F9" opacity="1.000000" stroke="none" 
	d="
M928.146362,1785.774902 
	C927.368774,1798.333130 917.949646,1801.190674 909.165344,1803.938599 
	C902.580933,1805.998291 898.275513,1800.413940 892.413086,1796.824951 
	C895.146118,1790.125977 897.805237,1783.608154 900.333252,1777.411621 
	C906.838440,1777.712646 909.063538,1785.718384 915.288696,1783.428589 
	C919.879944,1781.739624 924.190186,1779.287354 930.157837,1776.445679 
	C929.341797,1780.327881 928.839355,1782.718018 928.146362,1785.774902 
z"/>
<path fill="#162A5D" opacity="1.000000" stroke="none" 
	d="
M1164.335815,1757.138184 
	C1167.116089,1757.228394 1169.118286,1757.179688 1171.076172,1757.450806 
	C1179.236816,1758.581177 1182.185669,1761.200684 1182.392212,1767.322876 
	C1182.610107,1773.781250 1178.296753,1779.746826 1171.536987,1780.696533 
	C1166.085815,1781.462524 1160.441162,1780.851685 1154.394531,1780.851685 
	C1153.084961,1773.131592 1156.126831,1766.359619 1157.671875,1759.487671 
	C1157.932983,1758.326416 1161.498535,1757.908081 1164.335815,1757.138184 
z"/>
<path fill="#162A5D" opacity="1.000000" stroke="none" 
	d="
M1048.001221,1776.048218 
	C1050.253662,1772.396729 1052.125488,1769.397949 1055.097290,1764.637207 
	C1057.025757,1773.929199 1058.580566,1781.420044 1060.295044,1789.681152 
	C1053.905762,1789.681152 1048.108032,1789.681152 1040.706543,1789.681152 
	C1043.191040,1785.016968 1045.405762,1780.859009 1048.001221,1776.048218 
z"/>
<path fill="#162A5D" opacity="1.000000" stroke="none" 
	d="
M523.466309,1789.558838 
	C518.043579,1790.148682 513.395813,1790.255249 508.747498,1790.293457 
	C508.114258,1790.298584 507.478210,1789.962036 505.474945,1789.399048 
	C510.007721,1781.542358 514.369934,1773.981323 518.732117,1766.420288 
	C519.361145,1766.442505 519.990112,1766.464600 520.619080,1766.486816 
	C521.283569,1770.084351 522.016907,1773.670898 522.593933,1777.282349 
	C523.218994,1781.194214 523.698303,1785.129150 523.466309,1789.558838 
z"/>
</svg>